<?xml version="1.0" encoding="UTF-8" standalone="no"?>
<!-- Created with Inkscape (http://www.inkscape.org/) -->

<svg
   version="1.1"
   id="svg1"
   width="291.35733"
   height="183.49333"
   viewBox="0 0 291.35733 183.49333"
   xmlns="http://www.w3.org/2000/svg"
   xmlns:svg="http://www.w3.org/2000/svg">
  <defs
     id="defs1" />
  <g
     id="g1">
    <g
       id="g2"
       aria-label="x+7a"
       transform="matrix(1.3333333,0,0,1.3333333,86.529333,16.169333)"
       style="fill:#ffffff;fill-opacity:1">
      <path
         id="path2"
         d="m 3.3295625,-3.0127422 c 0.058594,-0.2578125 0.2929688,-1.171875 0.984375,-1.171875 0.046875,0 0.2929688,0 0.5039063,0.1289063 -0.28125,0.046875 -0.4804688,0.3046875 -0.4804688,0.5390625 0,0.1640625 0.1054688,0.3515625 0.375,0.3515625 0.2226563,0 0.5390625,-0.1875 0.5390625,-0.5859375 0,-0.515625 -0.5859375,-0.65625 -0.9257812,-0.65625 -0.5742188,0 -0.9257813,0.5273437 -1.0429688,0.7617187 -0.2578125,-0.65625 -0.7851562,-0.7617187 -1.078125,-0.7617187 -1.0429687,0 -1.60546875,1.2890625 -1.60546875,1.5351562 0,0.1054688 0.10546875,0.1054688 0.1171875,0.1054688 0.0820313,0 0.1171875,-0.023437 0.12890625,-0.1171875 0.3398438,-1.0546875 0.9960938,-1.3007813 1.3359375,-1.3007813 0.1875,0 0.5390625,0.09375 0.5390625,0.6679688 0,0.3046875 -0.1640625,0.9726562 -0.5390625,2.3671875 -0.1523437,0.62109371 -0.5039062,1.04296871 -0.9492187,1.04296871 -0.058594,0 -0.28125005,0 -0.49218755,-0.12890625 0.24609375,-0.0585938 0.46875005,-0.26953125 0.46875005,-0.5390625 0,-0.26953126 -0.2226563,-0.35156246 -0.37500005,-0.35156246 -0.29296875,0 -0.5390625,0.25781246 -0.5390625,0.57421871 0,0.45703125 0.4921875,0.65625 0.93750005,0.65625 0.65625,0 1.0078125,-0.69140625 1.0429687,-0.75 0.1171875,0.36328125 0.4804688,0.75 1.078125,0.75 1.0195313,0 1.59375,-1.27734371 1.59375,-1.53515621 0,-0.09375 -0.09375,-0.09375 -0.1289062,-0.09375 -0.082031,0 -0.1054688,0.035156 -0.1289063,0.1054687 -0.328125,1.06640626 -0.9960937,1.31250001 -1.3242187,1.31250001 -0.3867188,0 -0.5390625,-0.328125 -0.5390625,-0.65625 0,-0.22265625 0.058594,-0.44531251 0.1640625,-0.87890621 z m 0,0"
         style="fill:#ffffff;fill-opacity:1;fill-rule:nonzero;stroke:none" />
      <path
         id="path3"
         d="m 11.983859,-2.2978984 h 2.777344 c 0.140625,0 0.328125,0 0.328125,-0.1992188 0,-0.1992187 -0.1875,-0.1992187 -0.328125,-0.1992187 h -2.777344 v -2.7890625 c 0,-0.1289063 0,-0.328125 -0.199218,-0.328125 -0.199219,0 -0.199219,0.1992187 -0.199219,0.328125 v 2.7890625 H 8.7963594 c -0.140625,0 -0.328125,0 -0.328125,0.1992187 0,0.1992188 0.1875,0.1992188 0.328125,0.1992188 h 2.7890626 v 2.80078121 c 0,0.12890625 0,0.328125 0.199219,0.328125 0.199218,0 0.199218,-0.19921875 0.199218,-0.328125 z m 10.628907,-3.7734375 c 0.08203,-0.1171875 0.08203,-0.140625 0.08203,-0.3398438 h -2.414063 c -1.21875,0 -1.242187,-0.1289062 -1.277343,-0.328125 h -0.246094 l -0.328125,2.0507813 h 0.246094 c 0.02344,-0.1523438 0.117187,-0.7851563 0.246093,-0.9023438 0.07031,-0.058594 0.84375,-0.058594 0.972657,-0.058594 h 2.0625 c -0.105469,0.1640625 -0.890625,1.2421875 -1.113282,1.5703125 -0.890625,1.3476562 -1.21875,2.7304687 -1.21875,3.74999996 0,0.09375 0,0.55078125 0.457032,0.55078125 0.457031,0 0.457031,-0.45703125 0.457031,-0.55078125 v -0.50390625 c 0,-0.55078121 0.02344,-1.10156251 0.105469,-1.64062501 0.04687,-0.2226562 0.175781,-1.078125 0.621093,-1.6992187 z m 0,0"
         style="fill:#ffffff;fill-opacity:1;fill-rule:nonzero;stroke:none" />
      <path
         id="path4"
         d="m 26.564914,-3.7627422 c -0.175781,-0.375 -0.46875,-0.6445312 -0.914062,-0.6445312 -1.171875,0 -2.402344,1.4648437 -2.402344,2.9179687 0,0.93750001 0.550781,1.59375001 1.324219,1.59375001 0.199218,0 0.703125,-0.03515625 1.300781,-0.73828125 0.07031,0.41015625 0.421875,0.73828125 0.902344,0.73828125 0.351562,0 0.574218,-0.22265625 0.738281,-0.5390625 0.164062,-0.36328125 0.292969,-0.97265621 0.292969,-0.99609371 0,-0.09375 -0.08203,-0.09375 -0.117188,-0.09375 -0.09375,0 -0.105469,0.035156 -0.140625,0.1757812 -0.164062,0.64453126 -0.351562,1.24218751 -0.75,1.24218751 -0.269531,0 -0.304687,-0.2578125 -0.304687,-0.45703125 0,-0.22265625 0.02344,-0.3046875 0.128906,-0.73828126 0.117187,-0.421875 0.128906,-0.5273437 0.222656,-0.9023437 l 0.351563,-1.3945313 c 0.07031,-0.28125 0.07031,-0.2929687 0.07031,-0.3398437 0,-0.1640625 -0.117187,-0.2695313 -0.28125,-0.2695313 -0.246094,0 -0.386719,0.2226563 -0.421875,0.4453125 z m -0.644531,2.578125 c -0.04687,0.1757813 -0.04687,0.19921876 -0.199219,0.36328126 -0.445312,0.55078125 -0.84375,0.71484375 -1.125,0.71484375 -0.503906,0 -0.644531,-0.55078125 -0.644531,-0.93750001 0,-0.5039062 0.328125,-1.7226562 0.550781,-2.1796875 0.304688,-0.5976562 0.761719,-0.9609375 1.160156,-0.9609375 0.644532,0 0.785157,0.8203125 0.785157,0.8789063 0,0.058594 -0.02344,0.1171875 -0.03516,0.1640625 z m 0,0"
         style="fill:#ffffff;fill-opacity:1;fill-rule:nonzero;stroke:none" />
    </g>
    <path
       id="path5"
       d="m 3.3289219,-3.0127422 c 0.058594,-0.2578125 0.2929687,-1.171875 0.984375,-1.171875 0.046875,0 0.2929687,0 0.5039062,0.1289063 -0.28125,0.046875 -0.4804687,0.3046875 -0.4804687,0.5390625 0,0.1640625 0.1054687,0.3515625 0.375,0.3515625 0.2226562,0 0.5390625,-0.1875 0.5390625,-0.5859375 0,-0.515625 -0.5859375,-0.65625 -0.9257813,-0.65625 -0.5742187,0 -0.9257812,0.5273437 -1.0429687,0.7617187 -0.2578125,-0.65625 -0.7851563,-0.7617187 -1.078125,-0.7617187 -1.0429688,0 -1.60546878,1.2890625 -1.60546878,1.5351562 0,0.1054688 0.10546875,0.1054688 0.1171875,0.1054688 0.0820313,0 0.1171875,-0.023437 0.12890625,-0.1171875 0.33984373,-1.0546875 0.99609373,-1.3007813 1.33593753,-1.3007813 0.1875,0 0.5390625,0.09375 0.5390625,0.6679688 0,0.3046875 -0.1640625,0.9726562 -0.5390625,2.3671875 -0.1523438,0.62109371 -0.5039063,1.04296871 -0.9492188,1.04296871 -0.058594,0 -0.28124998,0 -0.49218748,-0.12890625 0.24609375,-0.0585938 0.46874998,-0.26953125 0.46874998,-0.5390625 0,-0.26953126 -0.22265623,-0.35156246 -0.37499998,-0.35156246 -0.29296875,0 -0.5390625,0.25781246 -0.5390625,0.57421871 0,0.45703125 0.4921875,0.65625 0.93749998,0.65625 0.65625,0 1.0078125,-0.69140625 1.0429688,-0.75 0.1171875,0.36328125 0.4804687,0.75 1.078125,0.75 1.0195312,0 1.59375,-1.27734371 1.59375,-1.53515621 0,-0.09375 -0.09375,-0.09375 -0.1289063,-0.09375 -0.082031,0 -0.1054687,0.035156 -0.1289062,0.1054687 -0.328125,1.06640626 -0.9960938,1.31250001 -1.3242188,1.31250001 -0.3867187,0 -0.5390625,-0.328125 -0.5390625,-0.65625 0,-0.22265625 0.058594,-0.44531251 0.1640625,-0.87890621 z m 0,0"
       style="fill:#ffffff;fill-opacity:1;fill-rule:nonzero;stroke:none"
       aria-label="x"
       transform="matrix(1.3333333,0,0,1.3333333,182.288,16.169333)" />
    <g
       id="g5"
       aria-label="x+6a"
       transform="matrix(1.3333333,0,0,1.3333333,5.7186667,68.768)"
       style="fill:#ffffff;fill-opacity:1">
      <path
         id="path6"
         d="m 3.3281875,-3.0105703 c 0.058594,-0.2578125 0.2929688,-1.171875 0.984375,-1.171875 0.046875,0 0.2929688,0 0.5039063,0.1289062 C 4.5352188,-4.0066641 4.336,-3.7488516 4.336,-3.5144766 c 0,0.1640625 0.1054688,0.3515625 0.375,0.3515625 0.2226563,0 0.5390625,-0.1875 0.5390625,-0.5859375 0,-0.515625 -0.5859375,-0.65625 -0.9257812,-0.65625 -0.5742188,0 -0.9257813,0.5273438 -1.0429688,0.7617188 -0.2578125,-0.65625 -0.7851562,-0.7617188 -1.078125,-0.7617188 -1.0429687,0 -1.60546875,1.2890625 -1.60546875,1.5351563 0,0.1054687 0.10546875,0.1054687 0.1171875,0.1054687 0.0820313,0 0.1171875,-0.023437 0.12890625,-0.1171875 0.3398438,-1.0546875 0.9960938,-1.3007812 1.3359375,-1.3007812 0.1875,0 0.5390625,0.09375 0.5390625,0.6679687 0,0.3046875 -0.1640625,0.9726563 -0.5390625,2.3671875 -0.1523437,0.62109379 -0.5039062,1.04296879 -0.9492187,1.04296879 -0.058594,0 -0.28125005,0 -0.49218755,-0.12890625 0.24609375,-0.0585938 0.46875005,-0.26953125 0.46875005,-0.5390625 0,-0.26953124 -0.2226563,-0.35156254 -0.37500005,-0.35156254 -0.29296875,0 -0.5390625,0.25781254 -0.5390625,0.57421879 0,0.45703125 0.4921875,0.65625 0.93750005,0.65625 0.65625,0 1.0078125,-0.69140625 1.0429687,-0.75 0.1171875,0.36328125 0.4804688,0.75 1.078125,0.75 1.0195313,0 1.59375,-1.27734379 1.59375,-1.53515629 0,-0.09375 -0.09375,-0.09375 -0.1289062,-0.09375 -0.082031,0 -0.1054688,0.035156 -0.1289063,0.1054688 -0.328125,1.06640624 -0.9960937,1.31249999 -1.3242187,1.31249999 -0.3867188,0 -0.5390625,-0.328125 -0.5390625,-0.65625 0,-0.22265625 0.058594,-0.44531249 0.1640625,-0.87890629 z m 0,0"
         style="fill:#ffffff;fill-opacity:1;fill-rule:nonzero;stroke:none" />
      <path
         id="path7"
         d="m 11.985414,-2.2957266 h 2.777344 c 0.140625,0 0.328125,0 0.328125,-0.1992187 0,-0.1992188 -0.1875,-0.1992188 -0.328125,-0.1992188 h -2.777344 v -2.7890625 c 0,-0.1289062 0,-0.328125 -0.199219,-0.328125 -0.199218,0 -0.199218,0.1992188 -0.199218,0.328125 v 2.7890625 H 8.7979141 c -0.140625,0 -0.328125,0 -0.328125,0.1992188 0,0.1992187 0.1875,0.1992187 0.328125,0.1992187 h 2.7890629 v 2.80078129 c 0,0.12890625 0,0.328125 0.199218,0.328125 0.199219,0 0.199219,-0.19921875 0.199219,-0.328125 z m 7.195313,-0.9726562 v -0.234375 c 0,-2.5195313 1.242187,-2.8828125 1.746093,-2.8828125 0.234375,0 0.65625,0.058594 0.878907,0.3984375 -0.152344,0 -0.550782,0 -0.550782,0.4453125 0,0.3164062 0.234375,0.4570312 0.457032,0.4570312 0.164062,0 0.457031,-0.082031 0.457031,-0.46875 0,-0.5976562 -0.433594,-1.078125 -1.265625,-1.078125 -1.277344,0 -2.613281,1.2890625 -2.613281,3.4804688 0,2.66015624 1.148437,3.37499999 2.074218,3.37499999 1.113282,0 2.050782,-0.9375 2.050782,-2.24999999 0,-1.265625 -0.878907,-2.2265625 -1.992188,-2.2265625 -0.667969,0 -1.042969,0.5039062 -1.242187,0.984375 z m 1.183593,3.21093749 c -0.621093,0 -0.925781,-0.59765625 -0.984375,-0.75 -0.175781,-0.46874999 -0.175781,-1.26562499 -0.175781,-1.44140629 0,-0.7734375 0.316406,-1.7695312 1.21875,-1.7695312 0.152344,0 0.609375,0 0.925781,0.609375 0.175782,0.375 0.175782,0.8789062 0.175782,1.3710937 0,0.4804688 0,0.9726563 -0.164063,1.33593754 -0.304687,0.59765625 -0.761719,0.64453125 -0.996094,0.64453125 z m 0,0"
         style="fill:#ffffff;fill-opacity:1;fill-rule:nonzero;stroke:none" />
      <path
         id="path8"
         d="m 26.566469,-3.7605703 c -0.175781,-0.375 -0.46875,-0.6445313 -0.914063,-0.6445313 -1.171875,0 -2.402343,1.4648438 -2.402343,2.9179688 0,0.93749999 0.550781,1.59374999 1.324218,1.59374999 0.199219,0 0.703125,-0.03515625 1.300782,-0.73828125 0.07031,0.41015625 0.421875,0.73828125 0.902343,0.73828125 0.351563,0 0.574219,-0.22265625 0.738282,-0.5390625 0.164062,-0.36328125 0.292968,-0.97265629 0.292968,-0.99609379 0,-0.09375 -0.08203,-0.09375 -0.117187,-0.09375 -0.09375,0 -0.105469,0.035156 -0.140625,0.1757813 -0.164063,0.64453124 -0.351563,1.24218749 -0.75,1.24218749 -0.269531,0 -0.304688,-0.2578125 -0.304688,-0.45703125 0,-0.22265625 0.02344,-0.3046875 0.128907,-0.73828124 0.117187,-0.421875 0.128906,-0.5273438 0.222656,-0.9023438 l 0.351562,-1.3945312 c 0.07031,-0.28125 0.07031,-0.2929688 0.07031,-0.3398438 0,-0.1640625 -0.117188,-0.2695312 -0.28125,-0.2695312 -0.246094,0 -0.386719,0.2226562 -0.421875,0.4453125 z m -0.644531,2.578125 c -0.04687,0.1757812 -0.04687,0.19921874 -0.199219,0.36328124 -0.445313,0.55078125 -0.84375,0.71484375 -1.125,0.71484375 -0.503906,0 -0.644531,-0.55078125 -0.644531,-0.93749999 0,-0.5039063 0.328125,-1.7226563 0.550781,-2.1796875 0.304687,-0.5976563 0.761719,-0.9609375 1.160156,-0.9609375 0.644531,0 0.785156,0.8203125 0.785156,0.8789062 0,0.058594 -0.02344,0.1171875 -0.03516,0.1640625 z m 0,0"
         style="fill:#ffffff;fill-opacity:1;fill-rule:nonzero;stroke:none" />
    </g>
    <g
       id="g8"
       aria-label="x+a"
       transform="matrix(1.3333333,0,0,1.3333333,251.468,68.768)"
       style="fill:#ffffff;fill-opacity:1">
      <path
         id="path9"
         d="m 3.3286875,-3.0105703 c 0.058594,-0.2578125 0.2929688,-1.171875 0.984375,-1.171875 0.046875,0 0.2929688,0 0.5039063,0.1289062 -0.28125,0.046875 -0.4804688,0.3046875 -0.4804688,0.5390625 0,0.1640625 0.1054688,0.3515625 0.375,0.3515625 0.2226563,0 0.5390625,-0.1875 0.5390625,-0.5859375 0,-0.515625 -0.5859375,-0.65625 -0.9257812,-0.65625 -0.5742188,0 -0.9257813,0.5273438 -1.0429688,0.7617188 -0.2578125,-0.65625 -0.7851562,-0.7617188 -1.078125,-0.7617188 -1.0429687,0 -1.60546875,1.2890625 -1.60546875,1.5351563 0,0.1054687 0.10546875,0.1054687 0.1171875,0.1054687 0.0820313,0 0.1171875,-0.023437 0.12890625,-0.1171875 0.3398438,-1.0546875 0.9960938,-1.3007812 1.3359375,-1.3007812 0.1875,0 0.5390625,0.09375 0.5390625,0.6679687 0,0.3046875 -0.1640625,0.9726563 -0.5390625,2.3671875 -0.1523437,0.62109379 -0.5039062,1.04296879 -0.9492187,1.04296879 -0.058594,0 -0.28125005,0 -0.49218755,-0.12890625 0.24609375,-0.0585938 0.46875005,-0.26953125 0.46875005,-0.5390625 0,-0.26953124 -0.2226563,-0.35156254 -0.37500005,-0.35156254 -0.29296875,0 -0.5390625,0.25781254 -0.5390625,0.57421879 0,0.45703125 0.4921875,0.65625 0.93750005,0.65625 0.65625,0 1.0078125,-0.69140625 1.0429687,-0.75 0.1171875,0.36328125 0.4804688,0.75 1.078125,0.75 1.0195313,0 1.59375,-1.27734379 1.59375,-1.53515629 0,-0.09375 -0.09375,-0.09375 -0.1289062,-0.09375 -0.082031,0 -0.1054688,0.035156 -0.1289063,0.1054688 -0.328125,1.06640624 -0.9960937,1.31249999 -1.3242187,1.31249999 -0.3867188,0 -0.5390625,-0.328125 -0.5390625,-0.65625 0,-0.22265625 0.058594,-0.44531249 0.1640625,-0.87890629 z m 0,0"
         style="fill:#ffffff;fill-opacity:1;fill-rule:nonzero;stroke:none" />
      <path
         id="path10"
         d="m 11.985914,-2.2957266 h 2.777344 c 0.140625,0 0.328125,0 0.328125,-0.1992187 0,-0.1992188 -0.1875,-0.1992188 -0.328125,-0.1992188 h -2.777344 v -2.7890625 c 0,-0.1289062 0,-0.328125 -0.199219,-0.328125 -0.199218,0 -0.199218,0.1992188 -0.199218,0.328125 v 2.7890625 H 8.7984141 c -0.140625,0 -0.328125,0 -0.328125,0.1992188 0,0.1992187 0.1875,0.1992187 0.328125,0.1992187 h 2.7890629 v 2.80078129 c 0,0.12890625 0,0.328125 0.199218,0.328125 0.199219,0 0.199219,-0.19921875 0.199219,-0.328125 z m 0,0"
         style="fill:#ffffff;fill-opacity:1;fill-rule:nonzero;stroke:none" />
      <path
         id="path11"
         d="m 21.5865,-3.7605703 c -0.175781,-0.375 -0.46875,-0.6445313 -0.914062,-0.6445313 -1.171875,0 -2.402344,1.4648438 -2.402344,2.9179688 0,0.93749999 0.550781,1.59374999 1.324219,1.59374999 0.199218,0 0.703125,-0.03515625 1.300781,-0.73828125 0.07031,0.41015625 0.421875,0.73828125 0.902344,0.73828125 0.351562,0 0.574218,-0.22265625 0.738281,-0.5390625 0.164062,-0.36328125 0.292969,-0.97265629 0.292969,-0.99609379 0,-0.09375 -0.08203,-0.09375 -0.117188,-0.09375 -0.09375,0 -0.105469,0.035156 -0.140625,0.1757813 -0.164062,0.64453124 -0.351562,1.24218749 -0.75,1.24218749 -0.269531,0 -0.304687,-0.2578125 -0.304687,-0.45703125 0,-0.22265625 0.02344,-0.3046875 0.128906,-0.73828124 0.117187,-0.421875 0.128906,-0.5273438 0.222656,-0.9023438 l 0.351563,-1.3945312 c 0.07031,-0.28125 0.07031,-0.2929688 0.07031,-0.3398438 0,-0.1640625 -0.117187,-0.2695312 -0.28125,-0.2695312 -0.246094,0 -0.386719,0.2226562 -0.421875,0.4453125 z m -0.644531,2.578125 c -0.04687,0.1757812 -0.04687,0.19921874 -0.199219,0.36328124 -0.445312,0.55078125 -0.84375,0.71484375 -1.125,0.71484375 -0.503906,0 -0.644531,-0.55078125 -0.644531,-0.93749999 0,-0.5039063 0.328125,-1.7226563 0.550781,-2.1796875 0.304688,-0.5976563 0.761719,-0.9609375 1.160156,-0.9609375 0.644532,0 0.785157,0.8203125 0.785157,0.8789062 0,0.058594 -0.02344,0.1171875 -0.03516,0.1640625 z m 0,0"
         style="fill:#ffffff;fill-opacity:1;fill-rule:nonzero;stroke:none" />
    </g>
    <g
       id="g11"
       aria-label="x+5a"
       transform="matrix(1.3333333,0,0,1.3333333,5.7186667,121.36667)"
       style="fill:#ffffff;fill-opacity:1">
      <path
         id="path12"
         d="m 3.3281875,-3.0113281 c 0.058594,-0.2578125 0.2929688,-1.171875 0.984375,-1.171875 0.046875,0 0.2929688,0 0.5039063,0.1289062 C 4.5352188,-4.0074219 4.336,-3.7496094 4.336,-3.5152344 c 0,0.1640625 0.1054688,0.3515625 0.375,0.3515625 0.2226563,0 0.5390625,-0.1875 0.5390625,-0.5859375 0,-0.515625 -0.5859375,-0.65625 -0.9257812,-0.65625 -0.5742188,0 -0.9257813,0.5273438 -1.0429688,0.7617188 -0.2578125,-0.65625 -0.7851562,-0.7617188 -1.078125,-0.7617188 -1.0429687,0 -1.60546875,1.2890625 -1.60546875,1.5351563 0,0.1054687 0.10546875,0.1054687 0.1171875,0.1054687 0.0820313,0 0.1171875,-0.023437 0.12890625,-0.1171875 0.3398438,-1.0546875 0.9960938,-1.3007812 1.3359375,-1.3007812 0.1875,0 0.5390625,0.09375 0.5390625,0.6679687 0,0.3046875 -0.1640625,0.9726563 -0.5390625,2.3671875 -0.1523437,0.62109377 -0.5039062,1.04296877 -0.9492187,1.04296877 -0.058594,0 -0.28125005,0 -0.49218755,-0.12890625 0.24609375,-0.0585938 0.46875005,-0.26953125 0.46875005,-0.5390625 0,-0.26953122 -0.2226563,-0.35156252 -0.37500005,-0.35156252 -0.29296875,0 -0.5390625,0.25781252 -0.5390625,0.57421877 0,0.45703125 0.4921875,0.65625 0.93750005,0.65625 0.65625,0 1.0078125,-0.69140625 1.0429687,-0.75 0.1171875,0.36328125 0.4804688,0.75 1.078125,0.75 1.0195313,0 1.59375,-1.27734377 1.59375,-1.53515627 0,-0.09375 -0.09375,-0.09375 -0.1289062,-0.09375 -0.082031,0 -0.1054688,0.035156 -0.1289063,0.1054688 -0.328125,1.06640622 -0.9960937,1.31249997 -1.3242187,1.31249997 -0.3867188,0 -0.5390625,-0.328125 -0.5390625,-0.65625 0,-0.22265625 0.058594,-0.44531247 0.1640625,-0.87890627 z m 0,0"
         style="fill:#ffffff;fill-opacity:1;fill-rule:nonzero;stroke:none" />
      <path
         id="path13"
         d="m 11.985414,-2.2964844 h 2.777344 c 0.140625,0 0.328125,0 0.328125,-0.1992187 0,-0.1992188 -0.1875,-0.1992188 -0.328125,-0.1992188 h -2.777344 v -2.7890625 c 0,-0.1289062 0,-0.328125 -0.199219,-0.328125 -0.199218,0 -0.199218,0.1992188 -0.199218,0.328125 v 2.7890625 H 8.7979141 c -0.140625,0 -0.328125,0 -0.328125,0.1992188 0,0.1992187 0.1875,0.1992187 0.328125,0.1992187 h 2.7890629 v 2.80078127 c 0,0.12890625 0,0.328125 0.199218,0.328125 0.199219,0 0.199219,-0.19921875 0.199219,-0.328125 z m 10.359375,0.2929688 c 0,-1.1835938 -0.820312,-2.1796875 -1.898437,-2.1796875 -0.480469,0 -0.902344,0.1640625 -1.265625,0.5039062 v -1.9335937 c 0.199218,0.058594 0.527343,0.1289062 0.84375,0.1289062 1.230468,0 1.933593,-0.9140625 1.933593,-1.0429687 0,-0.058594 -0.03516,-0.1054688 -0.105468,-0.1054688 -0.01172,0 -0.03516,0 -0.08203,0.023437 -0.199218,0.09375 -0.679687,0.2929688 -1.347656,0.2929688 -0.398437,0 -0.855469,-0.070312 -1.324219,-0.28125 -0.08203,-0.023437 -0.105468,-0.023437 -0.128906,-0.023437 -0.09375,0 -0.09375,0.082031 -0.09375,0.234375 v 2.953125 c 0,0.1757812 0,0.2578125 0.140625,0.2578125 0.07031,0 0.08203,-0.035156 0.128906,-0.09375 0.105469,-0.1523438 0.480469,-0.6914063 1.277344,-0.6914063 0.527344,0 0.773438,0.4570313 0.855469,0.6328125 0.152344,0.375 0.175781,0.7617188 0.175781,1.2539063 0,0.3515625 0,0.9492187 -0.234375,1.37109372 -0.246094,0.38671875 -0.609375,0.64453125 -1.066406,0.64453125 -0.726563,0 -1.300781,-0.52734375 -1.464844,-1.11328127 0.02344,0.011719 0.05859,0.011719 0.164063,0.011719 0.328125,0 0.503906,-0.2460938 0.503906,-0.4804688 0,-0.2460937 -0.175781,-0.4921875 -0.503906,-0.4921875 -0.140625,0 -0.480469,0.070312 -0.480469,0.5273438 0,0.85546872 0.679687,1.82812497 1.792969,1.82812497 1.160156,0 2.179687,-0.9609375 2.179687,-2.22656247 z m 0,0"
         style="fill:#ffffff;fill-opacity:1;fill-rule:nonzero;stroke:none" />
      <path
         id="path14"
         d="m 26.566469,-3.7613281 c -0.175781,-0.375 -0.46875,-0.6445313 -0.914063,-0.6445313 -1.171875,0 -2.402343,1.4648438 -2.402343,2.9179688 0,0.93749997 0.550781,1.59374997 1.324218,1.59374997 0.199219,0 0.703125,-0.03515625 1.300782,-0.73828125 0.07031,0.41015625 0.421875,0.73828125 0.902343,0.73828125 0.351563,0 0.574219,-0.22265625 0.738282,-0.5390625 0.164062,-0.36328125 0.292968,-0.97265627 0.292968,-0.99609377 0,-0.09375 -0.08203,-0.09375 -0.117187,-0.09375 -0.09375,0 -0.105469,0.035156 -0.140625,0.1757813 -0.164063,0.64453122 -0.351563,1.24218747 -0.75,1.24218747 -0.269531,0 -0.304688,-0.2578125 -0.304688,-0.45703125 0,-0.22265625 0.02344,-0.3046875 0.128907,-0.73828122 0.117187,-0.421875 0.128906,-0.5273438 0.222656,-0.9023438 l 0.351562,-1.3945312 c 0.07031,-0.28125 0.07031,-0.2929688 0.07031,-0.3398438 0,-0.1640625 -0.117188,-0.2695312 -0.28125,-0.2695312 -0.246094,0 -0.386719,0.2226562 -0.421875,0.4453125 z m -0.644531,2.578125 c -0.04687,0.1757812 -0.04687,0.19921872 -0.199219,0.36328122 -0.445313,0.55078125 -0.84375,0.71484375 -1.125,0.71484375 -0.503906,0 -0.644531,-0.55078125 -0.644531,-0.93749997 0,-0.5039063 0.328125,-1.7226563 0.550781,-2.1796875 0.304687,-0.5976563 0.761719,-0.9609375 1.160156,-0.9609375 0.644531,0 0.785156,0.8203125 0.785156,0.8789062 0,0.058594 -0.02344,0.1171875 -0.03516,0.1640625 z m 0,0"
         style="fill:#ffffff;fill-opacity:1;fill-rule:nonzero;stroke:none" />
    </g>
    <g
       id="g14"
       aria-label="x+2a"
       transform="matrix(1.3333333,0,0,1.3333333,248.148,121.36667)"
       style="fill:#ffffff;fill-opacity:1">
      <path
         id="path15"
         d="m 3.3284531,-3.0113281 c 0.058594,-0.2578125 0.2929688,-1.171875 0.984375,-1.171875 0.046875,0 0.2929688,0 0.5039063,0.1289062 -0.28125,0.046875 -0.4804688,0.3046875 -0.4804688,0.5390625 0,0.1640625 0.1054688,0.3515625 0.375,0.3515625 0.2226563,0 0.5390625,-0.1875 0.5390625,-0.5859375 0,-0.515625 -0.5859375,-0.65625 -0.9257812,-0.65625 -0.5742188,0 -0.9257813,0.5273438 -1.0429688,0.7617188 -0.2578125,-0.65625 -0.7851562,-0.7617188 -1.078125,-0.7617188 -1.0429687,0 -1.60546872,1.2890625 -1.60546872,1.5351563 0,0.1054687 0.10546875,0.1054687 0.1171875,0.1054687 0.0820313,0 0.1171875,-0.023437 0.12890625,-0.1171875 0.33984377,-1.0546875 0.99609377,-1.3007812 1.33593747,-1.3007812 0.1875,0 0.5390625,0.09375 0.5390625,0.6679687 0,0.3046875 -0.1640625,0.9726563 -0.5390625,2.3671875 -0.1523437,0.62109377 -0.5039062,1.04296877 -0.9492187,1.04296877 -0.058594,0 -0.28125002,0 -0.49218752,-0.12890625 0.24609375,-0.0585938 0.46875002,-0.26953125 0.46875002,-0.5390625 0,-0.26953122 -0.22265627,-0.35156252 -0.37500002,-0.35156252 -0.29296875,0 -0.5390625,0.25781252 -0.5390625,0.57421877 0,0.45703125 0.4921875,0.65625 0.93750002,0.65625 0.65625,0 1.0078125,-0.69140625 1.0429687,-0.75 0.1171875,0.36328125 0.4804688,0.75 1.078125,0.75 1.0195313,0 1.59375,-1.27734377 1.59375,-1.53515627 0,-0.09375 -0.09375,-0.09375 -0.1289062,-0.09375 -0.082031,0 -0.1054688,0.035156 -0.1289063,0.1054688 -0.328125,1.06640622 -0.9960937,1.31249997 -1.3242187,1.31249997 -0.3867188,0 -0.5390625,-0.328125 -0.5390625,-0.65625 0,-0.22265625 0.058594,-0.44531247 0.1640625,-0.87890627 z m 0,0"
         style="fill:#ffffff;fill-opacity:1;fill-rule:nonzero;stroke:none" />
      <path
         id="path16"
         d="m 11.98568,-2.2964844 h 2.777343 c 0.140625,0 0.328125,0 0.328125,-0.1992187 0,-0.1992188 -0.1875,-0.1992188 -0.328125,-0.1992188 H 11.98568 v -2.7890625 c 0,-0.1289062 0,-0.328125 -0.199219,-0.328125 -0.199219,0 -0.199219,0.1992188 -0.199219,0.328125 v 2.7890625 H 8.7981797 c -0.140625,0 -0.328125,0 -0.328125,0.1992188 0,0.1992187 0.1875,0.1992187 0.328125,0.1992187 h 2.7890623 v 2.80078127 c 0,0.12890625 0,0.328125 0.199219,0.328125 0.199219,0 0.199219,-0.19921875 0.199219,-0.328125 z m 7.148437,1.53515627 1.054688,-1.03124997 c 1.558593,-1.3710938 2.15625,-1.9101563 2.15625,-2.90625 0,-1.1367188 -0.902344,-1.9335938 -2.121094,-1.9335938 -1.125,0 -1.851563,0.9140625 -1.851563,1.8046875 0,0.5507813 0.492188,0.5507813 0.527344,0.5507813 0.164063,0 0.515625,-0.1171875 0.515625,-0.5273438 0,-0.2578125 -0.1875,-0.515625 -0.527344,-0.515625 -0.08203,0 -0.105468,0 -0.128906,0.011719 0.222656,-0.6445313 0.761719,-1.0195313 1.335938,-1.0195313 0.914062,0 1.335937,0.8085938 1.335937,1.6289063 0,0.796875 -0.492187,1.5820312 -1.042969,2.203125 l -1.910156,2.13281247 c -0.105469,0.10546875 -0.105469,0.12890625 -0.105469,0.363281255 h 3.691407 l 0.28125,-1.734375025 h -0.257813 c -0.04687,0.3046875 -0.117187,0.73828127 -0.210937,0.89062502 -0.07031,0.0820313 -0.726563,0.0820313 -0.949219,0.0820313 z m 0,0"
         style="fill:#ffffff;fill-opacity:1;fill-rule:nonzero;stroke:none" />
      <path
         id="path17"
         d="m 26.566734,-3.7613281 c -0.175781,-0.375 -0.46875,-0.6445313 -0.914062,-0.6445313 -1.171875,0 -2.402344,1.4648438 -2.402344,2.9179688 0,0.93749997 0.550781,1.59374997 1.324219,1.59374997 0.199219,0 0.703125,-0.03515625 1.300781,-0.73828125 0.07031,0.41015625 0.421875,0.73828125 0.902344,0.73828125 0.351562,0 0.574219,-0.22265625 0.738281,-0.5390625 0.164063,-0.36328125 0.292969,-0.97265627 0.292969,-0.99609377 0,-0.09375 -0.08203,-0.09375 -0.117188,-0.09375 -0.09375,0 -0.105468,0.035156 -0.140625,0.1757813 -0.164062,0.64453122 -0.351562,1.24218747 -0.75,1.24218747 -0.269531,0 -0.304687,-0.2578125 -0.304687,-0.45703125 0,-0.22265625 0.02344,-0.3046875 0.128906,-0.73828122 0.117188,-0.421875 0.128906,-0.5273438 0.222656,-0.9023438 l 0.351563,-1.3945312 c 0.07031,-0.28125 0.07031,-0.2929688 0.07031,-0.3398438 0,-0.1640625 -0.117187,-0.2695312 -0.28125,-0.2695312 -0.246093,0 -0.386718,0.2226562 -0.421875,0.4453125 z m -0.644531,2.578125 c -0.04687,0.1757812 -0.04687,0.19921872 -0.199219,0.36328122 -0.445312,0.55078125 -0.84375,0.71484375 -1.125,0.71484375 -0.503906,0 -0.644531,-0.55078125 -0.644531,-0.93749997 0,-0.5039063 0.328125,-1.7226563 0.550781,-2.1796875 0.304688,-0.5976563 0.761719,-0.9609375 1.160157,-0.9609375 0.644531,0 0.785156,0.8203125 0.785156,0.8789062 0,0.058594 -0.02344,0.1171875 -0.03516,0.1640625 z m 0,0"
         style="fill:#ffffff;fill-opacity:1;fill-rule:nonzero;stroke:none" />
    </g>
    <g
       id="g17"
       aria-label="x+4a"
       transform="matrix(1.3333333,0,0,1.3333333,86.529333,173.96667)"
       style="fill:#ffffff;fill-opacity:1">
      <path
         id="path18"
         d="m 3.3295625,-3.0130859 c 0.058594,-0.2578125 0.2929688,-1.171875 0.984375,-1.171875 0.046875,0 0.2929688,0 0.5039063,0.1289062 -0.28125,0.046875 -0.4804688,0.3046875 -0.4804688,0.5390625 0,0.1640625 0.1054688,0.3515625 0.375,0.3515625 0.2226563,0 0.5390625,-0.1875 0.5390625,-0.5859375 0,-0.515625 -0.5859375,-0.65625 -0.9257812,-0.65625 -0.5742188,0 -0.9257813,0.5273438 -1.0429688,0.7617188 -0.2578125,-0.65625 -0.7851562,-0.7617188 -1.078125,-0.7617188 -1.0429687,0 -1.60546875,1.2890625 -1.60546875,1.5351563 0,0.1054687 0.10546875,0.1054687 0.1171875,0.1054687 0.0820313,0 0.1171875,-0.023437 0.12890625,-0.1171875 0.3398438,-1.0546875 0.9960938,-1.3007812 1.3359375,-1.3007812 0.1875,0 0.5390625,0.09375 0.5390625,0.6679687 0,0.3046875 -0.1640625,0.9726563 -0.5390625,2.3671875 -0.1523437,0.62109376 -0.5039062,1.04296876 -0.9492187,1.04296876 -0.058594,0 -0.28125005,0 -0.49218755,-0.12890625 0.24609375,-0.0585938 0.46875005,-0.26953125 0.46875005,-0.5390625 0,-0.26953121 -0.2226563,-0.35156251 -0.37500005,-0.35156251 -0.29296875,0 -0.5390625,0.25781251 -0.5390625,0.57421876 0,0.45703125 0.4921875,0.65625 0.93750005,0.65625 0.65625,0 1.0078125,-0.69140625 1.0429687,-0.75 0.1171875,0.36328125 0.4804688,0.75 1.078125,0.75 1.0195313,0 1.59375,-1.27734376 1.59375,-1.53515626 0,-0.09375 -0.09375,-0.09375 -0.1289062,-0.09375 -0.082031,0 -0.1054688,0.035156 -0.1289063,0.1054688 -0.328125,1.06640621 -0.9960937,1.31249996 -1.3242187,1.31249996 -0.3867188,0 -0.5390625,-0.328125 -0.5390625,-0.65625 0,-0.22265625 0.058594,-0.44531246 0.1640625,-0.87890626 z m 0,0"
         style="fill:#ffffff;fill-opacity:1;fill-rule:nonzero;stroke:none" />
      <path
         id="path19"
         d="m 11.983859,-2.2982422 h 2.777344 c 0.140625,0 0.328125,0 0.328125,-0.1992187 0,-0.1992188 -0.1875,-0.1992188 -0.328125,-0.1992188 h -2.777344 v -2.7890625 c 0,-0.1289062 0,-0.328125 -0.199218,-0.328125 -0.199219,0 -0.199219,0.1992188 -0.199219,0.328125 v 2.7890625 H 8.7963594 c -0.140625,0 -0.328125,0 -0.328125,0.1992188 0,0.1992187 0.1875,0.1992187 0.328125,0.1992187 h 2.7890626 v 2.80078126 c 0,0.12890625 0,0.328125 0.199219,0.328125 0.199218,0 0.199218,-0.19921875 0.199218,-0.328125 z m 8.8125,0.65625 v 0.86718751 c 0,0.3515625 -0.02344,0.46875 -0.761718,0.46875 h -0.210938 v 0.3046875 c 0.410156,-0.03515625 0.9375,-0.03515625 1.347656,-0.03515625 0.421875,0 0.949219,0 1.359375,0.03515625 v -0.3046875 h -0.210937 c -0.738281,0 -0.761719,-0.1171875 -0.761719,-0.46875 V -1.6419922 h 0.996094 v -0.3164062 h -0.996094 v -4.5234375 c 0,-0.1992188 0,-0.2578125 -0.152344,-0.2578125 -0.09375,0 -0.117187,0 -0.199218,0.1171875 l -3.058594,4.6640625 v 0.3164062 z m 0.05859,-0.3164062 h -2.425781 l 2.425781,-3.7148438 z m 0,0"
         style="fill:#ffffff;fill-opacity:1;fill-rule:nonzero;stroke:none" />
      <path
         id="path20"
         d="m 26.564914,-3.7630859 c -0.175781,-0.375 -0.46875,-0.6445313 -0.914062,-0.6445313 -1.171875,0 -2.402344,1.4648438 -2.402344,2.9179688 0,0.93749996 0.550781,1.59374996 1.324219,1.59374996 0.199218,0 0.703125,-0.03515625 1.300781,-0.73828125 0.07031,0.41015625 0.421875,0.73828125 0.902344,0.73828125 0.351562,0 0.574218,-0.22265625 0.738281,-0.5390625 0.164062,-0.36328125 0.292969,-0.97265626 0.292969,-0.99609376 0,-0.09375 -0.08203,-0.09375 -0.117188,-0.09375 -0.09375,0 -0.105469,0.035156 -0.140625,0.1757813 -0.164062,0.64453121 -0.351562,1.24218746 -0.75,1.24218746 -0.269531,0 -0.304687,-0.2578125 -0.304687,-0.45703125 0,-0.22265625 0.02344,-0.3046875 0.128906,-0.73828121 0.117187,-0.421875 0.128906,-0.5273438 0.222656,-0.9023438 l 0.351563,-1.3945312 c 0.07031,-0.28125 0.07031,-0.2929688 0.07031,-0.3398438 0,-0.1640625 -0.117187,-0.2695312 -0.28125,-0.2695312 -0.246094,0 -0.386719,0.2226562 -0.421875,0.4453125 z m -0.644531,2.578125 c -0.04687,0.1757812 -0.04687,0.19921871 -0.199219,0.36328121 -0.445312,0.55078125 -0.84375,0.71484375 -1.125,0.71484375 -0.503906,0 -0.644531,-0.55078125 -0.644531,-0.93749996 0,-0.5039063 0.328125,-1.7226563 0.550781,-2.1796875 0.304688,-0.5976563 0.761719,-0.9609375 1.160156,-0.9609375 0.644532,0 0.785157,0.8203125 0.785157,0.8789062 0,0.058594 -0.02344,0.1171875 -0.03516,0.1640625 z m 0,0"
         style="fill:#ffffff;fill-opacity:1;fill-rule:nonzero;stroke:none" />
    </g>
    <g
       id="g20"
       aria-label="x+3a"
       transform="matrix(1.3333333,0,0,1.3333333,167.33867,173.96667)"
       style="fill:#ffffff;fill-opacity:1">
      <path
         id="path21"
         d="m 3.3290078,-3.0130859 c 0.058594,-0.2578125 0.2929688,-1.171875 0.984375,-1.171875 0.046875,0 0.2929688,0 0.5039063,0.1289062 -0.28125,0.046875 -0.4804688,0.3046875 -0.4804688,0.5390625 0,0.1640625 0.1054688,0.3515625 0.375,0.3515625 0.2226563,0 0.5390625,-0.1875 0.5390625,-0.5859375 0,-0.515625 -0.5859375,-0.65625 -0.9257812,-0.65625 -0.5742188,0 -0.9257813,0.5273438 -1.0429688,0.7617188 -0.2578125,-0.65625 -0.7851562,-0.7617188 -1.078125,-0.7617188 -1.0429687,0 -1.60546874,1.2890625 -1.60546874,1.5351563 0,0.1054687 0.10546875,0.1054687 0.1171875,0.1054687 0.0820313,0 0.1171875,-0.023437 0.12890625,-0.1171875 0.33984379,-1.0546875 0.99609379,-1.3007812 1.33593749,-1.3007812 0.1875,0 0.5390625,0.09375 0.5390625,0.6679687 0,0.3046875 -0.1640625,0.9726563 -0.5390625,2.3671875 -0.1523437,0.62109376 -0.5039062,1.04296876 -0.9492187,1.04296876 -0.058594,0 -0.28125004,0 -0.49218754,-0.12890625 0.24609375,-0.0585938 0.46875004,-0.26953125 0.46875004,-0.5390625 0,-0.26953121 -0.22265629,-0.35156251 -0.37500004,-0.35156251 -0.29296875,0 -0.5390625,0.25781251 -0.5390625,0.57421876 0,0.45703125 0.4921875,0.65625 0.93750004,0.65625 0.65625,0 1.0078125,-0.69140625 1.0429687,-0.75 0.1171875,0.36328125 0.4804688,0.75 1.078125,0.75 1.0195313,0 1.59375,-1.27734376 1.59375,-1.53515626 0,-0.09375 -0.09375,-0.09375 -0.1289062,-0.09375 -0.082031,0 -0.1054688,0.035156 -0.1289063,0.1054688 -0.328125,1.06640621 -0.9960937,1.31249996 -1.3242187,1.31249996 -0.3867188,0 -0.5390625,-0.328125 -0.5390625,-0.65625 0,-0.22265625 0.058594,-0.44531246 0.1640625,-0.87890626 z m 0,0"
         style="fill:#ffffff;fill-opacity:1;fill-rule:nonzero;stroke:none" />
      <path
         id="path22"
         d="m 11.986234,-2.2982422 h 2.777344 c 0.140625,0 0.328125,0 0.328125,-0.1992187 0,-0.1992188 -0.1875,-0.1992188 -0.328125,-0.1992188 h -2.777344 v -2.7890625 c 0,-0.1289062 0,-0.328125 -0.199218,-0.328125 -0.199219,0 -0.199219,0.1992188 -0.199219,0.328125 v 2.7890625 H 8.7987344 c -0.140625,0 -0.328125,0 -0.328125,0.1992188 0,0.1992187 0.1875,0.1992187 0.328125,0.1992187 h 2.7890626 v 2.80078126 c 0,0.12890625 0,0.328125 0.199219,0.328125 0.199218,0 0.199218,-0.19921875 0.199218,-0.328125 z m 8.777344,-1.2070312 c 0.808594,-0.2695313 1.394531,-0.9726563 1.394531,-1.7578125 0,-0.8203125 -0.878906,-1.3710938 -1.839843,-1.3710938 -1.007813,0 -1.757813,0.5976563 -1.757813,1.3476563 0,0.3398437 0.210938,0.5273437 0.503906,0.5273437 0.304688,0 0.503907,-0.2226562 0.503907,-0.515625 0,-0.4921875 -0.46875,-0.4921875 -0.609375,-0.4921875 0.304687,-0.4921875 0.960937,-0.6210937 1.324218,-0.6210937 0.410157,0 0.949219,0.2226562 0.949219,1.1132812 0,0.1289063 -0.01172,0.703125 -0.269531,1.1367188 -0.304688,0.4804687 -0.644531,0.515625 -0.890625,0.515625 -0.08203,0.011719 -0.316406,0.035156 -0.386719,0.035156 -0.08203,0.011719 -0.152344,0.023437 -0.152344,0.1171875 0,0.1171875 0.07031,0.1171875 0.234375,0.1171875 h 0.445313 c 0.808594,0 1.183594,0.6679688 1.183594,1.6523438 0,1.34765621 -0.691407,1.64062496 -1.125,1.64062496 -0.433594,0 -1.171875,-0.17578125 -1.523438,-0.76171875 0.351563,0.0585938 0.65625,-0.1640625 0.65625,-0.53906251 0,-0.3632812 -0.269531,-0.5625 -0.5625,-0.5625 -0.234375,0 -0.550781,0.140625 -0.550781,0.5742188 0,0.91406246 0.925781,1.57031246 2.003906,1.57031246 1.21875,0 2.121094,-0.9140625 2.121094,-1.92187496 0,-0.8203125 -0.621094,-1.59375 -1.652344,-1.8046873 z m 0,0"
         style="fill:#ffffff;fill-opacity:1;fill-rule:nonzero;stroke:none" />
      <path
         id="path23"
         d="m 26.567289,-3.7630859 c -0.175781,-0.375 -0.46875,-0.6445313 -0.914062,-0.6445313 -1.171875,0 -2.402344,1.4648438 -2.402344,2.9179688 0,0.93749996 0.550781,1.59374996 1.324219,1.59374996 0.199218,0 0.703125,-0.03515625 1.300781,-0.73828125 0.07031,0.41015625 0.421875,0.73828125 0.902344,0.73828125 0.351562,0 0.574218,-0.22265625 0.738281,-0.5390625 0.164062,-0.36328125 0.292969,-0.97265626 0.292969,-0.99609376 0,-0.09375 -0.08203,-0.09375 -0.117188,-0.09375 -0.09375,0 -0.105469,0.035156 -0.140625,0.1757813 -0.164062,0.64453121 -0.351562,1.24218746 -0.75,1.24218746 -0.269531,0 -0.304687,-0.2578125 -0.304687,-0.45703125 0,-0.22265625 0.02344,-0.3046875 0.128906,-0.73828121 0.117187,-0.421875 0.128906,-0.5273438 0.222656,-0.9023438 l 0.351563,-1.3945312 c 0.07031,-0.28125 0.07031,-0.2929688 0.07031,-0.3398438 0,-0.1640625 -0.117187,-0.2695312 -0.28125,-0.2695312 -0.246094,0 -0.386719,0.2226562 -0.421875,0.4453125 z m -0.644531,2.578125 c -0.04687,0.1757812 -0.04687,0.19921871 -0.199219,0.36328121 -0.445312,0.55078125 -0.84375,0.71484375 -1.125,0.71484375 -0.503906,0 -0.644531,-0.55078125 -0.644531,-0.93749996 0,-0.5039063 0.328125,-1.7226563 0.550781,-2.1796875 0.304688,-0.5976563 0.761719,-0.9609375 1.160156,-0.9609375 0.644532,0 0.785157,0.8203125 0.785157,0.8789062 0,0.058594 -0.02344,0.1171875 -0.03516,0.1640625 z m 0,0"
         style="fill:#ffffff;fill-opacity:1;fill-rule:nonzero;stroke:none" />
    </g>
    <path
       id="path24"
       d="M -11.75604,58.87032 H 22.56969"
       style="fill:none;stroke:#ff0000;stroke-width:0.39848;stroke-linecap:butt;stroke-linejoin:miter;stroke-miterlimit:10;stroke-dasharray:none;stroke-opacity:1"
       transform="matrix(1.3333333,0,0,-1.3333333,145.67867,91.341333)" />
    <path
       id="path25"
       d="M -2.07213,2.39091 C -1.69356,0.95633 -0.84995,0.27893 0,0 -0.84995,-0.27893 -1.69356,-0.95633 -2.07213,-2.39091"
       style="fill:none;stroke:#ff0000;stroke-width:0.39848;stroke-linecap:round;stroke-linejoin:round;stroke-miterlimit:10;stroke-dasharray:none;stroke-opacity:1"
       transform="matrix(1.3333333,0,0,-1.3333333,176.03723,12.847573)" />
    <g
       id="g25"
       aria-label="+a"
       transform="matrix(1.3333333,0,0,1.3333333,146.19467,8.616)">
      <path
         id="path26"
         d="m 3.2231406,-1.5694219 h 2.1445313 c 0.082031,0 0.2578125,0 0.2578125,-0.1757812 0,-0.1757813 -0.1640625,-0.1757813 -0.2578125,-0.1757813 H 3.2231406 v -2.1328125 c 0,-0.09375 0,-0.2578125 -0.1640625,-0.2578125 -0.1757812,0 -0.1757812,0.1523438 -0.1757812,0.2578125 v 2.1328125 H 0.75048438 c -0.09375,0 -0.2578125,0 -0.2578125,0.1757813 0,0.1757812 0.15234375,0.1757812 0.2578125,0.1757812 H 2.8832969 v 2.13281252 c 0,0.09375 0,0.2578125 0.1757812,0.2578125 0.1640625,0 0.1640625,-0.15234375 0.1640625,-0.2578125 z m 0,0"
         style="fill:#ff0000;fill-opacity:1;fill-rule:nonzero;stroke:none" />
      <path
         id="path27"
         d="m 9.0561484,-2.6592656 c -0.140625,-0.234375 -0.3867187,-0.4101563 -0.7148437,-0.4101563 -0.890625,0 -1.8046875,0.9726563 -1.8046875,1.9804688 0,0.67968747 0.4570312,1.16015622 1.0546875,1.16015622 0.375,0 0.7148437,-0.2109375 0.9960937,-0.4921875 0.1289063,0.421875005 0.5273438,0.4921875 0.7148438,0.4921875 0.2460937,0 0.421875,-0.15234375 0.5507812,-0.375 0.1523436,-0.26953125 0.2460936,-0.66796875 0.2460936,-0.69140625 0,-0.09375 -0.09375,-0.09375 -0.1171873,-0.09375 -0.09375,0 -0.1054688,0.035156 -0.1523438,0.22265619 -0.082031,0.328125 -0.2109375,0.73828125 -0.5039062,0.73828125 -0.1875,0 -0.234375,-0.15234375 -0.234375,-0.33984375 0,-0.1171875 0.058594,-0.36328125 0.1054687,-0.55078119 0.046875,-0.1875 0.1171875,-0.46875 0.1523438,-0.6210938 l 0.140625,-0.5390625 c 0.046875,-0.1757812 0.1289062,-0.5039062 0.1289062,-0.5390625 0,-0.1523437 -0.1289062,-0.2226562 -0.2460937,-0.2226562 -0.1171875,0 -0.2695313,0.082031 -0.3164063,0.28125 z m -0.4453125,1.79296872 c -0.046875,0.1875 -0.1992187,0.328125 -0.3515625,0.45703125 -0.070312,0.0585938 -0.3398437,0.28125 -0.6445312,0.28125 -0.2578125,0 -0.515625,-0.17578125 -0.515625,-0.66796875 0,-0.37500002 0.2109375,-1.13671872 0.3632812,-1.41796872 0.328125,-0.5625 0.6796875,-0.6679688 0.8789063,-0.6679688 0.4804687,0 0.6210937,0.5273438 0.6210937,0.609375 0,0.023437 -0.011719,0.082031 -0.023437,0.09375 z m 0,0"
         style="fill:#ff0000;fill-opacity:1;fill-rule:nonzero;stroke:none" />
    </g>
    <path
       id="path28"
       d="M -11.75604,52.84148 74.47572,24.76335"
       style="fill:none;stroke:#00ff00;stroke-width:0.39848;stroke-linecap:butt;stroke-linejoin:miter;stroke-miterlimit:10;stroke-dasharray:none;stroke-opacity:1"
       transform="matrix(1.3333333,0,0,-1.3333333,145.67867,91.341333)" />
    <path
       id="path29"
       d="M -2.07213,2.39091 C -1.69356,0.95633 -0.84995,0.27893 0,0 -0.84995,-0.27893 -1.69356,-0.95633 -2.07213,-2.39091"
       style="fill:none;stroke:#00ff00;stroke-width:0.39848;stroke-linecap:round;stroke-linejoin:round;stroke-miterlimit:10;stroke-dasharray:none;stroke-opacity:1"
       transform="matrix(1.2678,0.41278667,0.41278667,-1.2678,245.2322,58.40576)" />
    <g
       id="g29"
       aria-label="+2a"
       transform="matrix(1.3333333,0,0,1.3333333,178.13867,48.804)">
      <path
         id="path30"
         d="m 3.2211953,-1.5697969 h 2.1445313 c 0.082031,0 0.2578125,0 0.2578125,-0.1757812 0,-0.1757813 -0.1640625,-0.1757813 -0.2578125,-0.1757813 H 3.2211953 v -2.1328125 c 0,-0.09375 0,-0.2578125 -0.1640625,-0.2578125 -0.1757812,0 -0.1757812,0.1523438 -0.1757812,0.2578125 v 2.1328125 H 0.74853906 c -0.09375,0 -0.2578125,0 -0.2578125,0.1757813 0,0.1757812 0.15234375,0.1757812 0.2578125,0.1757812 H 2.8813516 v 2.13281252 c 0,0.09375 0,0.2578125 0.1757812,0.2578125 0.1640625,0 0.1640625,-0.15234375 0.1640625,-0.2578125 z m 6.4101563,0.3046875 h -0.234375 c -0.023437,0.1523438 -0.082031,0.56250002 -0.1757813,0.63281252 -0.058594,0.0351563 -0.5976562,0.0351563 -0.6914062,0.0351563 H 7.2407266 c 0.7382812,-0.64453122 0.984375,-0.84374992 1.3945312,-1.17187492 0.515625,-0.4101564 0.9960938,-0.84375 0.9960938,-1.5 0,-0.84375 -0.7382813,-1.359375 -1.6289063,-1.359375 -0.8671875,0 -1.453125,0.609375 -1.453125,1.2421875 0,0.3632811 0.3046875,0.3984375 0.375,0.3984375 0.1640625,0 0.375,-0.1171875 0.375,-0.375 0,-0.1289064 -0.058594,-0.3632814 -0.421875,-0.3632814 0.2226563,-0.5039061 0.6914063,-0.6562499 1.0195313,-0.6562499 0.703125,0 1.0664062,0.5507813 1.0664062,1.1132813 0,0.609375 -0.4335937,1.0898437 -0.65625,1.3359375 l -1.6875,1.66406242 c -0.070312,0.0585938 -0.070312,0.0703125 -0.070312,0.269531255 h 2.8828125 z m 0,0"
         style="fill:#00ff00;fill-opacity:1;fill-rule:nonzero;stroke:none" />
      <path
         id="path31"
         d="m 13.029789,-2.6596406 c -0.140625,-0.234375 -0.386719,-0.4101563 -0.714844,-0.4101563 -0.890625,0 -1.804687,0.9726563 -1.804687,1.9804688 0,0.67968747 0.457031,1.16015622 1.054687,1.16015622 0.375,0 0.714844,-0.2109375 0.996094,-0.4921875 0.128906,0.421875005 0.527344,0.4921875 0.714844,0.4921875 0.246094,0 0.421875,-0.15234375 0.550781,-0.375 0.152344,-0.26953125 0.246094,-0.66796875 0.246094,-0.69140625 0,-0.09375 -0.09375,-0.09375 -0.117188,-0.09375 -0.09375,0 -0.105468,0.035156 -0.152343,0.22265619 -0.08203,0.328125 -0.210938,0.73828125 -0.503907,0.73828125 -0.1875,0 -0.234375,-0.15234375 -0.234375,-0.33984375 0,-0.1171875 0.05859,-0.36328125 0.105469,-0.55078119 0.04687,-0.1875 0.117188,-0.46875 0.152344,-0.6210938 l 0.140625,-0.5390625 c 0.04687,-0.1757812 0.128906,-0.5039062 0.128906,-0.5390625 0,-0.1523437 -0.128906,-0.2226562 -0.246094,-0.2226562 -0.117187,0 -0.269531,0.082031 -0.316406,0.28125 z m -0.445312,1.79296872 c -0.04687,0.1875 -0.199219,0.328125 -0.351563,0.45703125 -0.07031,0.0585938 -0.339844,0.28125 -0.644531,0.28125 -0.257813,0 -0.515625,-0.17578125 -0.515625,-0.66796875 0,-0.37500002 0.210937,-1.13671872 0.363281,-1.41796872 0.328125,-0.5625 0.679688,-0.6679688 0.878906,-0.6679688 0.480469,0 0.621094,0.5273438 0.621094,0.609375 0,0.023437 -0.01172,0.082031 -0.02344,0.09375 z m 0,0"
         style="fill:#00ff00;fill-opacity:1;fill-rule:nonzero;stroke:none" />
    </g>
    <path
       id="path32"
       d="M 37.63968,54.09709 79.56862,26.80414"
       style="fill:none;stroke:#ff0000;stroke-width:0.39848;stroke-linecap:butt;stroke-linejoin:miter;stroke-miterlimit:10;stroke-dasharray:none;stroke-opacity:1"
       transform="matrix(1.3333333,0,0,-1.3333333,145.67867,91.341333)" />
    <path
       id="path33"
       d="M -2.07213,2.39091 C -1.69356,0.95633 -0.84995,0.27893 0,0 -0.84995,-0.27893 -1.69356,-0.95633 -2.07213,-2.39091"
       style="fill:none;stroke:#ff0000;stroke-width:0.39848;stroke-linecap:round;stroke-linejoin:round;stroke-miterlimit:10;stroke-dasharray:none;stroke-opacity:1"
       transform="matrix(1.1174133,0.72736,0.72736,-1.1174133,251.99277,55.747427)" />
    <g
       id="g33"
       aria-label="+a"
       transform="matrix(1.3333333,0,0,1.3333333,227.164,33.32)">
      <path
         id="path34"
         d="m 3.2227031,-1.5700781 h 2.1445313 c 0.082031,0 0.2578125,0 0.2578125,-0.1757813 0,-0.1757812 -0.1640625,-0.1757812 -0.2578125,-0.1757812 H 3.2227031 v -2.1328125 c 0,-0.09375 0,-0.2578125 -0.1640625,-0.2578125 -0.1757812,0 -0.1757812,0.1523437 -0.1757812,0.2578125 v 2.1328125 H 0.75004688 c -0.09375,0 -0.2578125,0 -0.2578125,0.1757812 0,0.1757813 0.15234375,0.1757813 0.2578125,0.1757813 H 2.8828594 v 2.13281247 c 0,0.09375 0,0.2578125 0.1757812,0.2578125 0.1640625,0 0.1640625,-0.15234375 0.1640625,-0.2578125 z m 0,0"
         style="fill:#ff0000;fill-opacity:1;fill-rule:nonzero;stroke:none" />
      <path
         id="path35"
         d="m 9.0586406,-2.6599219 c -0.140625,-0.234375 -0.3867187,-0.4101562 -0.7148437,-0.4101562 -0.890625,0 -1.8046875,0.9726562 -1.8046875,1.9804687 0,0.67968752 0.4570312,1.16015627 1.0546875,1.16015627 0.375,0 0.7148437,-0.2109375 0.9960937,-0.4921875 0.1289063,0.421875005 0.5273438,0.4921875 0.7148438,0.4921875 0.2460937,0 0.421875,-0.15234375 0.5507812,-0.375 0.1523434,-0.26953125 0.2460934,-0.66796875 0.2460934,-0.69140625 0,-0.09375 -0.09375,-0.09375 -0.1171871,-0.09375 -0.09375,0 -0.1054688,0.035156 -0.1523438,0.22265629 -0.082031,0.328125 -0.2109375,0.73828125 -0.5039062,0.73828125 -0.1875,0 -0.234375,-0.15234375 -0.234375,-0.33984375 0,-0.1171875 0.058594,-0.36328125 0.1054687,-0.55078129 0.046875,-0.1875 0.1171875,-0.46875 0.1523438,-0.6210937 l 0.140625,-0.5390625 c 0.046875,-0.1757813 0.1289062,-0.5039063 0.1289062,-0.5390625 0,-0.1523438 -0.1289062,-0.2226563 -0.2460937,-0.2226563 -0.1171875,0 -0.2695313,0.082031 -0.3164063,0.28125 z m -0.4453125,1.79296877 c -0.046875,0.1875 -0.1992187,0.328125 -0.3515625,0.45703125 -0.070312,0.0585938 -0.3398437,0.28125 -0.6445312,0.28125 -0.2578125,0 -0.515625,-0.17578125 -0.515625,-0.66796875 0,-0.37499997 0.2109375,-1.13671877 0.3632812,-1.41796877 0.328125,-0.5625 0.6796875,-0.6679687 0.8789063,-0.6679687 0.4804687,0 0.6210937,0.5273437 0.6210937,0.609375 0,0.023437 -0.011719,0.082031 -0.023437,0.09375 z m 0,0"
         style="fill:#ff0000;fill-opacity:1;fill-rule:nonzero;stroke:none" />
    </g>
    <path
       id="path36"
       d="M 35.16606,52.53427 84.70032,-11.93826"
       style="fill:none;stroke:#00ff00;stroke-width:0.39848;stroke-linecap:butt;stroke-linejoin:miter;stroke-miterlimit:10;stroke-dasharray:none;stroke-opacity:1"
       transform="matrix(1.3333333,0,0,-1.3333333,145.67867,91.341333)" />
    <path
       id="path37"
       d="M -2.07213,2.39091 C -1.69356,0.95633 -0.84995,0.27893 0,0 -0.84995,-0.27893 -1.69356,-0.95633 -2.07213,-2.39091"
       style="fill:none;stroke:#00ff00;stroke-width:0.39848;stroke-linecap:round;stroke-linejoin:round;stroke-miterlimit:10;stroke-dasharray:none;stroke-opacity:1"
       transform="matrix(0.81226667,1.0572533,1.0572533,-0.81226667,258.77427,107.46965)" />
    <path
       id="path38"
       d="M 27.06155,52.53427 -26.14565,-51.3494"
       style="fill:none;stroke:#0000ff;stroke-width:0.39848;stroke-linecap:butt;stroke-linejoin:miter;stroke-miterlimit:10;stroke-dasharray:none;stroke-opacity:1"
       transform="matrix(1.3333333,0,0,-1.3333333,145.67867,91.341333)" />
    <path
       id="path39"
       d="M -2.07213,2.39091 C -1.69356,0.95633 -0.84995,0.27893 0,0 -0.84995,-0.27893 -1.69356,-0.95633 -2.07213,-2.39091"
       style="fill:none;stroke:#0000ff;stroke-width:0.39848;stroke-linecap:round;stroke-linejoin:round;stroke-miterlimit:10;stroke-dasharray:none;stroke-opacity:1"
       transform="matrix(-0.60778667,1.18668,1.18668,0.60778667,110.69671,160.04363)" />
    <g
       id="g39"
       aria-label="+4a"
       transform="matrix(1.3333333,0,0,1.3333333,167.08933,65.158667)">
      <path
         id="path40"
         d="m 3.2230391,-1.5691953 h 2.1445312 c 0.082031,0 0.2578125,0 0.2578125,-0.1757813 0,-0.1757812 -0.1640625,-0.1757812 -0.2578125,-0.1757812 H 3.2230391 v -2.1328125 c 0,-0.09375 0,-0.2578125 -0.1640625,-0.2578125 -0.1757813,0 -0.1757813,0.1523437 -0.1757813,0.2578125 v 2.1328125 H 0.75038281 c -0.09375,0 -0.2578125,0 -0.2578125,0.1757812 0,0.1757813 0.15234375,0.1757813 0.2578125,0.1757813 H 2.8831953 v 2.13281249 c 0,0.09375 0,0.2578125 0.1757813,0.2578125 0.1640625,0 0.1640625,-0.15234375 0.1640625,-0.2578125 z m 6.5830078,0.421875 V -1.3934141 H 9.0326094 v -3.1054687 c 0,-0.1523438 0,-0.1992188 -0.1523438,-0.1992188 -0.09375,0 -0.1171875,0 -0.1875,0.09375 l -2.3085937,3.2109375 v 0.2460938 h 2.0507812 v 0.57421874 c 0,0.234375 0,0.328125 -0.5625,0.328125 h -0.1875 v 0.24609375 c 0.3515625,-0.01171875 0.796875,-0.0234375 1.0429688,-0.0234375 0.2578125,0 0.703125,0.01171875 1.0546875,0.0234375 v -0.24609375 h -0.1875 c -0.5625,0 -0.5625,-0.09375 -0.5625,-0.328125 V -1.1473203 Z M 8.4818281,-3.9481016 v 2.5546875 H 6.6419844 Z m 0,0"
         style="fill:#0000ff;fill-opacity:1;fill-rule:nonzero;stroke:none" />
      <path
         id="path41"
         d="m 13.028703,-2.6590391 c -0.140625,-0.234375 -0.386719,-0.4101562 -0.714844,-0.4101562 -0.890625,0 -1.804687,0.9726562 -1.804687,1.9804687 0,0.67968754 0.457031,1.16015629 1.054687,1.16015629 0.375,0 0.714844,-0.2109375 0.996094,-0.4921875 0.128906,0.421875 0.527344,0.4921875 0.714844,0.4921875 0.246094,0 0.421875,-0.15234375 0.550781,-0.375 0.152344,-0.26953125 0.246094,-0.66796875 0.246094,-0.69140625 0,-0.09375 -0.09375,-0.09375 -0.117188,-0.09375 -0.09375,0 -0.105468,0.035156 -0.152343,0.22265633 -0.08203,0.328125 -0.210938,0.73828125 -0.503907,0.73828125 -0.1875,0 -0.234375,-0.15234375 -0.234375,-0.33984375 0,-0.1171875 0.05859,-0.36328125 0.105469,-0.55078133 0.04687,-0.1875 0.117188,-0.46875 0.152344,-0.6210937 l 0.140625,-0.5390625 c 0.04687,-0.1757813 0.128906,-0.5039063 0.128906,-0.5390625 0,-0.1523438 -0.128906,-0.2226563 -0.246094,-0.2226563 -0.117187,0 -0.269531,0.082031 -0.316406,0.28125 z m -0.445312,1.79296879 c -0.04687,0.1875 -0.199219,0.328125 -0.351563,0.45703125 -0.07031,0.0585938 -0.339844,0.28125 -0.644531,0.28125 -0.257813,0 -0.515625,-0.17578125 -0.515625,-0.66796875 0,-0.37499999 0.210937,-1.13671879 0.363281,-1.41796879 0.328125,-0.5625 0.679688,-0.6679687 0.878906,-0.6679687 0.480469,0 0.621094,0.5273437 0.621094,0.609375 0,0.023437 -0.01172,0.082031 -0.02344,0.09375 z m 0,0"
         style="fill:#0000ff;fill-opacity:1;fill-rule:nonzero;stroke:none" />
    </g>
    <path
       id="path42"
       d="M -78.96924,27.1956 -41.6471,51.4867"
       style="fill:none;stroke:#ff0000;stroke-width:0.39848;stroke-linecap:butt;stroke-linejoin:miter;stroke-miterlimit:10;stroke-dasharray:none;stroke-opacity:1"
       transform="matrix(1.3333333,0,0,-1.3333333,145.67867,91.341333)" />
    <path
       id="path43"
       d="M -2.07213,2.39091 C -1.69356,0.95633 -0.84995,0.27893 0,0 -0.84995,-0.27893 -1.69356,-0.95633 -2.07213,-2.39091"
       style="fill:none;stroke:#ff0000;stroke-width:0.39848;stroke-linecap:round;stroke-linejoin:round;stroke-miterlimit:10;stroke-dasharray:none;stroke-opacity:1"
       transform="matrix(1.1174667,-0.72732,-0.72732,-1.1174667,90.37184,22.547507)" />
    <g
       id="g43"
       aria-label="+a"
       transform="matrix(1.3333333,0,0,1.3333333,48.449333,34.509333)">
      <path
         id="path44"
         d="m 3.2225703,-1.5714531 h 2.1445313 c 0.082031,0 0.2578125,0 0.2578125,-0.1757813 0,-0.1757812 -0.1640625,-0.1757812 -0.2578125,-0.1757812 H 3.2225703 v -2.1328125 c 0,-0.09375 0,-0.2578125 -0.1640625,-0.2578125 -0.1757812,0 -0.1757812,0.1523437 -0.1757812,0.2578125 v 2.1328125 H 0.74991406 c -0.09375,0 -0.2578125,0 -0.2578125,0.1757812 0,0.1757813 0.15234375,0.1757813 0.2578125,0.1757813 H 2.8827266 v 2.13281248 c 0,0.09375 0,0.2578125 0.1757812,0.2578125 0.1640625,0 0.1640625,-0.15234375 0.1640625,-0.2578125 z m 0,0"
         style="fill:#ff0000;fill-opacity:1;fill-rule:nonzero;stroke:none" />
      <path
         id="path45"
         d="m 9.0585078,-2.6612969 c -0.140625,-0.234375 -0.3867187,-0.4101562 -0.7148437,-0.4101562 -0.890625,0 -1.8046875,0.9726562 -1.8046875,1.9804687 0,0.67968753 0.4570312,1.16015628 1.0546875,1.16015628 0.375,0 0.7148437,-0.2109375 0.9960937,-0.4921875 0.1289063,0.421875 0.5273438,0.4921875 0.7148438,0.4921875 0.2460937,0 0.421875,-0.15234375 0.5507812,-0.375 0.1523442,-0.26953125 0.2460942,-0.66796875 0.2460942,-0.69140625 0,-0.09375 -0.09375,-0.09375 -0.1171879,-0.09375 -0.09375,0 -0.1054688,0.035156 -0.1523438,0.22265631 -0.082031,0.328125 -0.2109375,0.73828125 -0.5039062,0.73828125 -0.1875,0 -0.234375,-0.15234375 -0.234375,-0.33984375 0,-0.1171875 0.058594,-0.36328125 0.1054687,-0.55078131 0.046875,-0.1875 0.1171875,-0.46875 0.1523438,-0.6210937 l 0.140625,-0.5390625 c 0.046875,-0.1757813 0.1289062,-0.5039063 0.1289062,-0.5390625 0,-0.1523438 -0.1289062,-0.2226563 -0.2460937,-0.2226563 -0.1171875,0 -0.2695313,0.082031 -0.3164063,0.28125 z m -0.4453125,1.79296878 c -0.046875,0.1875 -0.1992187,0.328125 -0.3515625,0.45703125 -0.070312,0.0585938 -0.3398437,0.28125 -0.6445312,0.28125 -0.2578125,0 -0.515625,-0.17578125 -0.515625,-0.66796875 0,-0.37499998 0.2109375,-1.13671878 0.3632812,-1.41796878 0.328125,-0.5625 0.6796875,-0.6679687 0.8789063,-0.6679687 0.4804687,0 0.6210937,0.5273437 0.6210937,0.609375 0,0.023437 -0.011719,0.082031 -0.023437,0.09375 z m 0,0"
         style="fill:#ff0000;fill-opacity:1;fill-rule:nonzero;stroke:none" />
    </g>
    <path
       id="path46"
       d="M -72.3639,25.45358 22.58926,56.36246"
       style="fill:none;stroke:#00ff00;stroke-width:0.39848;stroke-linecap:butt;stroke-linejoin:miter;stroke-miterlimit:10;stroke-dasharray:none;stroke-opacity:1"
       transform="matrix(1.3333333,0,0,-1.3333333,145.67867,91.341333)" />
    <path
       id="path47"
       d="M -2.07213,2.39091 C -1.69356,0.95633 -0.84995,0.27893 0,0 -0.84995,-0.27893 -1.69356,-0.95633 -2.07213,-2.39091"
       style="fill:none;stroke:#00ff00;stroke-width:0.39848;stroke-linecap:round;stroke-linejoin:round;stroke-miterlimit:10;stroke-dasharray:none;stroke-opacity:1"
       transform="matrix(1.26784,-0.41269333,-0.41269333,-1.26784,176.05029,16.109173)" />
    <path
       id="path48"
       d="M 90.91177,12.25421 V -11.85574"
       style="fill:none;stroke:#ff0000;stroke-width:0.39848;stroke-linecap:butt;stroke-linejoin:miter;stroke-miterlimit:10;stroke-dasharray:none;stroke-opacity:1"
       transform="matrix(1.3333333,0,0,-1.3333333,145.67867,91.341333)" />
    <path
       id="path49"
       d="M -2.07213,2.39091 C -1.69356,0.95633 -0.84995,0.27893 0,0 -0.84995,-0.27893 -1.69356,-0.95633 -2.07213,-2.39091"
       style="fill:none;stroke:#ff0000;stroke-width:0.39848;stroke-linecap:round;stroke-linejoin:round;stroke-miterlimit:10;stroke-dasharray:none;stroke-opacity:1"
       transform="matrix(0,1.3333333,1.3333333,0,266.89436,107.41464)" />
    <g
       id="g49"
       aria-label="+a"
       transform="matrix(1.3333333,0,0,1.3333333,270.01867,93.665333)">
      <path
         id="path50"
         d="m 3.2233047,-1.5712656 h 2.1445312 c 0.082031,0 0.2578125,0 0.2578125,-0.1757813 0,-0.1757812 -0.1640625,-0.1757812 -0.2578125,-0.1757812 H 3.2233047 v -2.1328125 c 0,-0.09375 0,-0.2578125 -0.1640625,-0.2578125 -0.1757813,0 -0.1757813,0.1523437 -0.1757813,0.2578125 v 2.1328125 H 0.75064844 c -0.09375,0 -0.2578125,0 -0.2578125,0.1757812 0,0.1757813 0.15234375,0.1757813 0.2578125,0.1757813 H 2.8834609 v 2.13281247 c 0,0.09375 0,0.2578125 0.1757813,0.2578125 0.1640625,0 0.1640625,-0.15234375 0.1640625,-0.2578125 z m 0,0"
         style="fill:#ff0000;fill-opacity:1;fill-rule:nonzero;stroke:none" />
      <path
         id="path51"
         d="m 9.0563125,-2.6611094 c -0.140625,-0.234375 -0.3867188,-0.4101562 -0.7148438,-0.4101562 -0.890625,0 -1.8046875,0.9726562 -1.8046875,1.9804687 0,0.67968752 0.4570313,1.16015627 1.0546875,1.16015627 0.375,0 0.7148438,-0.2109375 0.9960938,-0.4921875 0.1289062,0.421875005 0.5273437,0.4921875 0.7148437,0.4921875 0.2460938,0 0.421875,-0.15234375 0.5507813,-0.375 0.1523435,-0.26953125 0.2460935,-0.66796875 0.2460935,-0.69140625 0,-0.09375 -0.09375,-0.09375 -0.1171873,-0.09375 -0.09375,0 -0.1054687,0.035156 -0.1523437,0.22265629 -0.082031,0.328125 -0.2109375,0.73828125 -0.5039063,0.73828125 -0.1875,0 -0.234375,-0.15234375 -0.234375,-0.33984375 0,-0.1171875 0.058594,-0.36328125 0.1054688,-0.55078129 0.046875,-0.1875 0.1171875,-0.46875 0.1523437,-0.6210937 l 0.140625,-0.5390625 c 0.046875,-0.1757813 0.1289063,-0.5039063 0.1289063,-0.5390625 0,-0.1523438 -0.1289063,-0.2226563 -0.2460938,-0.2226563 -0.1171875,0 -0.2695312,0.082031 -0.3164062,0.28125 z M 8.611,-0.86814063 c -0.046875,0.1875 -0.1992188,0.328125 -0.3515625,0.45703125 -0.070312,0.0585938 -0.3398438,0.28125 -0.6445313,0.28125 -0.2578125,0 -0.515625,-0.17578125 -0.515625,-0.66796875 0,-0.37499997 0.2109375,-1.13671877 0.3632813,-1.41796877 0.328125,-0.5625 0.6796875,-0.6679687 0.8789062,-0.6679687 0.4804688,0 0.6210938,0.5273437 0.6210938,0.609375 0,0.023437 -0.011719,0.082031 -0.023437,0.09375 z m 0,0"
         style="fill:#ff0000;fill-opacity:1;fill-rule:nonzero;stroke:none" />
    </g>
    <path
       id="path52"
       d="M 85.41254,12.25421 36.51537,-51.38809"
       style="fill:none;stroke:#00ff00;stroke-width:0.39848;stroke-linecap:butt;stroke-linejoin:miter;stroke-miterlimit:10;stroke-dasharray:none;stroke-opacity:1"
       transform="matrix(1.3333333,0,0,-1.3333333,145.67867,91.341333)" />
    <path
       id="path53"
       d="M -2.07213,2.39091 C -1.69356,0.95633 -0.84995,0.27893 0,0 -0.84995,-0.27893 -1.69356,-0.95633 -2.07213,-2.39091"
       style="fill:none;stroke:#00ff00;stroke-width:0.39848;stroke-linecap:round;stroke-linejoin:round;stroke-miterlimit:10;stroke-dasharray:none;stroke-opacity:1"
       transform="matrix(-0.81226667,1.0572533,1.0572533,0.81226667,194.204,160.06943)" />
    <path
       id="path54"
       d="m 74.8546,15.94426 -146.82912,-31.866"
       style="fill:none;stroke:#0000ff;stroke-width:0.39848;stroke-linecap:butt;stroke-linejoin:miter;stroke-miterlimit:10;stroke-dasharray:none;stroke-opacity:1"
       transform="matrix(1.3333333,0,0,-1.3333333,145.67867,91.341333)" />
    <path
       id="path55"
       d="M -2.07213,2.39091 C -1.69356,0.95633 -0.84995,0.27893 0,0 -0.84995,-0.27893 -1.69356,-0.95633 -2.07213,-2.39091"
       style="fill:none;stroke:#0000ff;stroke-width:0.39848;stroke-linecap:round;stroke-linejoin:round;stroke-miterlimit:10;stroke-dasharray:none;stroke-opacity:1"
       transform="matrix(-1.3029333,0.28276,0.28276,1.3029333,49.45308,112.62665)" />
    <g
       id="g55"
       aria-label="+4a"
       transform="matrix(1.3333333,0,0,1.3333333,101.392,111.14933)">
      <path
         id="path56"
         d="m 3.221625,-1.5709844 h 2.1445313 c 0.082031,0 0.2578125,0 0.2578125,-0.1757812 0,-0.1757813 -0.1640625,-0.1757813 -0.2578125,-0.1757813 H 3.221625 v -2.1328125 c 0,-0.09375 0,-0.2578125 -0.1640625,-0.2578125 -0.1757812,0 -0.1757812,0.1523438 -0.1757812,0.2578125 v 2.1328125 H 0.74896875 c -0.09375,0 -0.2578125,0 -0.2578125,0.1757813 0,0.1757812 0.15234375,0.1757812 0.2578125,0.1757812 H 2.8817813 v 2.13281252 c 0,0.09375 0,0.2578125 0.1757812,0.2578125 0.1640625,0 0.1640625,-0.15234375 0.1640625,-0.2578125 z m 6.5859375,0.421875 V -1.3952031 H 9.034125 v -3.1054688 c 0,-0.1523437 0,-0.1992187 -0.1523437,-0.1992187 -0.09375,0 -0.1171875,0 -0.1875,0.09375 l -2.3085938,3.2109375 v 0.2460937 h 2.0507813 v 0.57421877 c 0,0.234375 0,0.328125 -0.5625,0.328125 h -0.1875 v 0.246093755 c 0.3515625,-0.011718755 0.796875,-0.023437505 1.0429687,-0.023437505 0.2578125,0 0.703125,0.01171875 1.0546875,0.023437505 V -0.24676563 h -0.1875 c -0.5625,0 -0.5625,-0.09375 -0.5625,-0.328125 V -1.1491094 Z M 8.4833438,-3.9498906 v 2.5546875 H 6.6435 Z m 0,0"
         style="fill:#0000ff;fill-opacity:1;fill-rule:nonzero;stroke:none" />
      <path
         id="path57"
         d="m 13.027289,-2.6608281 c -0.140625,-0.234375 -0.386719,-0.4101563 -0.714844,-0.4101563 -0.890625,0 -1.804687,0.9726563 -1.804687,1.9804688 0,0.67968747 0.457031,1.16015622 1.054687,1.16015622 0.375,0 0.714844,-0.2109375 0.996094,-0.4921875 0.128906,0.421875005 0.527344,0.4921875 0.714844,0.4921875 0.246094,0 0.421875,-0.15234375 0.550781,-0.375 0.152344,-0.26953125 0.246094,-0.66796875 0.246094,-0.69140625 0,-0.09375 -0.09375,-0.09375 -0.117188,-0.09375 -0.09375,0 -0.105468,0.035156 -0.152343,0.22265619 -0.08203,0.328125 -0.210938,0.73828125 -0.503907,0.73828125 -0.1875,0 -0.234375,-0.15234375 -0.234375,-0.33984375 0,-0.1171875 0.05859,-0.36328125 0.105469,-0.55078119 0.04687,-0.1875 0.117188,-0.46875 0.152344,-0.6210938 l 0.140625,-0.5390625 c 0.04687,-0.1757812 0.128906,-0.5039062 0.128906,-0.5390625 0,-0.1523437 -0.128906,-0.2226562 -0.246094,-0.2226562 -0.117187,0 -0.269531,0.082031 -0.316406,0.28125 z m -0.445312,1.79296872 c -0.04687,0.1875 -0.199219,0.328125 -0.351563,0.45703125 -0.07031,0.0585938 -0.339844,0.28125 -0.644531,0.28125 -0.257813,0 -0.515625,-0.17578125 -0.515625,-0.66796875 0,-0.37500002 0.210937,-1.13671872 0.363281,-1.41796872 0.328125,-0.5625 0.679688,-0.6679688 0.878906,-0.6679688 0.480469,0 0.621094,0.5273438 0.621094,0.609375 0,0.023437 -0.01172,0.082031 -0.02344,0.09375 z m 0,0"
         style="fill:#0000ff;fill-opacity:1;fill-rule:nonzero;stroke:none" />
    </g>
    <path
       id="path58"
       d="M -90.91177,-12.25421 V 11.85574"
       style="fill:none;stroke:#ff0000;stroke-width:0.39848;stroke-linecap:butt;stroke-linejoin:miter;stroke-miterlimit:10;stroke-dasharray:none;stroke-opacity:1"
       transform="matrix(1.3333333,0,0,-1.3333333,145.67867,91.341333)" />
    <path
       id="path59"
       d="M -2.07213,2.39091 C -1.69356,0.95633 -0.84995,0.27893 0,0 -0.84995,-0.27893 -1.69356,-0.95633 -2.07213,-2.39091"
       style="fill:none;stroke:#ff0000;stroke-width:0.39848;stroke-linecap:round;stroke-linejoin:round;stroke-miterlimit:10;stroke-dasharray:none;stroke-opacity:1"
       transform="matrix(0,-1.3333333,-1.3333333,0,24.462973,75.268027)" />
    <g
       id="g59"
       aria-label="+a"
       transform="matrix(1.3333333,0,0,1.3333333,7.4226667,93.665333)">
      <path
         id="path60"
         d="m 3.2220625,-1.5712656 h 2.1445312 c 0.082031,0 0.2578125,0 0.2578125,-0.1757813 0,-0.1757812 -0.1640625,-0.1757812 -0.2578125,-0.1757812 H 3.2220625 v -2.1328125 c 0,-0.09375 0,-0.2578125 -0.1640625,-0.2578125 -0.1757813,0 -0.1757813,0.1523437 -0.1757813,0.2578125 v 2.1328125 H 0.74940625 c -0.09375,0 -0.2578125,0 -0.2578125,0.1757812 0,0.1757813 0.15234375,0.1757813 0.2578125,0.1757813 H 2.8822187 v 2.13281247 c 0,0.09375 0,0.2578125 0.1757813,0.2578125 0.1640625,0 0.1640625,-0.15234375 0.1640625,-0.2578125 z m 0,0"
         style="fill:#ff0000;fill-opacity:1;fill-rule:nonzero;stroke:none" />
      <path
         id="path61"
         d="m 9.058,-2.6611094 c -0.140625,-0.234375 -0.3867188,-0.4101562 -0.7148438,-0.4101562 -0.890625,0 -1.8046875,0.9726562 -1.8046875,1.9804687 0,0.67968752 0.4570313,1.16015627 1.0546875,1.16015627 0.375,0 0.7148438,-0.2109375 0.9960938,-0.4921875 0.1289062,0.421875005 0.5273437,0.4921875 0.7148437,0.4921875 0.2460938,0 0.421875,-0.15234375 0.5507813,-0.375 0.152344,-0.26953125 0.246094,-0.66796875 0.246094,-0.69140625 0,-0.09375 -0.09375,-0.09375 -0.1171878,-0.09375 -0.09375,0 -0.1054687,0.035156 -0.1523437,0.22265629 -0.082031,0.328125 -0.2109375,0.73828125 -0.5039063,0.73828125 -0.1875,0 -0.234375,-0.15234375 -0.234375,-0.33984375 0,-0.1171875 0.058594,-0.36328125 0.1054688,-0.55078129 0.046875,-0.1875 0.1171875,-0.46875 0.1523437,-0.6210937 l 0.140625,-0.5390625 C 9.5384687,-2.3564219 9.6205,-2.6845469 9.6205,-2.7197031 c 0,-0.1523438 -0.1289063,-0.2226563 -0.2460938,-0.2226563 -0.1171875,0 -0.2695312,0.082031 -0.3164062,0.28125 z m -0.4453125,1.79296877 c -0.046875,0.1875 -0.1992188,0.328125 -0.3515625,0.45703125 -0.070312,0.0585938 -0.3398438,0.28125 -0.6445313,0.28125 -0.2578125,0 -0.515625,-0.17578125 -0.515625,-0.66796875 0,-0.37499997 0.2109375,-1.13671877 0.3632813,-1.41796877 0.328125,-0.5625 0.6796875,-0.6679687 0.8789062,-0.6679687 0.4804688,0 0.6210938,0.5273437 0.6210938,0.609375 0,0.023437 -0.011719,0.082031 -0.023437,0.09375 z m 0,0"
         style="fill:#ff0000;fill-opacity:1;fill-rule:nonzero;stroke:none" />
    </g>
    <path
       id="path62"
       d="m -84.94022,-12.25421 48.89225,63.64229"
       style="fill:none;stroke:#00ff00;stroke-width:0.39848;stroke-linecap:butt;stroke-linejoin:miter;stroke-miterlimit:10;stroke-dasharray:none;stroke-opacity:1"
       transform="matrix(1.3333333,0,0,-1.3333333,145.67867,91.341333)" />
    <path
       id="path63"
       d="M -2.07213,2.39091 C -1.69356,0.95633 -0.84995,0.27893 0,0 -0.84995,-0.27893 -1.69356,-0.95633 -2.07213,-2.39091"
       style="fill:none;stroke:#00ff00;stroke-width:0.39848;stroke-linecap:round;stroke-linejoin:round;stroke-miterlimit:10;stroke-dasharray:none;stroke-opacity:1"
       transform="matrix(0.81224,-1.0572933,-1.0572933,-0.81224,97.776507,22.613267)" />
    <path
       id="path64"
       d="M 79.90376,-27.1956 42.58241,-51.48671"
       style="fill:none;stroke:#ff0000;stroke-width:0.39848;stroke-linecap:butt;stroke-linejoin:miter;stroke-miterlimit:10;stroke-dasharray:none;stroke-opacity:1"
       transform="matrix(1.3333333,0,0,-1.3333333,145.67867,91.341333)" />
    <path
       id="path65"
       d="M -2.07213,2.39091 C -1.69356,0.95633 -0.84995,0.27893 0,0 -0.84995,-0.27893 -1.69356,-0.95633 -2.07213,-2.39091"
       style="fill:none;stroke:#ff0000;stroke-width:0.39848;stroke-linecap:round;stroke-linejoin:round;stroke-miterlimit:10;stroke-dasharray:none;stroke-opacity:1"
       transform="matrix(-1.1174533,0.72729333,0.72729333,1.1174533,202.23259,160.13516)" />
    <g
       id="g65"
       aria-label="+a"
       transform="matrix(1.3333333,0,0,1.3333333,230.23733,152.82133)">
      <path
         id="path66"
         d="m 3.2233672,-1.5710781 h 2.1445312 c 0.082031,0 0.2578125,0 0.2578125,-0.1757813 0,-0.1757812 -0.1640625,-0.1757812 -0.2578125,-0.1757812 H 3.2233672 v -2.1328125 c 0,-0.09375 0,-0.2578125 -0.1640625,-0.2578125 -0.1757813,0 -0.1757813,0.1523437 -0.1757813,0.2578125 v 2.1328125 H 0.75071094 c -0.09375,0 -0.2578125,0 -0.2578125,0.1757812 0,0.1757813 0.15234375,0.1757813 0.2578125,0.1757813 H 2.8835234 v 2.13281247 c 0,0.09375 0,0.2578125 0.1757813,0.2578125 0.1640625,0 0.1640625,-0.15234375 0.1640625,-0.2578125 z m 0,0"
         style="fill:#ff0000;fill-opacity:1;fill-rule:nonzero;stroke:none" />
      <path
         id="path67"
         d="M 9.056375,-2.6609219 C 8.91575,-2.8952969 8.6696563,-3.0710781 8.3415313,-3.0710781 c -0.890625,0 -1.8046875,0.9726562 -1.8046875,1.9804687 0,0.67968752 0.4570312,1.16015627 1.0546875,1.16015627 0.375,0 0.7148437,-0.2109375 0.9960937,-0.4921875 0.1289063,0.421875005 0.5273438,0.4921875 0.7148438,0.4921875 0.2460937,0 0.421875,-0.15234375 0.5507812,-0.375 0.152344,-0.26953125 0.246094,-0.66796875 0.246094,-0.69140625 0,-0.09375 -0.09375,-0.09375 -0.1171877,-0.09375 -0.09375,0 -0.1054688,0.035156 -0.1523438,0.22265629 -0.082031,0.328125 -0.2109375,0.73828125 -0.5039062,0.73828125 -0.1875,0 -0.234375,-0.15234375 -0.234375,-0.33984375 0,-0.1171875 0.058594,-0.36328125 0.1054687,-0.55078129 0.046875,-0.1875 0.1171875,-0.46875 0.1523438,-0.6210937 l 0.140625,-0.5390625 c 0.046875,-0.1757813 0.1289062,-0.5039063 0.1289062,-0.5390625 0,-0.1523438 -0.1289062,-0.2226563 -0.2460937,-0.2226563 -0.1171875,0 -0.2695313,0.082031 -0.3164063,0.28125 z m -0.4453125,1.79296877 c -0.046875,0.1875 -0.1992187,0.328125 -0.3515625,0.45703125 -0.070312,0.0585938 -0.3398437,0.28125 -0.6445312,0.28125 -0.2578125,0 -0.515625,-0.17578125 -0.515625,-0.66796875 0,-0.37499997 0.2109375,-1.13671877 0.3632812,-1.41796877 0.328125,-0.5625 0.6796875,-0.6679687 0.8789063,-0.6679687 0.4804687,0 0.6210937,0.5273437 0.6210937,0.609375 0,0.023437 -0.011719,0.082031 -0.023437,0.09375 z m 0,0"
         style="fill:#ff0000;fill-opacity:1;fill-rule:nonzero;stroke:none" />
    </g>
    <path
       id="path68"
       d="M 72.3639,-26.05789 -11.37717,-53.32666"
       style="fill:none;stroke:#00ff00;stroke-width:0.39848;stroke-linecap:butt;stroke-linejoin:miter;stroke-miterlimit:10;stroke-dasharray:none;stroke-opacity:1"
       transform="matrix(1.3333333,0,0,-1.3333333,145.67867,91.341333)" />
    <path
       id="path69"
       d="M -2.07213,2.39091 C -1.69356,0.95633 -0.84995,0.27893 0,0 -0.84995,-0.27893 -1.69356,-0.95633 -2.07213,-2.39091"
       style="fill:none;stroke:#00ff00;stroke-width:0.39848;stroke-linecap:round;stroke-linejoin:round;stroke-miterlimit:10;stroke-dasharray:none;stroke-opacity:1"
       transform="matrix(-1.2677867,0.41284,0.41284,1.2677867,130.25651,162.5258)" />
    <path
       id="path70"
       d="M 72.3639,-16.01389 -71.97452,15.31288"
       style="fill:none;stroke:#0000ff;stroke-width:0.39848;stroke-linecap:butt;stroke-linejoin:miter;stroke-miterlimit:10;stroke-dasharray:none;stroke-opacity:1"
       transform="matrix(1.3333333,0,0,-1.3333333,145.67867,91.341333)" />
    <path
       id="path71"
       d="M -2.07213,2.39091 C -1.69356,0.95633 -0.84995,0.27893 0,0 -0.84995,-0.27893 -1.69356,-0.95633 -2.07213,-2.39091"
       style="fill:none;stroke:#0000ff;stroke-width:0.39848;stroke-linecap:round;stroke-linejoin:round;stroke-miterlimit:10;stroke-dasharray:none;stroke-opacity:1"
       transform="matrix(-1.3029333,-0.28277333,-0.28277333,1.3029333,49.45308,70.867827)" />
    <g
       id="g71"
       aria-label="+4a"
       transform="matrix(1.3333333,0,0,1.3333333,171.584,111.34)">
      <path
         id="path72"
         d="m 3.2241094,-1.5704297 h 2.1445312 c 0.082031,0 0.2578125,0 0.2578125,-0.1757812 0,-0.1757813 -0.1640625,-0.1757813 -0.2578125,-0.1757813 H 3.2241094 v -2.1328125 c 0,-0.09375 0,-0.2578125 -0.1640625,-0.2578125 -0.1757813,0 -0.1757813,0.1523438 -0.1757813,0.2578125 v 2.1328125 H 0.75145313 c -0.09375,0 -0.2578125,0 -0.2578125,0.1757813 0,0.1757812 0.15234375,0.1757812 0.2578125,0.1757812 H 2.8842656 v 2.13281251 c 0,0.09375 0,0.2578125 0.1757813,0.2578125 0.1640625,0 0.1640625,-0.15234375 0.1640625,-0.2578125 z m 6.5830078,0.421875 V -1.3946484 H 9.0336797 v -3.1054688 c 0,-0.1523437 0,-0.1992187 -0.1523438,-0.1992187 -0.09375,0 -0.1171875,0 -0.1875,0.09375 l -2.3085937,3.2109375 v 0.2460937 h 2.0507812 v 0.57421876 c 0,0.234375 0,0.328125 -0.5625,0.328125 h -0.1875 V -1.171875e-4 C 8.0375859,-0.01183594 8.4828984,-0.02355469 8.7289922,-0.02355469 c 0.2578125,0 0.703125,0.01171875 1.0546875,0.0234375025 V -0.24621094 h -0.1875 c -0.5625,0 -0.5625,-0.09375 -0.5625,-0.328125 V -1.1485547 Z M 8.4828984,-3.9493359 v 2.5546875 H 6.6430547 Z m 0,0"
         style="fill:#0000ff;fill-opacity:1;fill-rule:nonzero;stroke:none" />
      <path
         id="path73"
         d="m 13.029773,-2.6602734 c -0.140625,-0.234375 -0.386718,-0.4101563 -0.714843,-0.4101563 -0.890625,0 -1.804688,0.9726563 -1.804688,1.9804688 0,0.67968746 0.457031,1.16015621 1.054688,1.16015621 0.375,0 0.714843,-0.2109375 0.996093,-0.4921875 0.128907,0.4218750025 0.527344,0.4921875 0.714844,0.4921875 0.246094,0 0.421875,-0.15234375 0.550781,-0.375 0.152344,-0.26953125 0.246094,-0.66796875 0.246094,-0.69140625 0,-0.09375 -0.09375,-0.09375 -0.117187,-0.09375 -0.09375,0 -0.105469,0.035156 -0.152344,0.22265617 -0.08203,0.328125 -0.210938,0.73828125 -0.503906,0.73828125 -0.1875,0 -0.234375,-0.15234375 -0.234375,-0.33984375 0,-0.1171875 0.05859,-0.36328125 0.105468,-0.55078117 0.04687,-0.1875 0.117188,-0.46875 0.152344,-0.6210938 l 0.140625,-0.5390625 c 0.04687,-0.1757812 0.128906,-0.5039062 0.128906,-0.5390625 0,-0.1523437 -0.128906,-0.2226562 -0.246093,-0.2226562 -0.117188,0 -0.269532,0.082031 -0.316407,0.28125 z m -0.445312,1.79296871 c -0.04687,0.1875 -0.199219,0.328125 -0.351563,0.45703125 -0.07031,0.0585938 -0.339843,0.28125 -0.644531,0.28125 -0.257812,0 -0.515625,-0.17578125 -0.515625,-0.66796875 0,-0.37500001 0.210938,-1.13671871 0.363281,-1.41796871 0.328125,-0.5625 0.679688,-0.6679688 0.878907,-0.6679688 0.480468,0 0.621093,0.5273438 0.621093,0.609375 0,0.023437 -0.01172,0.082031 -0.02344,0.09375 z m 0,0"
         style="fill:#0000ff;fill-opacity:1;fill-rule:nonzero;stroke:none" />
    </g>
    <path
       id="path74"
       d="m -42.24646,-51.70406 -37.32214,24.2911"
       style="fill:none;stroke:#ff0000;stroke-width:0.39848;stroke-linecap:butt;stroke-linejoin:miter;stroke-miterlimit:10;stroke-dasharray:none;stroke-opacity:1"
       transform="matrix(1.3333333,0,0,-1.3333333,145.67867,91.341333)" />
    <path
       id="path75"
       d="M -2.07213,2.39091 C -1.69356,0.95633 -0.84995,0.27893 0,0 -0.84995,-0.27893 -1.69356,-0.95633 -2.07213,-2.39091"
       style="fill:none;stroke:#ff0000;stroke-width:0.39848;stroke-linecap:round;stroke-linejoin:round;stroke-miterlimit:10;stroke-dasharray:none;stroke-opacity:1"
       transform="matrix(-1.1174667,-0.72732,-0.72732,1.1174667,39.36456,127.74704)" />
    <g
       id="g75"
       aria-label="+a"
       transform="matrix(1.3333333,0,0,1.3333333,47.205333,152.82133)">
      <path
         id="path76"
         d="m 3.2239297,-1.5710781 h 2.1445312 c 0.082031,0 0.2578125,0 0.2578125,-0.1757813 0,-0.1757812 -0.1640625,-0.1757812 -0.2578125,-0.1757812 H 3.2239297 v -2.1328125 c 0,-0.09375 0,-0.2578125 -0.1640625,-0.2578125 -0.1757813,0 -0.1757813,0.1523437 -0.1757813,0.2578125 v 2.1328125 H 0.75127344 c -0.09375,0 -0.2578125,0 -0.2578125,0.1757812 0,0.1757813 0.15234375,0.1757813 0.2578125,0.1757813 H 2.8840859 v 2.13281247 c 0,0.09375 0,0.2578125 0.1757813,0.2578125 0.1640625,0 0.1640625,-0.15234375 0.1640625,-0.2578125 z m 0,0"
         style="fill:#ff0000;fill-opacity:1;fill-rule:nonzero;stroke:none" />
      <path
         id="path77"
         d="m 9.0569375,-2.6609219 c -0.140625,-0.234375 -0.3867188,-0.4101562 -0.7148438,-0.4101562 -0.890625,0 -1.8046875,0.9726562 -1.8046875,1.9804687 0,0.67968752 0.4570313,1.16015627 1.0546875,1.16015627 0.375,0 0.7148438,-0.2109375 0.9960938,-0.4921875 0.1289062,0.421875005 0.5273437,0.4921875 0.7148437,0.4921875 0.2460938,0 0.421875,-0.15234375 0.5507813,-0.375 0.1523435,-0.26953125 0.2460935,-0.66796875 0.2460935,-0.69140625 0,-0.09375 -0.09375,-0.09375 -0.1171873,-0.09375 -0.09375,0 -0.1054687,0.035156 -0.1523437,0.22265629 -0.082031,0.328125 -0.2109375,0.73828125 -0.5039063,0.73828125 -0.1875,0 -0.234375,-0.15234375 -0.234375,-0.33984375 0,-0.1171875 0.058594,-0.36328125 0.1054688,-0.55078129 0.046875,-0.1875 0.1171875,-0.46875 0.1523437,-0.6210937 l 0.140625,-0.5390625 c 0.046875,-0.1757813 0.1289063,-0.5039063 0.1289063,-0.5390625 0,-0.1523438 -0.1289063,-0.2226563 -0.2460938,-0.2226563 -0.1171875,0 -0.2695312,0.082031 -0.3164062,0.28125 z M 8.611625,-0.86795313 c -0.046875,0.1875 -0.1992188,0.328125 -0.3515625,0.45703125 -0.070312,0.0585938 -0.3398438,0.28125 -0.6445313,0.28125 -0.2578125,0 -0.515625,-0.17578125 -0.515625,-0.66796875 0,-0.37499997 0.2109375,-1.13671877 0.3632813,-1.41796877 0.328125,-0.5625 0.6796875,-0.6679687 0.8789062,-0.6679687 0.4804688,0 0.6210938,0.5273437 0.6210938,0.609375 0,0.023437 -0.011719,0.082031 -0.023437,0.09375 z m 0,0"
         style="fill:#ff0000;fill-opacity:1;fill-rule:nonzero;stroke:none" />
    </g>
    <path
       id="path78"
       d="M -36.27548,-51.70406 -85.16772,11.93825"
       style="fill:none;stroke:#00ff00;stroke-width:0.39848;stroke-linecap:butt;stroke-linejoin:miter;stroke-miterlimit:10;stroke-dasharray:none;stroke-opacity:1"
       transform="matrix(1.3333333,0,0,-1.3333333,145.67867,91.341333)" />
    <path
       id="path79"
       d="M -2.07213,2.39091 C -1.69356,0.95633 -0.84995,0.27893 0,0 -0.84995,-0.27893 -1.69356,-0.95633 -2.07213,-2.39091"
       style="fill:none;stroke:#00ff00;stroke-width:0.39848;stroke-linecap:round;stroke-linejoin:round;stroke-miterlimit:10;stroke-dasharray:none;stroke-opacity:1"
       transform="matrix(-0.81224,-1.0572933,-1.0572933,0.81224,31.959893,75.21304)" />
    <path
       id="path80"
       d="M 11.75604,-59.47916 H -11.35757"
       style="fill:none;stroke:#ff0000;stroke-width:0.39848;stroke-linecap:butt;stroke-linejoin:miter;stroke-miterlimit:10;stroke-dasharray:none;stroke-opacity:1"
       transform="matrix(1.3333333,0,0,-1.3333333,145.67867,91.341333)" />
    <path
       id="path81"
       d="M -2.07213,2.39091 C -1.69356,0.95633 -0.84995,0.27893 0,0 -0.84995,-0.27893 -1.69356,-0.95633 -2.07213,-2.39091"
       style="fill:none;stroke:#ff0000;stroke-width:0.39848;stroke-linecap:round;stroke-linejoin:round;stroke-miterlimit:10;stroke-dasharray:none;stroke-opacity:1"
       transform="matrix(-1.3333333,0,0,1.3333333,130.26959,170.64688)" />
    <g
       id="g81"
       aria-label="+a"
       transform="matrix(1.3333333,0,0,1.3333333,138.72,179.52667)">
      <path
         id="path82"
         d="M 3.2217188,-1.5698047 H 5.36625 c 0.082031,0 0.2578125,0 0.2578125,-0.1757812 0,-0.1757813 -0.1640625,-0.1757813 -0.2578125,-0.1757813 H 3.2217188 v -2.1328125 c 0,-0.09375 0,-0.2578125 -0.1640625,-0.2578125 -0.1757813,0 -0.1757813,0.1523438 -0.1757813,0.2578125 v 2.1328125 H 0.7490625 c -0.09375,0 -0.2578125,0 -0.2578125,0.1757813 0,0.1757812 0.15234375,0.1757812 0.2578125,0.1757812 H 2.881875 v 2.13281251 c 0,0.09375 0,0.2578125 0.1757813,0.2578125 0.1640625,0 0.1640625,-0.15234375 0.1640625,-0.2578125 z m 0,0"
         style="fill:#ff0000;fill-opacity:1;fill-rule:nonzero;stroke:none" />
      <path
         id="path83"
         d="m 9.0576563,-2.6596484 c -0.140625,-0.234375 -0.3867188,-0.4101563 -0.7148438,-0.4101563 -0.890625,0 -1.8046875,0.9726563 -1.8046875,1.9804688 0,0.67968746 0.4570313,1.16015621 1.0546875,1.16015621 0.375,0 0.7148438,-0.2109375 0.9960938,-0.4921875 0.1289062,0.4218750025 0.5273437,0.4921875 0.7148437,0.4921875 0.2460938,0 0.421875,-0.15234375 0.5507813,-0.375 0.1523437,-0.26953125 0.2460937,-0.66796875 0.2460937,-0.69140625 0,-0.09375 -0.09375,-0.09375 -0.1171875,-0.09375 -0.09375,0 -0.1054687,0.035156 -0.1523437,0.22265617 -0.082031,0.328125 -0.2109375,0.73828125 -0.5039063,0.73828125 -0.1875,0 -0.234375,-0.15234375 -0.234375,-0.33984375 0,-0.1171875 0.058594,-0.36328125 0.1054688,-0.55078117 0.046875,-0.1875 0.1171875,-0.46875 0.1523437,-0.6210938 L 9.49125,-2.1791797 c 0.046875,-0.1757812 0.1289063,-0.5039062 0.1289063,-0.5390625 0,-0.1523437 -0.1289063,-0.2226562 -0.2460938,-0.2226562 -0.1171875,0 -0.2695312,0.082031 -0.3164062,0.28125 z m -0.4453125,1.79296871 c -0.046875,0.1875 -0.1992188,0.328125 -0.3515625,0.45703125 -0.070312,0.0585938 -0.3398438,0.28125 -0.6445313,0.28125 -0.2578125,0 -0.515625,-0.17578125 -0.515625,-0.66796875 0,-0.37500001 0.2109375,-1.13671871 0.3632813,-1.41796871 0.328125,-0.5625 0.6796875,-0.6679688 0.8789062,-0.6679688 0.4804688,0 0.6210938,0.5273438 0.6210938,0.609375 0,0.023437 -0.011719,0.082031 -0.023437,0.09375 z m 0,0"
         style="fill:#ff0000;fill-opacity:1;fill-rule:nonzero;stroke:none" />
    </g>
    <path
       id="path84"
       d="m 11.75604,-53.4506 -83.74107,27.26878"
       style="fill:none;stroke:#00ff00;stroke-width:0.39848;stroke-linecap:butt;stroke-linejoin:miter;stroke-miterlimit:10;stroke-dasharray:none;stroke-opacity:1"
       transform="matrix(1.3333333,0,0,-1.3333333,145.67867,91.341333)" />
    <path
       id="path85"
       d="M -2.07213,2.39091 C -1.69356,0.95633 -0.84995,0.27893 0,0 -0.84995,-0.27893 -1.69356,-0.95633 -2.07213,-2.39091"
       style="fill:none;stroke:#00ff00;stroke-width:0.39848;stroke-linecap:round;stroke-linejoin:round;stroke-miterlimit:10;stroke-dasharray:none;stroke-opacity:1"
       transform="matrix(-1.2677867,-0.41284,-0.41284,1.2677867,49.44604,126.16817)" />
    <g
       id="g85"
       aria-label="+2a"
       transform="matrix(1.3333333,0,0,1.3333333,95.668,140.11333)">
      <path
         id="path86"
         d="m 3.2226328,-1.5703516 h 2.1445313 c 0.082031,0 0.2578125,0 0.2578125,-0.1757812 0,-0.1757813 -0.1640625,-0.1757813 -0.2578125,-0.1757813 H 3.2226328 v -2.1328125 c 0,-0.09375 0,-0.2578125 -0.1640625,-0.2578125 -0.1757812,0 -0.1757812,0.1523438 -0.1757812,0.2578125 v 2.1328125 H 0.74997656 c -0.09375,0 -0.2578125,0 -0.2578125,0.1757813 0,0.1757812 0.15234375,0.1757812 0.2578125,0.1757812 H 2.8827891 v 2.13281254 c 0,0.09375 0,0.2578125 0.1757812,0.2578125 0.1640625,0 0.1640625,-0.15234375 0.1640625,-0.2578125 z m 6.4101563,0.3046875 h -0.234375 c -0.023437,0.1523438 -0.082031,0.56250004 -0.1757813,0.63281254 -0.058594,0.0351563 -0.5976562,0.0351563 -0.6914062,0.0351563 H 7.2421641 c 0.7382812,-0.64453124 0.984375,-0.84374994 1.3945312,-1.17187494 0.515625,-0.4101564 0.9960938,-0.8437501 0.9960938,-1.5000001 0,-0.8437499 -0.7382813,-1.3593749 -1.6289063,-1.3593749 -0.8671875,0 -1.453125,0.609375 -1.453125,1.2421874 0,0.3632812 0.3046875,0.3984375 0.375,0.3984375 0.1640625,0 0.375,-0.1171875 0.375,-0.375 0,-0.1289063 -0.058594,-0.3632813 -0.421875,-0.3632813 0.2226563,-0.5039061 0.6914063,-0.6562499 1.0195313,-0.6562499 0.703125,0 1.0664062,0.5507813 1.0664062,1.1132812 0,0.609375 -0.4335937,1.0898438 -0.65625,1.3359376 l -1.6875,1.66406244 c -0.070312,0.0585937 -0.070312,0.0703125 -0.070312,0.2695312475 h 2.8828125 z m 0,0"
         style="fill:#00ff00;fill-opacity:1;fill-rule:nonzero;stroke:none" />
      <path
         id="path87"
         d="m 13.028297,-2.6601953 c -0.140625,-0.234375 -0.386719,-0.4101563 -0.714844,-0.4101563 -0.890625,0 -1.804687,0.9726563 -1.804687,1.9804688 0,0.67968749 0.457031,1.16015624 1.054687,1.16015624 0.375,0 0.714844,-0.2109375 0.996094,-0.4921875 0.128906,0.4218749975 0.527344,0.4921875 0.714844,0.4921875 0.246093,0 0.421875,-0.15234375 0.550781,-0.375 0.152344,-0.26953125 0.246094,-0.66796875 0.246094,-0.69140625 0,-0.09375 -0.09375,-0.09375 -0.117188,-0.09375 -0.09375,0 -0.105469,0.035156 -0.152344,0.22265623 -0.08203,0.328125 -0.210937,0.73828125 -0.503906,0.73828125 -0.1875,0 -0.234375,-0.15234375 -0.234375,-0.33984375 0,-0.1171875 0.05859,-0.36328125 0.105469,-0.55078123 0.04687,-0.1875 0.117187,-0.46875 0.152344,-0.6210938 l 0.140625,-0.5390625 c 0.04687,-0.1757812 0.128906,-0.5039062 0.128906,-0.5390625 0,-0.1523437 -0.128906,-0.2226562 -0.246094,-0.2226562 -0.117187,0 -0.269531,0.082031 -0.316406,0.28125 z m -0.445313,1.79296874 c -0.04687,0.1875 -0.199218,0.328125 -0.351562,0.45703125 -0.07031,0.0585938 -0.339844,0.28125 -0.644531,0.28125 -0.257813,0 -0.515625,-0.17578125 -0.515625,-0.66796875 0,-0.37500004 0.210937,-1.13671874 0.363281,-1.41796874 0.328125,-0.5625 0.679687,-0.6679688 0.878906,-0.6679688 0.480469,0 0.621094,0.5273438 0.621094,0.609375 0,0.023437 -0.01172,0.082031 -0.02344,0.09375 z m 0,0"
         style="fill:#00ff00;fill-opacity:1;fill-rule:nonzero;stroke:none" />
    </g>
    <path
       id="path88"
       d="M 26.32361,-51.70406 -26.45705,51.3494"
       style="fill:none;stroke:#0000ff;stroke-width:0.39848;stroke-linecap:butt;stroke-linejoin:miter;stroke-miterlimit:10;stroke-dasharray:none;stroke-opacity:1"
       transform="matrix(1.3333333,0,0,-1.3333333,145.67867,91.341333)" />
    <path
       id="path89"
       d="M -2.07213,2.39091 C -1.69356,0.95633 -0.84995,0.27893 0,0 -0.84995,-0.27893 -1.69356,-0.95633 -2.07213,-2.39091"
       style="fill:none;stroke:#0000ff;stroke-width:0.39848;stroke-linecap:round;stroke-linejoin:round;stroke-miterlimit:10;stroke-dasharray:none;stroke-opacity:1"
       transform="matrix(-0.60777333,-1.18668,-1.18668,0.60777333,110.28151,22.63904)" />
    <g
       id="g89"
       aria-label="+4a"
       transform="matrix(1.3333333,0,0,1.3333333,105.47733,65.989333)">
      <path
         id="path90"
         d="m 3.2220781,-1.5711016 h 2.1445313 c 0.082031,0 0.2578125,0 0.2578125,-0.1757812 0,-0.1757813 -0.1640625,-0.1757813 -0.2578125,-0.1757813 H 3.2220781 v -2.1328125 c 0,-0.09375 0,-0.2578125 -0.1640625,-0.2578125 -0.1757812,0 -0.1757812,0.1523438 -0.1757812,0.2578125 v 2.1328125 H 0.74942188 c -0.09375,0 -0.2578125,0 -0.2578125,0.1757813 0,0.1757812 0.15234375,0.1757812 0.2578125,0.1757812 H 2.8822344 v 2.13281254 c 0,0.09375 0,0.2578125 0.1757812,0.2578125 0.1640625,0 0.1640625,-0.15234375 0.1640625,-0.2578125 z m 6.5859375,0.421875 V -1.3953203 H 9.0345781 v -3.1054688 c 0,-0.1523437 0,-0.1992187 -0.1523437,-0.1992187 -0.09375,0 -0.1171875,0 -0.1875,0.09375 l -2.3085938,3.2109375 v 0.2460937 h 2.0507813 v 0.57421879 c 0,0.234375 0,0.328125 -0.5625,0.328125 h -0.1875 V -7.890625e-4 C 8.0384844,-0.01250781 8.4837969,-0.02422656 8.7298906,-0.02422656 c 0.2578125,0 0.703125,0.01171875 1.0546875,0.0234374975 V -0.24688281 h -0.1875 c -0.5625,0 -0.5625,-0.09375 -0.5625,-0.328125 V -1.1492266 Z M 8.4837969,-3.9500078 v 2.5546875 H 6.6439531 Z m 0,0"
         style="fill:#0000ff;fill-opacity:1;fill-rule:nonzero;stroke:none" />
      <path
         id="path91"
         d="m 13.030672,-2.6609453 c -0.140625,-0.234375 -0.386719,-0.4101563 -0.714844,-0.4101563 -0.890625,0 -1.804687,0.9726563 -1.804687,1.9804688 0,0.67968749 0.457031,1.16015624 1.054687,1.16015624 0.375,0 0.714844,-0.2109375 0.996094,-0.4921875 0.128906,0.4218749975 0.527344,0.4921875 0.714844,0.4921875 0.246093,0 0.421875,-0.15234375 0.550781,-0.375 0.152344,-0.26953125 0.246094,-0.66796875 0.246094,-0.69140625 0,-0.09375 -0.09375,-0.09375 -0.117188,-0.09375 -0.09375,0 -0.105469,0.035156 -0.152344,0.22265623 -0.08203,0.328125 -0.210937,0.73828125 -0.503906,0.73828125 -0.1875,0 -0.234375,-0.15234375 -0.234375,-0.33984375 0,-0.1171875 0.05859,-0.36328125 0.105469,-0.55078123 0.04687,-0.1875 0.117187,-0.46875 0.152344,-0.6210938 l 0.140625,-0.5390625 c 0.04687,-0.1757812 0.128906,-0.5039062 0.128906,-0.5390625 0,-0.1523437 -0.128906,-0.2226562 -0.246094,-0.2226562 -0.117187,0 -0.269531,0.082031 -0.316406,0.28125 z m -0.445313,1.79296874 c -0.04687,0.1875 -0.199218,0.328125 -0.351562,0.45703125 -0.07031,0.0585938 -0.339844,0.28125 -0.644531,0.28125 -0.257813,0 -0.515625,-0.17578125 -0.515625,-0.66796875 0,-0.37500004 0.210937,-1.13671874 0.363281,-1.41796874 0.328125,-0.5625 0.679687,-0.6679688 0.878906,-0.6679688 0.480469,0 0.621094,0.5273438 0.621094,0.609375 0,0.023437 -0.01172,0.082031 -0.02344,0.09375 z m 0,0"
         style="fill:#0000ff;fill-opacity:1;fill-rule:nonzero;stroke:none" />
    </g>
  </g>
</svg>
