<?xml version="1.0" encoding="UTF-8" standalone="no"?>
<!-- Created with Inkscape (http://www.inkscape.org/) -->

<svg
   version="1.1"
   id="svg1"
   width="350.08401"
   height="180.45067"
   viewBox="0 0 350.08401 180.45067"
   sodipodi:docname="input_structure.svg"
   inkscape:version="1.3.2 (091e20ef0f, 2023-11-25, custom)"
   xmlns:inkscape="http://www.inkscape.org/namespaces/inkscape"
   xmlns:sodipodi="http://sodipodi.sourceforge.net/DTD/sodipodi-0.dtd"
   xmlns="http://www.w3.org/2000/svg"
   xmlns:svg="http://www.w3.org/2000/svg">
  <sodipodi:namedview
     id="namedview1"
     pagecolor="#ffffff"
     bordercolor="#666666"
     borderopacity="1.0"
     inkscape:showpageshadow="2"
     inkscape:pageopacity="0.0"
     inkscape:pagecheckerboard="0"
     inkscape:deskcolor="#d1d1d1"
     inkscape:zoom="3.1735239"
     inkscape:cx="175.04201"
     inkscape:cy="90.120637"
     inkscape:window-width="1920"
     inkscape:window-height="1043"
     inkscape:window-x="0"
     inkscape:window-y="0"
     inkscape:window-maximized="1"
     inkscape:current-layer="g1" />
  <defs
     id="defs1" />
  <g
     id="g1">
    <path
       id="path1"
       d="m 3.3283281,-3.0117422 c 0.058594,-0.2578125 0.2929688,-1.171875 0.984375,-1.171875 0.046875,0 0.2929688,0 0.5039063,0.1289063 -0.28125,0.046875 -0.4804688,0.3046875 -0.4804688,0.5390625 0,0.1640625 0.1054688,0.3515625 0.375,0.3515625 0.2226563,0 0.5390625,-0.1875 0.5390625,-0.5859375 0,-0.515625 -0.5859375,-0.65625 -0.9257812,-0.65625 -0.5742188,0 -0.9257813,0.5273437 -1.0429688,0.7617187 -0.2578125,-0.65625 -0.7851562,-0.7617187 -1.078125,-0.7617187 -1.0429687,0 -1.60546873,1.2890625 -1.60546873,1.5351562 0,0.1054688 0.10546875,0.1054688 0.1171875,0.1054688 0.0820313,0 0.1171875,-0.023437 0.12890625,-0.1171875 0.33984378,-1.0546875 0.99609378,-1.3007813 1.33593748,-1.3007813 0.1875,0 0.5390625,0.09375 0.5390625,0.6679688 0,0.3046875 -0.1640625,0.9726562 -0.5390625,2.3671875 -0.1523437,0.62109371 -0.5039062,1.04296871 -0.9492187,1.04296871 -0.058594,0 -0.28125003,0 -0.49218753,-0.12890625 0.24609375,-0.0585937 0.46875003,-0.26953125 0.46875003,-0.5390625 0,-0.26953126 -0.22265628,-0.35156246 -0.37500003,-0.35156246 -0.29296875,0 -0.5390625,0.25781246 -0.5390625,0.57421871 0,0.45703125 0.4921875,0.65625 0.93750003,0.65625 0.65625,0 1.0078125,-0.69140625 1.0429687,-0.75 0.1171875,0.36328125 0.4804688,0.75 1.078125,0.75 1.0195313,0 1.59375,-1.27734371 1.59375,-1.53515621 0,-0.09375 -0.09375,-0.09375 -0.1289062,-0.09375 -0.082031,0 -0.1054688,0.035156 -0.1289063,0.1054687 -0.328125,1.06640626 -0.9960937,1.31250001 -1.3242187,1.31250001 -0.3867188,0 -0.5390625,-0.328125 -0.5390625,-0.65625 0,-0.22265625 0.058594,-0.44531251 0.1640625,-0.87890621 z m 0,0"
       style="fill:#000000;fill-opacity:1;fill-rule:nonzero;stroke:none"
       aria-label="x"
       transform="matrix(1.3333333,0,0,1.3333333,16.710667,16.168)" />
    <g
       id="g2"
       aria-label="x+a"
       transform="matrix(1.3333333,0,0,1.3333333,184.436,16.168)">
      <path
         id="path2"
         d="m 3.32925,-3.0117422 c 0.058594,-0.2578125 0.2929688,-1.171875 0.984375,-1.171875 0.046875,0 0.2929688,0 0.5039063,0.1289063 -0.28125,0.046875 -0.4804688,0.3046875 -0.4804688,0.5390625 0,0.1640625 0.1054688,0.3515625 0.375,0.3515625 0.2226563,0 0.5390625,-0.1875 0.5390625,-0.5859375 0,-0.515625 -0.5859375,-0.65625 -0.9257812,-0.65625 -0.5742188,0 -0.9257813,0.5273437 -1.0429688,0.7617187 -0.2578125,-0.65625 -0.7851562,-0.7617187 -1.078125,-0.7617187 -1.0429687,0 -1.60546875,1.2890625 -1.60546875,1.5351562 0,0.1054688 0.10546875,0.1054688 0.1171875,0.1054688 0.0820313,0 0.1171875,-0.023437 0.12890625,-0.1171875 0.3398438,-1.0546875 0.9960938,-1.3007813 1.3359375,-1.3007813 0.1875,0 0.5390625,0.09375 0.5390625,0.6679688 0,0.3046875 -0.1640625,0.9726562 -0.5390625,2.3671875 -0.1523437,0.62109371 -0.5039062,1.04296871 -0.9492187,1.04296871 -0.058594,0 -0.28125005,0 -0.49218755,-0.12890625 0.24609375,-0.0585937 0.46875005,-0.26953125 0.46875005,-0.5390625 0,-0.26953126 -0.2226563,-0.35156246 -0.37500005,-0.35156246 -0.29296875,0 -0.5390625,0.25781246 -0.5390625,0.57421871 0,0.45703125 0.4921875,0.65625 0.93750005,0.65625 0.65625,0 1.0078125,-0.69140625 1.0429687,-0.75 0.1171875,0.36328125 0.4804688,0.75 1.078125,0.75 1.0195313,0 1.59375,-1.27734371 1.59375,-1.53515621 0,-0.09375 -0.09375,-0.09375 -0.1289062,-0.09375 -0.082031,0 -0.1054688,0.035156 -0.1289063,0.1054687 -0.328125,1.06640626 -0.9960937,1.31250001 -1.3242187,1.31250001 -0.3867188,0 -0.5390625,-0.328125 -0.5390625,-0.65625 0,-0.22265625 0.058594,-0.44531251 0.1640625,-0.87890621 z m 0,0"
         style="fill:#000000;fill-opacity:1;fill-rule:nonzero;stroke:none" />
      <path
         id="path3"
         d="m 11.986477,-2.2968984 h 2.777343 c 0.140625,0 0.328125,0 0.328125,-0.1992188 0,-0.1992187 -0.1875,-0.1992187 -0.328125,-0.1992187 h -2.777343 v -2.7890625 c 0,-0.1289063 0,-0.328125 -0.199219,-0.328125 -0.199219,0 -0.199219,0.1992187 -0.199219,0.328125 v 2.7890625 H 8.7989766 c -0.140625,0 -0.328125,0 -0.328125,0.1992187 0,0.1992188 0.1875,0.1992188 0.328125,0.1992188 h 2.7890624 v 2.80078121 c 0,0.12890625 0,0.328125 0.199219,0.328125 0.199219,0 0.199219,-0.19921875 0.199219,-0.328125 z m 0,0"
         style="fill:#000000;fill-opacity:1;fill-rule:nonzero;stroke:none" />
      <path
         id="path4"
         d="m 21.587063,-3.7617422 c -0.175782,-0.375 -0.46875,-0.6445312 -0.914063,-0.6445312 -1.171875,0 -2.402344,1.4648437 -2.402344,2.9179687 0,0.93750001 0.550782,1.59375001 1.324219,1.59375001 0.199219,0 0.703125,-0.03515625 1.300781,-0.73828125 0.07031,0.41015625 0.421875,0.73828125 0.902344,0.73828125 0.351563,0 0.574219,-0.22265625 0.738281,-0.5390625 0.164063,-0.36328125 0.292969,-0.97265621 0.292969,-0.99609371 0,-0.09375 -0.08203,-0.09375 -0.117187,-0.09375 -0.09375,0 -0.105469,0.035156 -0.140625,0.1757812 -0.164063,0.64453126 -0.351563,1.24218751 -0.75,1.24218751 -0.269532,0 -0.304688,-0.2578125 -0.304688,-0.45703125 0,-0.22265625 0.02344,-0.3046875 0.128906,-0.73828126 0.117188,-0.421875 0.128907,-0.5273437 0.222657,-0.9023437 l 0.351562,-1.3945313 c 0.07031,-0.28125 0.07031,-0.2929687 0.07031,-0.3398437 0,-0.1640625 -0.117188,-0.2695313 -0.28125,-0.2695313 -0.246094,0 -0.386719,0.2226563 -0.421875,0.4453125 z m -0.644532,2.578125 c -0.04687,0.1757813 -0.04687,0.19921876 -0.199218,0.36328126 -0.445313,0.55078125 -0.84375,0.71484375 -1.125,0.71484375 -0.503907,0 -0.644532,-0.55078125 -0.644532,-0.93750001 0,-0.5039062 0.328125,-1.7226562 0.550782,-2.1796875 0.304687,-0.5976562 0.761718,-0.9609375 1.160156,-0.9609375 0.644531,0 0.785156,0.8203125 0.785156,0.8789063 0,0.058594 -0.02344,0.1171875 -0.03516,0.1640625 z m 0,0"
         style="fill:#000000;fill-opacity:1;fill-rule:nonzero;stroke:none" />
    </g>
    <g
       id="g4"
       aria-label="x+b"
       transform="matrix(1.3333333,0,0,1.3333333,89.605333,69.432)">
      <path
         id="path5"
         d="m 3.3282266,-3.0105234 c 0.058594,-0.2578125 0.2929687,-1.171875 0.984375,-1.171875 0.046875,0 0.2929687,0 0.5039062,0.1289062 -0.28125,0.046875 -0.4804687,0.3046875 -0.4804687,0.5390625 0,0.1640625 0.1054687,0.3515625 0.375,0.3515625 0.2226562,0 0.5390625,-0.1875 0.5390625,-0.5859375 0,-0.515625 -0.5859375,-0.65625 -0.9257813,-0.65625 -0.5742187,0 -0.9257812,0.5273438 -1.0429687,0.7617188 -0.2578125,-0.65625 -0.7851563,-0.7617188 -1.078125,-0.7617188 -1.0429688,0 -1.60546879,1.2890625 -1.60546879,1.5351563 0,0.1054687 0.10546875,0.1054687 0.1171875,0.1054687 0.0820313,0 0.1171875,-0.023437 0.12890625,-0.1171875 0.33984374,-1.0546875 0.99609374,-1.3007812 1.33593754,-1.3007812 0.1875,0 0.5390625,0.09375 0.5390625,0.6679687 0,0.3046875 -0.1640625,0.9726563 -0.5390625,2.3671875 -0.1523438,0.62109376 -0.5039063,1.04296876 -0.9492188,1.04296876 -0.058594,0 -0.28124999,0 -0.49218749,-0.12890625 0.24609375,-0.0585938 0.46874999,-0.26953125 0.46874999,-0.5390625 0,-0.26953121 -0.22265624,-0.35156251 -0.37499999,-0.35156251 -0.29296875,0 -0.5390625,0.25781251 -0.5390625,0.57421876 0,0.45703125 0.4921875,0.65625 0.93749999,0.65625 0.65625,0 1.0078125,-0.69140625 1.0429688,-0.75 0.1171875,0.36328125 0.4804687,0.75 1.078125,0.75 1.0195312,0 1.59375,-1.27734376 1.59375,-1.53515626 0,-0.09375 -0.09375,-0.09375 -0.1289063,-0.09375 -0.082031,0 -0.1054687,0.035156 -0.1289062,0.1054688 -0.328125,1.06640621 -0.9960938,1.31249996 -1.3242188,1.31249996 -0.3867187,0 -0.5390625,-0.328125 -0.5390625,-0.65625 0,-0.22265625 0.058594,-0.44531246 0.1640625,-0.87890626 z m 0,0"
         style="fill:#000000;fill-opacity:1;fill-rule:nonzero;stroke:none" />
      <path
         id="path6"
         d="m 11.985453,-2.2956797 h 2.777344 c 0.140625,0 0.328125,0 0.328125,-0.1992187 0,-0.1992188 -0.1875,-0.1992188 -0.328125,-0.1992188 h -2.777344 v -2.7890625 c 0,-0.1289062 0,-0.328125 -0.199219,-0.328125 -0.199218,0 -0.199218,0.1992188 -0.199218,0.328125 v 2.7890625 H 8.7979531 c -0.140625,0 -0.328125,0 -0.328125,0.1992188 0,0.1992187 0.1875,0.1992187 0.328125,0.1992187 h 2.7890629 v 2.80078126 c 0,0.12890625 0,0.328125 0.199218,0.328125 0.199219,0 0.199219,-0.19921875 0.199219,-0.328125 z m 0,0"
         style="fill:#000000;fill-opacity:1;fill-rule:nonzero;stroke:none" />
      <path
         id="path7"
         d="m 20.250102,-6.8073984 c 0,0 0,-0.1054688 -0.128907,-0.1054688 -0.222656,0 -0.949218,0.082031 -1.21875,0.1054688 -0.07031,0 -0.1875,0.011719 -0.1875,0.1992187 0,0.1171875 0.09375,0.1171875 0.246094,0.1171875 0.46875,0 0.492188,0.070312 0.492188,0.1640625 0,0.070312 -0.08203,0.4101563 -0.140625,0.6210938 l -0.808594,3.2460937 c -0.128906,0.5039063 -0.164063,0.65625 -0.164063,1.0078125 0,0.94921876 0.527344,1.55859376 1.265625,1.55859376 1.171875,0 2.402344,-1.47656246 2.402344,-2.91796876 0,-0.9023437 -0.527344,-1.59375 -1.324219,-1.59375 -0.457031,0 -0.867187,0.2929688 -1.171875,0.5976563 z m -0.9375,3.7734375 c 0.05859,-0.2226563 0.05859,-0.2460938 0.152343,-0.3515625 0.492188,-0.6445313 0.9375,-0.796875 1.195313,-0.796875 0.363281,0 0.632812,0.2929687 0.632812,0.9375 0,0.5859375 -0.328125,1.734375 -0.515625,2.109375 -0.328125,0.66796871 -0.785156,1.03124996 -1.171875,1.03124996 -0.339843,0 -0.667968,-0.26953125 -0.667968,-1.00781246 0,-0.1875 0,-0.3867188 0.164062,-1.0078125 z m 0,0"
         style="fill:#000000;fill-opacity:1;fill-rule:nonzero;stroke:none" />
    </g>
    <g
       id="g7"
       aria-label="x+a+b"
       transform="matrix(1.3333333,0,0,1.3333333,280.588,69.432)">
      <path
         id="path8"
         d="m 3.3295078,-3.0105234 c 0.058594,-0.2578125 0.2929688,-1.171875 0.984375,-1.171875 0.046875,0 0.2929688,0 0.5039063,0.1289062 -0.28125,0.046875 -0.4804688,0.3046875 -0.4804688,0.5390625 0,0.1640625 0.1054688,0.3515625 0.375,0.3515625 0.2226563,0 0.5390625,-0.1875 0.5390625,-0.5859375 0,-0.515625 -0.5859375,-0.65625 -0.9257812,-0.65625 -0.5742188,0 -0.9257813,0.5273438 -1.0429688,0.7617188 -0.2578125,-0.65625 -0.7851562,-0.7617188 -1.078125,-0.7617188 -1.0429687,0 -1.60546874,1.2890625 -1.60546874,1.5351563 0,0.1054687 0.10546875,0.1054687 0.1171875,0.1054687 0.0820313,0 0.1171875,-0.023437 0.12890625,-0.1171875 0.33984379,-1.0546875 0.99609379,-1.3007812 1.33593749,-1.3007812 0.1875,0 0.5390625,0.09375 0.5390625,0.6679687 0,0.3046875 -0.1640625,0.9726563 -0.5390625,2.3671875 -0.1523437,0.62109376 -0.5039062,1.04296876 -0.9492187,1.04296876 -0.058594,0 -0.28125004,0 -0.49218754,-0.12890625 0.24609375,-0.0585938 0.46875004,-0.26953125 0.46875004,-0.5390625 0,-0.26953121 -0.22265629,-0.35156251 -0.37500004,-0.35156251 -0.29296875,0 -0.5390625,0.25781251 -0.5390625,0.57421876 0,0.45703125 0.4921875,0.65625 0.93750004,0.65625 0.65625,0 1.0078125,-0.69140625 1.0429687,-0.75 0.1171875,0.36328125 0.4804688,0.75 1.078125,0.75 1.0195313,0 1.59375,-1.27734376 1.59375,-1.53515626 0,-0.09375 -0.09375,-0.09375 -0.1289062,-0.09375 -0.082031,0 -0.1054688,0.035156 -0.1289063,0.1054688 -0.328125,1.06640621 -0.9960937,1.31249996 -1.3242187,1.31249996 -0.3867188,0 -0.5390625,-0.328125 -0.5390625,-0.65625 0,-0.22265625 0.058594,-0.44531246 0.1640625,-0.87890626 z m 0,0"
         style="fill:#000000;fill-opacity:1;fill-rule:nonzero;stroke:none" />
      <path
         id="path9"
         d="m 11.986734,-2.2956797 h 2.777344 c 0.140625,0 0.328125,0 0.328125,-0.1992187 0,-0.1992188 -0.1875,-0.1992188 -0.328125,-0.1992188 h -2.777344 v -2.7890625 c 0,-0.1289062 0,-0.328125 -0.199218,-0.328125 -0.199219,0 -0.199219,0.1992188 -0.199219,0.328125 v 2.7890625 H 8.7992344 c -0.140625,0 -0.328125,0 -0.328125,0.1992188 0,0.1992187 0.1875,0.1992187 0.328125,0.1992187 h 2.7890626 v 2.80078126 c 0,0.12890625 0,0.328125 0.199219,0.328125 0.199218,0 0.199218,-0.19921875 0.199218,-0.328125 z m 0,0"
         style="fill:#000000;fill-opacity:1;fill-rule:nonzero;stroke:none" />
      <path
         id="path10"
         d="m 21.584391,-3.7605234 c -0.175782,-0.375 -0.46875,-0.6445313 -0.914063,-0.6445313 -1.171875,0 -2.402344,1.4648438 -2.402344,2.9179688 0,0.93749996 0.550782,1.59374996 1.324219,1.59374996 0.199219,0 0.703125,-0.03515625 1.300781,-0.73828125 0.07031,0.41015625 0.421875,0.73828125 0.902344,0.73828125 0.351563,0 0.574219,-0.22265625 0.738281,-0.5390625 0.164063,-0.36328125 0.292969,-0.97265626 0.292969,-0.99609376 0,-0.09375 -0.08203,-0.09375 -0.117187,-0.09375 -0.09375,0 -0.105469,0.035156 -0.140625,0.1757813 -0.164063,0.64453121 -0.351563,1.24218746 -0.75,1.24218746 -0.269532,0 -0.304688,-0.2578125 -0.304688,-0.45703125 0,-0.22265625 0.02344,-0.3046875 0.128906,-0.73828121 0.117188,-0.421875 0.128907,-0.5273438 0.222657,-0.9023438 l 0.351562,-1.3945312 c 0.07031,-0.28125 0.07031,-0.2929688 0.07031,-0.3398438 0,-0.1640625 -0.117188,-0.2695312 -0.28125,-0.2695312 -0.246094,0 -0.386719,0.2226562 -0.421875,0.4453125 z m -0.644532,2.578125 c -0.04687,0.1757812 -0.04687,0.19921871 -0.199218,0.36328121 -0.445313,0.55078125 -0.84375,0.71484375 -1.125,0.71484375 -0.503907,0 -0.644532,-0.55078125 -0.644532,-0.93749996 0,-0.5039063 0.328125,-1.7226563 0.550782,-2.1796875 0.304687,-0.5976563 0.761718,-0.9609375 1.160156,-0.9609375 0.644531,0 0.785156,0.8203125 0.785156,0.8789062 0,0.058594 -0.02344,0.1171875 -0.03516,0.1640625 z m 0,0"
         style="fill:#000000;fill-opacity:1;fill-rule:nonzero;stroke:none" />
      <path
         id="path11"
         d="m 29.427164,-2.2956797 h 2.777344 c 0.140625,0 0.328125,0 0.328125,-0.1992187 0,-0.1992188 -0.1875,-0.1992188 -0.328125,-0.1992188 h -2.777344 v -2.7890625 c 0,-0.1289062 0,-0.328125 -0.199219,-0.328125 -0.199218,0 -0.199218,0.1992188 -0.199218,0.328125 v 2.7890625 h -2.789063 c -0.140625,0 -0.328125,0 -0.328125,0.1992188 0,0.1992187 0.1875,0.1992187 0.328125,0.1992187 h 2.789063 v 2.80078126 c 0,0.12890625 0,0.328125 0.199218,0.328125 0.199219,0 0.199219,-0.19921875 0.199219,-0.328125 z m 0,0"
         style="fill:#000000;fill-opacity:1;fill-rule:nonzero;stroke:none" />
      <path
         id="path12"
         d="m 37.691813,-6.8073984 c 0,0 0,-0.1054688 -0.128907,-0.1054688 -0.222656,0 -0.949218,0.082031 -1.21875,0.1054688 -0.07031,0 -0.1875,0.011719 -0.1875,0.1992187 0,0.1171875 0.09375,0.1171875 0.246094,0.1171875 0.46875,0 0.492188,0.070312 0.492188,0.1640625 0,0.070312 -0.08203,0.4101563 -0.140625,0.6210938 l -0.808594,3.2460937 c -0.128906,0.5039063 -0.164063,0.65625 -0.164063,1.0078125 0,0.94921876 0.527344,1.55859376 1.265625,1.55859376 1.171875,0 2.402344,-1.47656246 2.402344,-2.91796876 0,-0.9023437 -0.527344,-1.59375 -1.324219,-1.59375 -0.457031,0 -0.867187,0.2929688 -1.171875,0.5976563 z m -0.9375,3.7734375 c 0.05859,-0.2226563 0.05859,-0.2460938 0.152343,-0.3515625 0.492188,-0.6445313 0.9375,-0.796875 1.195313,-0.796875 0.363281,0 0.632812,0.2929687 0.632812,0.9375 0,0.5859375 -0.328125,1.734375 -0.515625,2.109375 -0.328125,0.66796871 -0.785156,1.03124996 -1.171875,1.03124996 -0.339843,0 -0.667968,-0.26953125 -0.667968,-1.00781246 0,-0.1875 0,-0.3867188 0.164062,-1.0078125 z m 0,0"
         style="fill:#000000;fill-opacity:1;fill-rule:nonzero;stroke:none" />
    </g>
    <g
       id="g12"
       aria-label="x+c"
       transform="matrix(1.3333333,0,0,1.3333333,5.7186667,121.21867)">
      <path
         id="path13"
         d="m 3.3281875,-3.0116563 c 0.058594,-0.2578125 0.2929688,-1.171875 0.984375,-1.171875 0.046875,0 0.2929688,0 0.5039063,0.1289063 C 4.5352188,-4.00775 4.336,-3.7499375 4.336,-3.5155625 4.336,-3.3515 4.4414688,-3.164 4.711,-3.164 c 0.2226563,0 0.5390625,-0.1875 0.5390625,-0.5859375 0,-0.515625 -0.5859375,-0.65625 -0.9257812,-0.65625 -0.5742188,0 -0.9257813,0.5273437 -1.0429688,0.7617187 -0.2578125,-0.65625 -0.7851562,-0.7617187 -1.078125,-0.7617187 -1.0429687,0 -1.60546875,1.2890625 -1.60546875,1.5351562 0,0.1054688 0.10546875,0.1054688 0.1171875,0.1054688 0.0820313,0 0.1171875,-0.023437 0.12890625,-0.1171875 0.3398438,-1.0546875 0.9960938,-1.3007813 1.3359375,-1.3007813 0.1875,0 0.5390625,0.09375 0.5390625,0.6679688 0,0.3046875 -0.1640625,0.9726562 -0.5390625,2.3671875 -0.1523437,0.62109375 -0.5039062,1.04296875 -0.9492187,1.04296875 -0.058594,0 -0.28125005,0 -0.49218755,-0.12890625 0.24609375,-0.0585937 0.46875005,-0.26953125 0.46875005,-0.5390625 0,-0.2695313 -0.2226563,-0.3515625 -0.37500005,-0.3515625 -0.29296875,0 -0.5390625,0.2578125 -0.5390625,0.57421875 0,0.45703125 0.4921875,0.65625 0.93750005,0.65625 0.65625,0 1.0078125,-0.69140625 1.0429687,-0.75 0.1171875,0.36328125 0.4804688,0.75 1.078125,0.75 1.0195313,0 1.59375,-1.27734375 1.59375,-1.53515625 0,-0.09375 -0.09375,-0.09375 -0.1289062,-0.09375 -0.082031,0 -0.1054688,0.035156 -0.1289063,0.1054687 -0.328125,1.0664063 -0.9960937,1.31250005 -1.3242187,1.31250005 -0.3867188,0 -0.5390625,-0.328125 -0.5390625,-0.65625 0,-0.22265625 0.058594,-0.44531255 0.1640625,-0.87890625 z m 0,0"
         style="fill:#000000;fill-opacity:1;fill-rule:nonzero;stroke:none" />
      <path
         id="path14"
         d="m 11.985414,-2.2968125 h 2.777344 c 0.140625,0 0.328125,0 0.328125,-0.1992188 0,-0.1992187 -0.1875,-0.1992187 -0.328125,-0.1992187 h -2.777344 v -2.7890625 c 0,-0.1289063 0,-0.328125 -0.199219,-0.328125 -0.199218,0 -0.199218,0.1992187 -0.199218,0.328125 V -2.69525 H 8.7979141 c -0.140625,0 -0.328125,0 -0.328125,0.1992187 0,0.1992188 0.1875,0.1992188 0.328125,0.1992188 h 2.7890629 v 2.80078125 c 0,0.12890625 0,0.328125 0.199218,0.328125 0.199219,0 0.199219,-0.19921875 0.199219,-0.328125 z m 0,0"
         style="fill:#000000;fill-opacity:1;fill-rule:nonzero;stroke:none" />
      <path
         id="path15"
         d="m 21.820375,-3.7850938 c -0.164062,0 -0.304687,0 -0.445312,0.140625 -0.152344,0.1523438 -0.175782,0.3164063 -0.175782,0.3867188 0,0.234375 0.175782,0.3515625 0.363282,0.3515625 0.292968,0 0.5625,-0.2460938 0.5625,-0.6445313 0,-0.4804687 -0.46875,-0.8554687 -1.171875,-0.8554687 -1.347657,0 -2.671875,1.4296875 -2.671875,2.8359375 0,0.890625 0.574218,1.67578125 1.617187,1.67578125 1.417969,0 2.261719,-1.0546875 2.261719,-1.17187505 0,-0.058594 -0.07031,-0.1289062 -0.128906,-0.1289062 -0.04687,0 -0.07031,0.023437 -0.128907,0.09375 -0.785156,0.99609375 -1.875,0.99609375 -1.992187,0.99609375 -0.621094,0 -0.890625,-0.4921875 -0.890625,-1.08984375 0,-0.4101563 0.199219,-1.3710938 0.539062,-1.9921875 0.304688,-0.5625 0.855469,-0.9960938 1.40625,-0.9960938 0.328125,0 0.714844,0.1289063 0.855469,0.3984375 z m 0,0"
         style="fill:#000000;fill-opacity:1;fill-rule:nonzero;stroke:none" />
    </g>
    <g
       id="g15"
       aria-label="x+a+c"
       transform="matrix(1.3333333,0,0,1.3333333,173.444,121.21867)">
      <path
         id="path16"
         d="m 3.3291094,-3.0116563 c 0.058594,-0.2578125 0.2929687,-1.171875 0.984375,-1.171875 0.046875,0 0.2929687,0 0.5039062,0.1289063 -0.28125,0.046875 -0.4804687,0.3046875 -0.4804687,0.5390625 0,0.1640625 0.1054687,0.3515625 0.375,0.3515625 0.2226562,0 0.5390625,-0.1875 0.5390625,-0.5859375 0,-0.515625 -0.5859375,-0.65625 -0.9257813,-0.65625 -0.5742187,0 -0.9257812,0.5273437 -1.0429687,0.7617187 -0.2578125,-0.65625 -0.7851563,-0.7617187 -1.078125,-0.7617187 -1.0429688,0 -1.60546877,1.2890625 -1.60546877,1.5351562 0,0.1054688 0.10546875,0.1054688 0.1171875,0.1054688 0.0820313,0 0.1171875,-0.023437 0.12890625,-0.1171875 0.33984372,-1.0546875 0.99609372,-1.3007813 1.33593752,-1.3007813 0.1875,0 0.5390625,0.09375 0.5390625,0.6679688 0,0.3046875 -0.1640625,0.9726562 -0.5390625,2.3671875 -0.1523438,0.62109375 -0.5039063,1.04296875 -0.9492188,1.04296875 -0.058594,0 -0.28124997,0 -0.49218747,-0.12890625 0.24609375,-0.0585937 0.46874997,-0.26953125 0.46874997,-0.5390625 0,-0.2695313 -0.22265622,-0.3515625 -0.37499997,-0.3515625 -0.29296875,0 -0.5390625,0.2578125 -0.5390625,0.57421875 0,0.45703125 0.4921875,0.65625 0.93749997,0.65625 0.65625,0 1.0078125,-0.69140625 1.0429688,-0.75 0.1171875,0.36328125 0.4804687,0.75 1.078125,0.75 1.0195312,0 1.59375,-1.27734375 1.59375,-1.53515625 0,-0.09375 -0.09375,-0.09375 -0.1289063,-0.09375 -0.082031,0 -0.1054687,0.035156 -0.1289062,0.1054687 -0.328125,1.0664063 -0.9960938,1.31250005 -1.3242188,1.31250005 -0.3867187,0 -0.5390625,-0.328125 -0.5390625,-0.65625 0,-0.22265625 0.058594,-0.44531255 0.1640625,-0.87890625 z m 0,0"
         style="fill:#000000;fill-opacity:1;fill-rule:nonzero;stroke:none" />
      <path
         id="path17"
         d="m 11.986336,-2.2968125 h 2.777344 c 0.140625,0 0.328125,0 0.328125,-0.1992188 0,-0.1992187 -0.1875,-0.1992187 -0.328125,-0.1992187 h -2.777344 v -2.7890625 c 0,-0.1289063 0,-0.328125 -0.199219,-0.328125 -0.199219,0 -0.199219,0.1992187 -0.199219,0.328125 V -2.69525 H 8.7988359 c -0.140625,0 -0.328125,0 -0.328125,0.1992187 0,0.1992188 0.1875,0.1992188 0.328125,0.1992188 h 2.7890621 v 2.80078125 c 0,0.12890625 0,0.328125 0.199219,0.328125 0.199219,0 0.199219,-0.19921875 0.199219,-0.328125 z m 0,0"
         style="fill:#000000;fill-opacity:1;fill-rule:nonzero;stroke:none" />
      <path
         id="path18"
         d="m 21.586922,-3.7616563 c -0.175781,-0.375 -0.46875,-0.6445312 -0.914063,-0.6445312 -1.171875,0 -2.402343,1.4648437 -2.402343,2.9179687 0,0.93750005 0.550781,1.59375005 1.324218,1.59375005 0.199219,0 0.703125,-0.03515625 1.300782,-0.73828125 0.07031,0.41015625 0.421875,0.73828125 0.902343,0.73828125 0.351563,0 0.574219,-0.22265625 0.738282,-0.5390625 0.164062,-0.36328125 0.292968,-0.97265625 0.292968,-0.99609375 0,-0.09375 -0.08203,-0.09375 -0.117187,-0.09375 -0.09375,0 -0.105469,0.035156 -0.140625,0.1757812 -0.164063,0.6445313 -0.351563,1.24218755 -0.75,1.24218755 -0.269531,0 -0.304688,-0.2578125 -0.304688,-0.45703125 0,-0.22265625 0.02344,-0.3046875 0.128907,-0.7382813 0.117187,-0.421875 0.128906,-0.5273437 0.222656,-0.9023437 l 0.351562,-1.3945313 c 0.07031,-0.28125 0.07031,-0.2929687 0.07031,-0.3398437 0,-0.1640625 -0.117188,-0.2695313 -0.28125,-0.2695313 -0.246094,0 -0.386719,0.2226563 -0.421875,0.4453125 z m -0.644531,2.578125 c -0.04687,0.1757813 -0.04687,0.1992188 -0.199219,0.3632813 -0.445313,0.55078125 -0.84375,0.71484375 -1.125,0.71484375 -0.503906,0 -0.644531,-0.55078125 -0.644531,-0.93750005 0,-0.5039062 0.328125,-1.7226562 0.550781,-2.1796875 0.304687,-0.5976562 0.761719,-0.9609375 1.160156,-0.9609375 0.644531,0 0.785156,0.8203125 0.785156,0.8789063 0,0.058594 -0.02344,0.1171875 -0.03516,0.1640625 z m 0,0"
         style="fill:#000000;fill-opacity:1;fill-rule:nonzero;stroke:none" />
      <path
         id="path19"
         d="m 29.429695,-2.2968125 h 2.777344 c 0.140625,0 0.328125,0 0.328125,-0.1992188 0,-0.1992187 -0.1875,-0.1992187 -0.328125,-0.1992187 h -2.777344 v -2.7890625 c 0,-0.1289063 0,-0.328125 -0.199218,-0.328125 -0.199219,0 -0.199219,0.1992187 -0.199219,0.328125 V -2.69525 h -2.789063 c -0.140625,0 -0.328125,0 -0.328125,0.1992187 0,0.1992188 0.1875,0.1992188 0.328125,0.1992188 h 2.789063 v 2.80078125 c 0,0.12890625 0,0.328125 0.199219,0.328125 0.199218,0 0.199218,-0.19921875 0.199218,-0.328125 z m 0,0"
         style="fill:#000000;fill-opacity:1;fill-rule:nonzero;stroke:none" />
      <path
         id="path20"
         d="m 39.261727,-3.7850938 c -0.164063,0 -0.304688,0 -0.445313,0.140625 -0.152344,0.1523438 -0.175781,0.3164063 -0.175781,0.3867188 0,0.234375 0.175781,0.3515625 0.363281,0.3515625 0.292969,0 0.5625,-0.2460938 0.5625,-0.6445313 0,-0.4804687 -0.46875,-0.8554687 -1.171875,-0.8554687 -1.347656,0 -2.671875,1.4296875 -2.671875,2.8359375 0,0.890625 0.574219,1.67578125 1.617188,1.67578125 1.417968,0 2.261718,-1.0546875 2.261718,-1.17187505 0,-0.058594 -0.07031,-0.1289062 -0.128906,-0.1289062 -0.04687,0 -0.07031,0.023437 -0.128906,0.09375 -0.785156,0.99609375 -1.875,0.99609375 -1.992188,0.99609375 -0.621093,0 -0.890625,-0.4921875 -0.890625,-1.08984375 0,-0.4101563 0.199219,-1.3710938 0.539063,-1.9921875 0.304687,-0.5625 0.855469,-0.9960938 1.40625,-0.9960938 0.328125,0 0.714844,0.1289063 0.855469,0.3984375 z m 0,0"
         style="fill:#000000;fill-opacity:1;fill-rule:nonzero;stroke:none" />
    </g>
    <g
       id="g20"
       aria-label="x+b+c"
       transform="matrix(1.3333333,0,0,1.3333333,78.613333,174.48267)">
      <path
         id="path21"
         d="m 3.3280859,-3.0104375 c 0.058594,-0.2578125 0.2929688,-1.171875 0.984375,-1.171875 0.046875,0 0.2929688,0 0.5039063,0.1289063 -0.28125,0.046875 -0.4804688,0.3046875 -0.4804688,0.5390625 0,0.1640625 0.1054688,0.3515625 0.375,0.3515625 0.2226563,0 0.5390625,-0.1875 0.5390625,-0.5859375 0,-0.515625 -0.5859375,-0.65625 -0.9257812,-0.65625 -0.5742188,0 -0.9257813,0.5273437 -1.0429688,0.7617187 -0.2578125,-0.65625 -0.7851562,-0.7617187 -1.078125,-0.7617187 -1.0429687,0 -1.60546871,1.2890625 -1.60546871,1.5351562 0,0.1054688 0.10546875,0.1054688 0.1171875,0.1054688 0.0820313,0 0.1171875,-0.023437 0.12890625,-0.1171875 0.33984376,-1.0546875 0.99609376,-1.3007813 1.33593746,-1.3007813 0.1875,0 0.5390625,0.09375 0.5390625,0.6679688 0,0.3046875 -0.1640625,0.9726562 -0.5390625,2.3671875 -0.1523437,0.6210937 -0.5039062,1.0429687 -0.9492187,1.0429687 -0.058594,0 -0.28125001,0 -0.49218751,-0.12890625 0.24609375,-0.0585938 0.46875001,-0.26953125 0.46875001,-0.5390625 0,-0.26953125 -0.22265626,-0.35156245 -0.37500001,-0.35156245 -0.29296875,0 -0.5390625,0.25781245 -0.5390625,0.5742187 0,0.45703125 0.4921875,0.65625 0.93750001,0.65625 0.65625,0 1.0078125,-0.69140625 1.0429687,-0.75 0.1171875,0.36328125 0.4804688,0.75 1.078125,0.75 1.0195313,0 1.59375,-1.2773437 1.59375,-1.5351562 0,-0.09375 -0.09375,-0.09375 -0.1289062,-0.09375 -0.082031,0 -0.1054688,0.035156 -0.1289063,0.1054687 -0.328125,1.06640625 -0.9960937,1.3125 -1.3242187,1.3125 -0.3867188,0 -0.5390625,-0.328125 -0.5390625,-0.65625 0,-0.22265625 0.058594,-0.4453125 0.1640625,-0.8789062 z m 0,0"
         style="fill:#000000;fill-opacity:1;fill-rule:nonzero;stroke:none" />
      <path
         id="path22"
         d="m 11.985313,-2.2955937 h 2.777343 c 0.140625,0 0.328125,0 0.328125,-0.1992188 0,-0.1992187 -0.1875,-0.1992187 -0.328125,-0.1992187 h -2.777343 v -2.7890625 c 0,-0.1289063 0,-0.328125 -0.199219,-0.328125 -0.199219,0 -0.199219,0.1992187 -0.199219,0.328125 v 2.7890625 H 8.7978125 c -0.140625,0 -0.328125,0 -0.328125,0.1992187 0,0.1992188 0.1875,0.1992188 0.328125,0.1992188 h 2.7890625 v 2.8007812 c 0,0.12890625 0,0.328125 0.199219,0.328125 0.199219,0 0.199219,-0.19921875 0.199219,-0.328125 z m 0,0"
         style="fill:#000000;fill-opacity:1;fill-rule:nonzero;stroke:none" />
      <path
         id="path23"
         d="m 20.249961,-6.8073125 c 0,0 0,-0.1054687 -0.128906,-0.1054687 -0.222657,0 -0.949219,0.082031 -1.21875,0.1054687 -0.07031,0 -0.1875,0.011719 -0.1875,0.1992188 0,0.1171875 0.09375,0.1171875 0.246093,0.1171875 0.46875,0 0.492188,0.070312 0.492188,0.1640625 0,0.070312 -0.08203,0.4101562 -0.140625,0.6210937 l -0.808594,3.2460938 c -0.128906,0.5039062 -0.164062,0.65625 -0.164062,1.0078125 0,0.9492187 0.527343,1.5585937 1.265625,1.5585937 1.171875,0 2.402343,-1.4765625 2.402343,-2.9179687 0,-0.9023438 -0.527343,-1.59375 -1.324218,-1.59375 -0.457032,0 -0.867188,0.2929687 -1.171875,0.5976562 z m -0.9375,3.7734375 c 0.05859,-0.2226562 0.05859,-0.2460937 0.152344,-0.3515625 0.492187,-0.6445312 0.9375,-0.796875 1.195312,-0.796875 0.363281,0 0.632813,0.2929688 0.632813,0.9375 0,0.5859375 -0.328125,1.734375 -0.515625,2.109375 -0.328125,0.66796875 -0.785157,1.03125 -1.171875,1.03125 -0.339844,0 -0.667969,-0.26953125 -0.667969,-1.0078125 0,-0.1875 0,-0.3867187 0.164062,-1.0078125 z m 0,0"
         style="fill:#000000;fill-opacity:1;fill-rule:nonzero;stroke:none" />
      <path
         id="path24"
         d="m 28.438438,-2.2955937 h 2.777343 c 0.140625,0 0.328125,0 0.328125,-0.1992188 0,-0.1992187 -0.1875,-0.1992187 -0.328125,-0.1992187 h -2.777343 v -2.7890625 c 0,-0.1289063 0,-0.328125 -0.199219,-0.328125 C 28.04,-5.8112187 28.04,-5.612 28.04,-5.4830937 v 2.7890625 h -2.789062 c -0.140625,0 -0.328125,0 -0.328125,0.1992187 0,0.1992188 0.1875,0.1992188 0.328125,0.1992188 H 28.04 v 2.8007812 c 0,0.12890625 0,0.328125 0.199219,0.328125 0.199219,0 0.199219,-0.19921875 0.199219,-0.328125 z m 0,0"
         style="fill:#000000;fill-opacity:1;fill-rule:nonzero;stroke:none" />
      <path
         id="path25"
         d="m 38.273398,-3.783875 c -0.164062,0 -0.304687,0 -0.445312,0.140625 -0.152344,0.1523438 -0.175781,0.3164063 -0.175781,0.3867188 0,0.234375 0.175781,0.3515625 0.363281,0.3515625 0.292969,0 0.5625,-0.2460938 0.5625,-0.6445313 0,-0.4804687 -0.46875,-0.8554687 -1.171875,-0.8554687 -1.347656,0 -2.671875,1.4296875 -2.671875,2.8359375 0,0.89062495 0.574219,1.6757812 1.617187,1.6757812 1.417969,0 2.261719,-1.0546875 2.261719,-1.171875 0,-0.058594 -0.07031,-0.1289062 -0.128906,-0.1289062 -0.04687,0 -0.07031,0.023437 -0.128906,0.09375 -0.785157,0.9960937 -1.875,0.9960937 -1.992188,0.9960937 -0.621094,0 -0.890625,-0.4921875 -0.890625,-1.0898437 0,-0.4101563 0.199219,-1.3710938 0.539063,-1.9921875 0.304687,-0.5625 0.855468,-0.9960938 1.40625,-0.9960938 0.328125,0 0.714843,0.1289063 0.855468,0.3984375 z m 0,0"
         style="fill:#000000;fill-opacity:1;fill-rule:nonzero;stroke:none" />
    </g>
    <g
       id="g25"
       aria-label="x+a+b+c"
       transform="matrix(1.3333333,0,0,1.3333333,269.596,174.48267)">
      <path
         id="path26"
         d="m 3.3293672,-3.0104375 c 0.058594,-0.2578125 0.2929687,-1.171875 0.984375,-1.171875 0.046875,0 0.2929687,0 0.5039062,0.1289063 -0.28125,0.046875 -0.4804687,0.3046875 -0.4804687,0.5390625 0,0.1640625 0.1054687,0.3515625 0.375,0.3515625 0.2226562,0 0.5390625,-0.1875 0.5390625,-0.5859375 0,-0.515625 -0.5859375,-0.65625 -0.9257813,-0.65625 -0.5742187,0 -0.9257812,0.5273437 -1.0429687,0.7617187 -0.2578125,-0.65625 -0.7851563,-0.7617187 -1.078125,-0.7617187 -1.0429688,0 -1.60546876,1.2890625 -1.60546876,1.5351562 0,0.1054688 0.10546875,0.1054688 0.1171875,0.1054688 0.0820313,0 0.1171875,-0.023437 0.12890625,-0.1171875 0.33984371,-1.0546875 0.99609371,-1.3007813 1.33593751,-1.3007813 0.1875,0 0.5390625,0.09375 0.5390625,0.6679688 0,0.3046875 -0.1640625,0.9726562 -0.5390625,2.3671875 -0.1523438,0.6210937 -0.5039063,1.0429687 -0.9492188,1.0429687 -0.058594,0 -0.28124996,0 -0.49218746,-0.12890625 0.24609375,-0.0585938 0.46874996,-0.26953125 0.46874996,-0.5390625 0,-0.26953125 -0.22265621,-0.35156245 -0.37499996,-0.35156245 -0.29296875,0 -0.5390625,0.25781245 -0.5390625,0.5742187 0,0.45703125 0.4921875,0.65625 0.93749996,0.65625 0.65625,0 1.0078125,-0.69140625 1.0429688,-0.75 0.1171875,0.36328125 0.4804687,0.75 1.078125,0.75 1.0195312,0 1.59375,-1.2773437 1.59375,-1.5351562 0,-0.09375 -0.09375,-0.09375 -0.1289063,-0.09375 -0.082031,0 -0.1054687,0.035156 -0.1289062,0.1054687 -0.328125,1.06640625 -0.9960938,1.3125 -1.3242188,1.3125 -0.3867187,0 -0.5390625,-0.328125 -0.5390625,-0.65625 0,-0.22265625 0.058594,-0.4453125 0.1640625,-0.8789062 z m 0,0"
         style="fill:#000000;fill-opacity:1;fill-rule:nonzero;stroke:none" />
      <path
         id="path27"
         d="m 11.986594,-2.2955937 h 2.777344 c 0.140625,0 0.328125,0 0.328125,-0.1992188 0,-0.1992187 -0.1875,-0.1992187 -0.328125,-0.1992187 h -2.777344 v -2.7890625 c 0,-0.1289063 0,-0.328125 -0.199219,-0.328125 -0.199219,0 -0.199219,0.1992187 -0.199219,0.328125 v 2.7890625 H 8.7990938 c -0.140625,0 -0.328125,0 -0.328125,0.1992187 0,0.1992188 0.1875,0.1992188 0.328125,0.1992188 h 2.7890622 v 2.8007812 c 0,0.12890625 0,0.328125 0.199219,0.328125 0.199219,0 0.199219,-0.19921875 0.199219,-0.328125 z m 0,0"
         style="fill:#000000;fill-opacity:1;fill-rule:nonzero;stroke:none" />
      <path
         id="path28"
         d="m 21.58425,-3.7604375 c -0.175781,-0.375 -0.46875,-0.6445312 -0.914062,-0.6445312 -1.171875,0 -2.402344,1.4648437 -2.402344,2.9179687 0,0.9375 0.550781,1.59375 1.324219,1.59375 0.199218,0 0.703125,-0.03515625 1.300781,-0.73828125 0.07031,0.41015625 0.421875,0.73828125 0.902344,0.73828125 0.351562,0 0.574218,-0.22265625 0.738281,-0.5390625 0.164062,-0.36328125 0.292969,-0.9726562 0.292969,-0.9960937 0,-0.09375 -0.08203,-0.09375 -0.117188,-0.09375 -0.09375,0 -0.105469,0.035156 -0.140625,0.1757812 -0.164062,0.64453125 -0.351562,1.2421875 -0.75,1.2421875 -0.269531,0 -0.304687,-0.2578125 -0.304687,-0.45703125 0,-0.22265625 0.02344,-0.3046875 0.128906,-0.73828125 0.117187,-0.421875 0.128906,-0.5273437 0.222656,-0.9023437 l 0.351563,-1.3945313 c 0.07031,-0.28125 0.07031,-0.2929687 0.07031,-0.3398437 0,-0.1640625 -0.117187,-0.2695313 -0.28125,-0.2695313 -0.246094,0 -0.386719,0.2226563 -0.421875,0.4453125 z m -0.644531,2.578125 c -0.04687,0.1757813 -0.04687,0.19921875 -0.199219,0.36328125 -0.445312,0.55078125 -0.84375,0.71484375 -1.125,0.71484375 -0.503906,0 -0.644531,-0.55078125 -0.644531,-0.9375 0,-0.5039062 0.328125,-1.7226562 0.550781,-2.1796875 0.304688,-0.5976562 0.761719,-0.9609375 1.160156,-0.9609375 0.644532,0 0.785157,0.8203125 0.785157,0.8789063 0,0.058594 -0.02344,0.1171875 -0.03516,0.1640625 z m 0,0"
         style="fill:#000000;fill-opacity:1;fill-rule:nonzero;stroke:none" />
      <path
         id="path29"
         d="m 29.427023,-2.2955937 h 2.777344 c 0.140625,0 0.328125,0 0.328125,-0.1992188 0,-0.1992187 -0.1875,-0.1992187 -0.328125,-0.1992187 h -2.777344 v -2.7890625 c 0,-0.1289063 0,-0.328125 -0.199218,-0.328125 -0.199219,0 -0.199219,0.1992187 -0.199219,0.328125 v 2.7890625 h -2.789063 c -0.140625,0 -0.328125,0 -0.328125,0.1992187 0,0.1992188 0.1875,0.1992188 0.328125,0.1992188 h 2.789063 v 2.8007812 c 0,0.12890625 0,0.328125 0.199219,0.328125 0.199218,0 0.199218,-0.19921875 0.199218,-0.328125 z m 0,0"
         style="fill:#000000;fill-opacity:1;fill-rule:nonzero;stroke:none" />
      <path
         id="path30"
         d="m 37.691672,-6.8073125 c 0,0 0,-0.1054687 -0.128906,-0.1054687 -0.222657,0 -0.949219,0.082031 -1.21875,0.1054687 -0.07031,0 -0.1875,0.011719 -0.1875,0.1992188 0,0.1171875 0.09375,0.1171875 0.246093,0.1171875 0.46875,0 0.492188,0.070312 0.492188,0.1640625 0,0.070312 -0.08203,0.4101562 -0.140625,0.6210937 l -0.808594,3.2460938 c -0.128906,0.5039062 -0.164062,0.65625 -0.164062,1.0078125 0,0.9492187 0.527343,1.5585937 1.265625,1.5585937 1.171875,0 2.402343,-1.4765625 2.402343,-2.9179687 0,-0.9023438 -0.527343,-1.59375 -1.324218,-1.59375 -0.457032,0 -0.867188,0.2929687 -1.171875,0.5976562 z m -0.9375,3.7734375 c 0.05859,-0.2226562 0.05859,-0.2460937 0.152344,-0.3515625 0.492187,-0.6445312 0.9375,-0.796875 1.195312,-0.796875 0.363281,0 0.632813,0.2929688 0.632813,0.9375 0,0.5859375 -0.328125,1.734375 -0.515625,2.109375 -0.328125,0.66796875 -0.785157,1.03125 -1.171875,1.03125 -0.339844,0 -0.667969,-0.26953125 -0.667969,-1.0078125 0,-0.1875 0,-0.3867187 0.164062,-1.0078125 z m 0,0"
         style="fill:#000000;fill-opacity:1;fill-rule:nonzero;stroke:none" />
      <path
         id="path31"
         d="m 45.880148,-2.2955937 h 2.777344 c 0.140625,0 0.328125,0 0.328125,-0.1992188 0,-0.1992187 -0.1875,-0.1992187 -0.328125,-0.1992187 h -2.777344 v -2.7890625 c 0,-0.1289063 0,-0.328125 -0.199218,-0.328125 -0.199219,0 -0.199219,0.1992187 -0.199219,0.328125 v 2.7890625 h -2.789063 c -0.140625,0 -0.328125,0 -0.328125,0.1992187 0,0.1992188 0.1875,0.1992188 0.328125,0.1992188 h 2.789063 v 2.8007812 c 0,0.12890625 0,0.328125 0.199219,0.328125 0.199218,0 0.199218,-0.19921875 0.199218,-0.328125 z m 0,0"
         style="fill:#000000;fill-opacity:1;fill-rule:nonzero;stroke:none" />
      <path
         id="path32"
         d="m 55.715109,-3.783875 c -0.164062,0 -0.304687,0 -0.445312,0.140625 -0.152344,0.1523438 -0.175781,0.3164063 -0.175781,0.3867188 0,0.234375 0.175781,0.3515625 0.363281,0.3515625 0.292969,0 0.5625,-0.2460938 0.5625,-0.6445313 0,-0.4804687 -0.46875,-0.8554687 -1.171875,-0.8554687 -1.347656,0 -2.671875,1.4296875 -2.671875,2.8359375 0,0.89062495 0.574219,1.6757812 1.617187,1.6757812 1.417969,0 2.261719,-1.0546875 2.261719,-1.171875 0,-0.058594 -0.07031,-0.1289062 -0.128906,-0.1289062 -0.04687,0 -0.07031,0.023437 -0.128906,0.09375 -0.785157,0.9960937 -1.875,0.9960937 -1.992188,0.9960937 -0.621094,0 -0.890625,-0.4921875 -0.890625,-1.0898437 0,-0.4101563 0.199219,-1.3710938 0.539063,-1.9921875 0.304687,-0.5625 0.855468,-0.9960938 1.40625,-0.9960938 0.328125,0 0.714843,0.1289063 0.855468,0.3984375 z m 0,0"
         style="fill:#000000;fill-opacity:1;fill-rule:nonzero;stroke:none" />
    </g>
    <path
       id="path33"
       d="M -108.56693,59.36845 H 2.15877"
       style="fill:none;stroke:#000000;stroke-width:0.39848;stroke-linecap:butt;stroke-linejoin:miter;stroke-miterlimit:10;stroke-dasharray:none;stroke-opacity:1"
       transform="matrix(1.3333333,0,0,-1.3333333,175.04267,92.004)" />
    <path
       id="path34"
       d="M -2.07213,2.39091 C -1.69356,0.95633 -0.84995,0.27893 0,0 -0.84995,-0.27893 -1.69356,-0.95633 -2.07213,-2.39091"
       style="fill:none;stroke:#000000;stroke-width:0.39848;stroke-linecap:round;stroke-linejoin:round;stroke-miterlimit:10;stroke-dasharray:none;stroke-opacity:1"
       transform="matrix(1.3333333,0,0,-1.3333333,178.18667,12.846067)" />
    <g
       id="g34"
       aria-label="+a"
       transform="matrix(1.3333333,0,0,1.3333333,97.413333,8.6146667)">
      <path
         id="path35"
         d="m 3.2232031,-1.5713516 h 2.1445313 c 0.082031,0 0.2578125,0 0.2578125,-0.1757812 0,-0.1757813 -0.1640625,-0.1757813 -0.2578125,-0.1757813 H 3.2232031 v -2.1328125 c 0,-0.09375 0,-0.2578125 -0.1640625,-0.2578125 -0.1757812,0 -0.1757812,0.1523438 -0.1757812,0.2578125 v 2.1328125 H 0.75054687 c -0.09375,0 -0.2578125,0 -0.2578125,0.1757813 0,0.1757812 0.15234375,0.1757812 0.2578125,0.1757812 H 2.8833594 v 2.13281254 c 0,0.09375 0,0.2578125 0.1757812,0.2578125 0.1640625,0 0.1640625,-0.15234375 0.1640625,-0.2578125 z m 0,0"
         style="fill:#000000;fill-opacity:1;fill-rule:nonzero;stroke:none" />
      <path
         id="path36"
         d="m 9.0562109,-2.6611953 c -0.140625,-0.234375 -0.3867187,-0.4101563 -0.7148437,-0.4101563 -0.890625,0 -1.8046875,0.9726563 -1.8046875,1.9804688 0,0.67968749 0.4570312,1.16015624 1.0546875,1.16015624 0.375,0 0.7148437,-0.2109375 0.9960937,-0.4921875 0.1289063,0.421875 0.5273438,0.4921875 0.7148438,0.4921875 0.2460937,0 0.421875,-0.15234375 0.5507812,-0.375 0.1523441,-0.26953125 0.2460941,-0.66796875 0.2460941,-0.69140625 0,-0.09375 -0.09375,-0.09375 -0.1171878,-0.09375 -0.09375,0 -0.1054688,0.035156 -0.1523438,0.22265623 -0.082031,0.328125 -0.2109375,0.73828125 -0.5039062,0.73828125 -0.1875,0 -0.234375,-0.15234375 -0.234375,-0.33984375 0,-0.1171875 0.058594,-0.36328125 0.1054687,-0.55078123 0.046875,-0.1875 0.1171875,-0.46875 0.1523438,-0.6210938 l 0.140625,-0.5390625 c 0.046875,-0.1757812 0.1289062,-0.5039062 0.1289062,-0.5390625 0,-0.1523437 -0.1289062,-0.2226562 -0.2460937,-0.2226562 -0.1171875,0 -0.2695313,0.082031 -0.3164063,0.28125 z m -0.4453125,1.79296874 c -0.046875,0.1875 -0.1992187,0.328125 -0.3515625,0.45703125 -0.070312,0.0585938 -0.3398437,0.28125 -0.6445312,0.28125 -0.2578125,0 -0.515625,-0.17578125 -0.515625,-0.66796875 0,-0.37500004 0.2109375,-1.13671874 0.3632812,-1.41796874 0.328125,-0.5625 0.6796875,-0.6679688 0.8789063,-0.6679688 0.4804687,0 0.6210937,0.5273438 0.6210937,0.609375 0,0.023437 -0.011719,0.082031 -0.023437,0.09375 z m 0,0"
         style="fill:#000000;fill-opacity:1;fill-rule:nonzero;stroke:none" />
    </g>
    <path
       id="path37"
       d="M -108.56693,54.71007 -66.36394,27.90735"
       style="fill:none;stroke:#000000;stroke-width:0.39848;stroke-linecap:butt;stroke-linejoin:miter;stroke-miterlimit:10;stroke-dasharray:none;stroke-opacity:1"
       transform="matrix(1.3333333,0,0,-1.3333333,175.04267,92.004)" />
    <path
       id="path38"
       d="M -2.07213,2.39091 C -1.69356,0.95633 -0.84995,0.27893 0,0 -0.84995,-0.27893 -1.69356,-0.95633 -2.07213,-2.39091"
       style="fill:none;stroke:#000000;stroke-width:0.39848;stroke-linecap:round;stroke-linejoin:round;stroke-miterlimit:10;stroke-dasharray:none;stroke-opacity:1"
       transform="matrix(1.1254667,0.71478667,0.71478667,-1.1254667,86.78164,54.9366)" />
    <g
       id="g38"
       aria-label="+b"
       transform="matrix(1.3333333,0,0,1.3333333,42.697333,46.652)">
      <path
         id="path39"
         d="m 3.2240703,-1.5700547 h 2.1445313 c 0.082031,0 0.2578125,0 0.2578125,-0.1757812 0,-0.1757813 -0.1640625,-0.1757813 -0.2578125,-0.1757813 H 3.2240703 v -2.1328125 c 0,-0.09375 0,-0.2578125 -0.1640625,-0.2578125 -0.1757812,0 -0.1757812,0.1523438 -0.1757812,0.2578125 v 2.1328125 H 0.75141406 c -0.09375,0 -0.2578125,0 -0.2578125,0.1757813 0,0.1757812 0.15234375,0.1757812 0.2578125,0.1757812 H 2.8842266 v 2.13281251 c 0,0.09375 0,0.2578125 0.1757812,0.2578125 0.1640625,0 0.1640625,-0.15234375 0.1640625,-0.2578125 z m 0,0"
         style="fill:#000000;fill-opacity:1;fill-rule:nonzero;stroke:none" />
      <path
         id="path40"
         d="m 7.9555156,-4.6286484 c 0.011719,-0.011719 0.023437,-0.1054688 0.023437,-0.1171875 0,-0.035156 -0.023437,-0.09375 -0.1054687,-0.09375 -0.140625,0 -0.7148438,0.058594 -0.890625,0.070312 -0.058594,0.011719 -0.1523438,0.011719 -0.1523438,0.1640625 0,0.09375 0.09375,0.09375 0.1757813,0.09375 0.3398437,0 0.3398437,0.046875 0.3398437,0.1054687 0,0.046875 -0.070312,0.328125 -0.1171875,0.4921875 l -0.1523437,0.6328125 c -0.070312,0.2460938 -0.4570313,1.7695313 -0.46875,1.8632813 -0.035156,0.1640625 -0.035156,0.2578125 -0.035156,0.3398437 0,0.70312501 0.4453125,1.14843751 1.03125,1.14843751 0.8671875,0 1.7929688,-0.94921875 1.7929688,-1.98046871 0,-0.8203125 -0.5625,-1.1601563 -1.0429688,-1.1601563 -0.3632812,0 -0.6679687,0.1992188 -0.8789062,0.375 z m -0.3515625,4.49999996 c -0.3398437,0 -0.5273437,-0.29296875 -0.5273437,-0.703125 0,-0.25781246 0.058594,-0.50390626 0.2578125,-1.28906246 0.035156,-0.1289063 0.035156,-0.140625 0.1640625,-0.2929688 0.2695312,-0.3164062 0.5859375,-0.46875 0.8320312,-0.46875 0.2695313,0 0.515625,0.2109375 0.515625,0.6796875 0,0.28125 -0.1523437,0.9960938 -0.3632812,1.40625001 -0.1757813,0.33984375 -0.515625,0.66796875 -0.8789063,0.66796875 z m 0,0"
         style="fill:#000000;fill-opacity:1;fill-rule:nonzero;stroke:none" />
    </g>
    <path
       id="path41"
       d="M -115.9027,53.03241 V -11.85574"
       style="fill:none;stroke:#000000;stroke-width:0.39848;stroke-linecap:butt;stroke-linejoin:miter;stroke-miterlimit:10;stroke-dasharray:none;stroke-opacity:1"
       transform="matrix(1.3333333,0,0,-1.3333333,175.04267,92.004)" />
    <path
       id="path42"
       d="M -2.07213,2.39091 C -1.69356,0.95633 -0.84995,0.27893 0,0 -0.84995,-0.27893 -1.69356,-0.95633 -2.07213,-2.39091"
       style="fill:none;stroke:#000000;stroke-width:0.39848;stroke-linecap:round;stroke-linejoin:round;stroke-miterlimit:10;stroke-dasharray:none;stroke-opacity:1"
       transform="matrix(0,1.3333333,1.3333333,0,20.505733,108.07731)" />
    <g
       id="g42"
       aria-label="+c"
       transform="matrix(1.3333333,0,0,1.3333333,4.4813333,67.144)">
      <path
         id="path43"
         d="m 3.2220078,-1.5699141 h 2.1445313 c 0.082031,0 0.2578125,0 0.2578125,-0.1757812 0,-0.1757813 -0.1640625,-0.1757813 -0.2578125,-0.1757813 H 3.2220078 v -2.1328125 c 0,-0.09375 0,-0.2578125 -0.1640625,-0.2578125 -0.1757812,0 -0.1757812,0.1523438 -0.1757812,0.2578125 v 2.1328125 H 0.74935156 c -0.09375,0 -0.2578125,0 -0.2578125,0.1757813 0,0.1757812 0.15234375,0.1757812 0.2578125,0.1757812 H 2.8821641 v 2.13281254 c 0,0.09375 0,0.2578125 0.1757812,0.2578125 0.1640625,0 0.1640625,-0.15234375 0.1640625,-0.2578125 z m 0,0"
         style="fill:#000000;fill-opacity:1;fill-rule:nonzero;stroke:none" />
      <path
         id="path44"
         d="m 9.1751328,-2.6714766 c -0.2578125,0.046875 -0.3632812,0.234375 -0.3632812,0.3867188 0,0.1875 0.1523437,0.2578125 0.2695312,0.2578125 0.1640625,0 0.3984375,-0.1054688 0.3984375,-0.4453125 0,-0.46875 -0.5390625,-0.5976563 -0.9140625,-0.5976563 -1.0429687,0 -2.015625,0.9609375 -2.015625,1.921875 0,0.60937504 0.421875,1.21875004 1.2890625,1.21875004 1.1835938,0 1.734375,-0.69140625 1.734375,-0.78515625 0,-0.046875 -0.070312,-0.1171875 -0.1289062,-0.1171875 -0.035156,0 -0.046875,0.0117188 -0.1054688,0.0703125 -0.5507812,0.6328125 -1.359375,0.6328125 -1.4882812,0.6328125 -0.5039063,0 -0.7265625,-0.33984375 -0.7265625,-0.7734375 0,-0.19921879 0.1054687,-0.96093749 0.46875,-1.44140629 0.2578125,-0.3398437 0.6210937,-0.5390625 0.9726562,-0.5390625 0.09375,0 0.4335938,0.011719 0.609375,0.2109375 z m 0,0"
         style="fill:#000000;fill-opacity:1;fill-rule:nonzero;stroke:none" />
    </g>
    <path
       id="path45"
       d="M 18.61443,52.2022 V -11.85574"
       style="fill:none;stroke:#000000;stroke-width:0.39825001;stroke-linecap:butt;stroke-linejoin:miter;stroke-miterlimit:10;stroke-dasharray:0.39825001,1.59300005;stroke-opacity:1;stroke-dashoffset:0"
       transform="matrix(1.3333333,0,0,-1.3333333,175.04267,92.004)" />
    <path
       id="path46"
       d="M -2.07213,2.39091 C -1.69356,0.95633 -0.84995,0.27893 0,0 -0.84995,-0.27893 -1.69356,-0.95633 -2.07213,-2.39091"
       style="fill:none;stroke:#000000;stroke-width:0.39848;stroke-linecap:round;stroke-linejoin:round;stroke-miterlimit:10;stroke-dasharray:none;stroke-opacity:1"
       transform="matrix(0,1.3333333,1.3333333,0,199.86191,108.07731)" />
    <g
       id="g46"
       aria-label="+c"
       transform="matrix(1.3333333,0,0,1.3333333,183.83467,46.212)">
      <path
         id="path47"
         d="m 3.2236094,-1.5711094 h 2.1445312 c 0.082031,0 0.2578125,0 0.2578125,-0.1757812 0,-0.1757813 -0.1640625,-0.1757813 -0.2578125,-0.1757813 H 3.2236094 v -2.1328125 c 0,-0.09375 0,-0.2578125 -0.1640625,-0.2578125 -0.1757813,0 -0.1757813,0.1523438 -0.1757813,0.2578125 v 2.1328125 H 0.75095312 c -0.09375,0 -0.2578125,0 -0.2578125,0.1757813 0,0.1757812 0.15234375,0.1757812 0.2578125,0.1757812 H 2.8837656 v 2.13281252 c 0,0.09375 0,0.2578125 0.1757813,0.2578125 0.1640625,0 0.1640625,-0.15234375 0.1640625,-0.2578125 z m 0,0"
         style="fill:#000000;fill-opacity:1;fill-rule:nonzero;stroke:none" />
      <path
         id="path48"
         d="m 9.1738047,-2.6726719 c -0.2578125,0.046875 -0.3632813,0.234375 -0.3632813,0.3867188 0,0.1875 0.1523438,0.2578125 0.2695313,0.2578125 0.1640625,0 0.3984375,-0.1054688 0.3984375,-0.4453125 0,-0.46875 -0.5390625,-0.5976563 -0.9140625,-0.5976563 -1.0429688,0 -2.015625,0.9609375 -2.015625,1.921875 0,0.60937502 0.421875,1.21875002 1.2890625,1.21875002 1.1835937,0 1.734375,-0.69140625 1.734375,-0.78515625 0,-0.046875 -0.070312,-0.1171875 -0.1289063,-0.1171875 -0.035156,0 -0.046875,0.0117188 -0.1054687,0.0703125 -0.5507813,0.6328125 -1.359375,0.6328125 -1.4882813,0.6328125 -0.5039062,0 -0.7265625,-0.33984375 -0.7265625,-0.7734375 0,-0.19921877 0.1054688,-0.96093747 0.46875,-1.44140627 0.2578125,-0.3398437 0.6210938,-0.5390625 0.9726563,-0.5390625 0.09375,0 0.4335937,0.011719 0.609375,0.2109375 z m 0,0"
         style="fill:#000000;fill-opacity:1;fill-rule:nonzero;stroke:none" />
    </g>
    <path
       id="path49"
       d="M 33.02536,52.2022 81.96411,27.87112"
       style="fill:none;stroke:#000000;stroke-width:0.39848;stroke-linecap:butt;stroke-linejoin:miter;stroke-miterlimit:10;stroke-dasharray:none;stroke-opacity:1"
       transform="matrix(1.3333333,0,0,-1.3333333,175.04267,92.004)" />
    <path
       id="path50"
       d="M -2.07213,2.39091 C -1.69356,0.95633 -0.84995,0.27893 0,0 -0.84995,-0.27893 -1.69356,-0.95633 -2.07213,-2.39091"
       style="fill:none;stroke:#000000;stroke-width:0.39848;stroke-linecap:round;stroke-linejoin:round;stroke-miterlimit:10;stroke-dasharray:none;stroke-opacity:1"
       transform="matrix(1.1938533,0.59354667,0.59354667,-1.1938533,284.56599,54.960773)" />
    <g
       id="g50"
       aria-label="+b"
       transform="matrix(1.3333333,0,0,1.3333333,255.06533,34.509333)">
      <path
         id="path51"
         d="m 3.2234609,-1.5714531 h 2.1445313 c 0.082031,0 0.2578125,0 0.2578125,-0.1757813 0,-0.1757812 -0.1640625,-0.1757812 -0.2578125,-0.1757812 H 3.2234609 v -2.1328125 c 0,-0.09375 0,-0.2578125 -0.1640625,-0.2578125 -0.1757812,0 -0.1757812,0.1523437 -0.1757812,0.2578125 v 2.1328125 H 0.75080469 c -0.09375,0 -0.2578125,0 -0.2578125,0.1757812 0,0.1757813 0.15234375,0.1757813 0.2578125,0.1757813 H 2.8836172 v 2.13281247 c 0,0.09375 0,0.2578125 0.1757812,0.2578125 0.1640625,0 0.1640625,-0.15234375 0.1640625,-0.2578125 z m 0,0"
         style="fill:#000000;fill-opacity:1;fill-rule:nonzero;stroke:none" />
      <path
         id="path52"
         d="m 7.9549063,-4.6300469 c 0.011719,-0.011719 0.023437,-0.1054687 0.023437,-0.1171875 0,-0.035156 -0.023437,-0.09375 -0.1054688,-0.09375 -0.140625,0 -0.7148437,0.058594 -0.890625,0.070312 -0.058594,0.011719 -0.1523437,0.011719 -0.1523437,0.1640625 0,0.09375 0.09375,0.09375 0.1757812,0.09375 0.3398438,0 0.3398438,0.046875 0.3398438,0.1054688 0,0.046875 -0.070312,0.328125 -0.1171875,0.4921875 L 7.076,-3.2823906 c -0.070312,0.2460937 -0.4570312,1.7695312 -0.46875,1.8632812 -0.035156,0.1640625 -0.035156,0.2578125 -0.035156,0.3398438 0,0.70312497 0.4453125,1.14843747 1.03125,1.14843747 0.8671875,0 1.7929687,-0.94921875 1.7929687,-1.98046877 0,-0.8203125 -0.5625,-1.1601562 -1.0429687,-1.1601562 -0.3632813,0 -0.6679688,0.1992187 -0.8789063,0.375 z m -0.3515625,4.50000002 c -0.3398438,0 -0.5273438,-0.29296875 -0.5273438,-0.703125 0,-0.25781252 0.058594,-0.50390622 0.2578125,-1.28906252 0.035156,-0.1289062 0.035156,-0.140625 0.1640625,-0.2929687 0.2695313,-0.3164063 0.5859375,-0.46875 0.8320313,-0.46875 0.2695312,0 0.515625,0.2109375 0.515625,0.6796875 0,0.28125 -0.1523438,0.9960937 -0.3632813,1.40624997 -0.1757812,0.33984375 -0.515625,0.66796875 -0.8789062,0.66796875 z m 0,0"
         style="fill:#000000;fill-opacity:1;fill-rule:nonzero;stroke:none" />
    </g>
    <path
       id="path53"
       d="M -37.44292,19.42049 H 74.67177"
       style="fill:none;stroke:none;stroke-width:6.43427;stroke-linecap:butt;stroke-linejoin:miter;stroke-miterlimit:10;stroke-dasharray:none;stroke-opacity:1"
       transform="matrix(1.3333333,0,0,-1.3333333,175.04267,92.004)" />
    <path
       id="path54"
       d="M -37.44292,19.42049 H 74.2733"
       style="fill:none;stroke:#000000;stroke-width:0.39848;stroke-linecap:butt;stroke-linejoin:miter;stroke-miterlimit:10;stroke-dasharray:none;stroke-opacity:1"
       transform="matrix(1.3333333,0,0,-1.3333333,175.04267,92.004)" />
    <path
       id="path55"
       d="M -2.07213,2.39091 C -1.69356,0.95633 -0.84995,0.27893 0,0 -0.84995,-0.27893 -1.69356,-0.95633 -2.07213,-2.39091"
       style="fill:none;stroke:#000000;stroke-width:0.39848;stroke-linecap:round;stroke-linejoin:round;stroke-miterlimit:10;stroke-dasharray:none;stroke-opacity:1"
       transform="matrix(1.3333333,0,0,-1.3333333,274.33937,66.110013)" />
    <g
       id="g55"
       aria-label="+a"
       transform="matrix(1.3333333,0,0,1.3333333,155.53333,61.878667)">
      <path
         id="path56"
         d="m 3.2240234,-1.5701328 h 2.1445313 c 0.082031,0 0.2578125,0 0.2578125,-0.1757813 0,-0.1757812 -0.1640625,-0.1757812 -0.2578125,-0.1757812 H 3.2240234 v -2.1328125 c 0,-0.09375 0,-0.2578125 -0.1640625,-0.2578125 -0.1757812,0 -0.1757812,0.1523437 -0.1757812,0.2578125 v 2.1328125 H 0.75136719 c -0.09375,0 -0.2578125,0 -0.2578125,0.1757812 0,0.1757813 0.15234375,0.1757813 0.2578125,0.1757813 H 2.8841797 v 2.13281249 c 0,0.09375 0,0.2578125 0.1757812,0.2578125 0.1640625,0 0.1640625,-0.15234375 0.1640625,-0.2578125 z m 0,0"
         style="fill:#000000;fill-opacity:1;fill-rule:nonzero;stroke:none" />
      <path
         id="path57"
         d="m 9.0570312,-2.6599766 c -0.140625,-0.234375 -0.3867187,-0.4101562 -0.7148437,-0.4101562 -0.890625,0 -1.8046875,0.9726562 -1.8046875,1.9804687 0,0.67968754 0.4570312,1.16015629 1.0546875,1.16015629 0.375,0 0.7148437,-0.2109375 0.9960937,-0.4921875 0.1289063,0.4218749975 0.5273438,0.4921875 0.7148438,0.4921875 0.2460937,0 0.421875,-0.15234375 0.5507812,-0.375 C 10.00625,-0.57403906 10.1,-0.97247656 10.1,-0.99591406 c 0,-0.09375 -0.09375,-0.09375 -0.1171875,-0.09375 -0.09375,0 -0.1054688,0.035156 -0.1523438,0.22265633 -0.082031,0.328125 -0.2109375,0.73828125 -0.5039062,0.73828125 -0.1875,0 -0.234375,-0.15234375 -0.234375,-0.33984375 0,-0.1171875 0.058594,-0.36328125 0.1054687,-0.55078133 0.046875,-0.1875 0.1171875,-0.46875 0.1523438,-0.6210937 l 0.140625,-0.5390625 c 0.046875,-0.1757813 0.1289062,-0.5039063 0.1289062,-0.5390625 0,-0.1523438 -0.1289062,-0.2226563 -0.2460937,-0.2226563 -0.1171875,0 -0.2695313,0.082031 -0.3164063,0.28125 z m -0.4453125,1.79296879 c -0.046875,0.1875 -0.1992187,0.328125 -0.3515625,0.45703125 -0.070312,0.0585938 -0.3398437,0.28125 -0.6445312,0.28125 -0.2578125,0 -0.515625,-0.17578125 -0.515625,-0.66796875 0,-0.37499999 0.2109375,-1.13671879 0.3632812,-1.41796879 0.328125,-0.5625 0.6796875,-0.6679687 0.8789063,-0.6679687 0.4804687,0 0.6210937,0.5273437 0.6210937,0.609375 0,0.023437 -0.011719,0.082031 -0.023437,0.09375 z m 0,0"
         style="fill:#000000;fill-opacity:1;fill-rule:nonzero;stroke:none" />
    </g>
    <path
       id="path58"
       d="M 98.95511,12.25421 V -50.69673"
       style="fill:none;stroke:#000000;stroke-width:0.39848;stroke-linecap:butt;stroke-linejoin:miter;stroke-miterlimit:10;stroke-dasharray:none;stroke-opacity:1"
       transform="matrix(1.3333333,0,0,-1.3333333,175.04267,92.004)" />
    <path
       id="path59"
       d="M -2.07213,2.39091 C -1.69356,0.95633 -0.84995,0.27893 0,0 -0.84995,-0.27893 -1.69356,-0.95633 -2.07213,-2.39091"
       style="fill:none;stroke:#000000;stroke-width:0.39848;stroke-linecap:round;stroke-linejoin:round;stroke-miterlimit:10;stroke-dasharray:none;stroke-opacity:1"
       transform="matrix(0,1.3333333,1.3333333,0,306.98281,159.86529)" />
    <g
       id="g59"
       aria-label="+c"
       transform="matrix(1.3333333,0,0,1.3333333,310.10533,120.22267)">
      <path
         id="path60"
         d="m 3.2227578,-1.5703203 h 2.1445313 c 0.082031,0 0.2578125,0 0.2578125,-0.1757813 0,-0.1757812 -0.1640625,-0.1757812 -0.2578125,-0.1757812 H 3.2227578 v -2.1328125 c 0,-0.09375 0,-0.2578125 -0.1640625,-0.2578125 -0.1757812,0 -0.1757812,0.1523437 -0.1757812,0.2578125 v 2.1328125 H 0.75010156 c -0.09375,0 -0.2578125,0 -0.2578125,0.1757812 0,0.1757813 0.15234375,0.1757813 0.2578125,0.1757813 H 2.8829141 v 2.13281249 c 0,0.09375 0,0.2578125 0.1757812,0.2578125 0.1640625,0 0.1640625,-0.15234375 0.1640625,-0.2578125 z m 0,0"
         style="fill:#000000;fill-opacity:1;fill-rule:nonzero;stroke:none" />
      <path
         id="path61"
         d="m 9.1758828,-2.6718828 c -0.2578125,0.046875 -0.3632812,0.234375 -0.3632812,0.3867187 0,0.1875 0.1523437,0.2578125 0.2695312,0.2578125 0.1640625,0 0.3984375,-0.1054687 0.3984375,-0.4453125 0,-0.46875 -0.5390625,-0.5976562 -0.9140625,-0.5976562 -1.0429687,0 -2.015625,0.9609375 -2.015625,1.921875 0,0.60937499 0.421875,1.21874999 1.2890625,1.21874999 1.1835938,0 1.734375,-0.69140625 1.734375,-0.78515625 0,-0.046875 -0.070312,-0.1171875 -0.1289062,-0.1171875 -0.035156,0 -0.046875,0.0117188 -0.1054688,0.0703125 -0.5507812,0.6328125 -1.359375,0.6328125 -1.4882812,0.6328125 -0.5039063,0 -0.7265625,-0.33984375 -0.7265625,-0.7734375 0,-0.19921874 0.1054687,-0.96093754 0.46875,-1.44140624 0.2578125,-0.3398438 0.6210937,-0.5390625 0.9726562,-0.5390625 0.09375,0 0.4335938,0.011719 0.609375,0.2109375 z m 0,0"
         style="fill:#000000;fill-opacity:1;fill-rule:nonzero;stroke:none" />
    </g>
    <path
       id="path62"
       d="M -100.32289,-19.42049 H -6.08525"
       style="fill:none;stroke:#000000;stroke-width:0.39848;stroke-linecap:butt;stroke-linejoin:miter;stroke-miterlimit:10;stroke-dasharray:0.39848,1.59391999;stroke-opacity:1;stroke-dashoffset:0"
       transform="matrix(1.3333333,0,0,-1.3333333,175.04267,92.004)" />
    <path
       id="path63"
       d="M -2.07213,2.39091 C -1.69356,0.95633 -0.84995,0.27893 0,0 -0.84995,-0.27893 -1.69356,-0.95633 -2.07213,-2.39091"
       style="fill:none;stroke:#000000;stroke-width:0.39848;stroke-linecap:round;stroke-linejoin:round;stroke-miterlimit:10;stroke-dasharray:none;stroke-opacity:1"
       transform="matrix(1.3333333,0,0,-1.3333333,167.19464,117.89799)" />
    <g
       id="g63"
       aria-label="+a"
       transform="matrix(1.3333333,0,0,1.3333333,128.956,113.66533)">
      <path
         id="path64"
         d="m 3.2234297,-1.5712656 h 2.1445312 c 0.082031,0 0.2578125,0 0.2578125,-0.1757813 0,-0.1757812 -0.1640625,-0.1757812 -0.2578125,-0.1757812 H 3.2234297 v -2.1328125 c 0,-0.09375 0,-0.2578125 -0.1640625,-0.2578125 -0.1757813,0 -0.1757813,0.1523437 -0.1757813,0.2578125 v 2.1328125 H 0.75077344 c -0.09375,0 -0.2578125,0 -0.2578125,0.1757812 0,0.1757813 0.15234375,0.1757813 0.2578125,0.1757813 H 2.8835859 v 2.13281247 c 0,0.09375 0,0.2578125 0.1757813,0.2578125 0.1640625,0 0.1640625,-0.15234375 0.1640625,-0.2578125 z m 0,0"
         style="fill:#000000;fill-opacity:1;fill-rule:nonzero;stroke:none" />
      <path
         id="path65"
         d="m 9.0564375,-2.6611094 c -0.140625,-0.234375 -0.3867187,-0.4101562 -0.7148437,-0.4101562 -0.890625,0 -1.8046875,0.9726562 -1.8046875,1.9804687 0,0.67968752 0.4570312,1.16015627 1.0546875,1.16015627 0.375,0 0.7148437,-0.2109375 0.9960937,-0.4921875 0.1289063,0.421875005 0.5273438,0.4921875 0.7148438,0.4921875 0.2460937,0 0.421875,-0.15234375 0.5507812,-0.375 0.1523435,-0.26953125 0.2460935,-0.66796875 0.2460935,-0.69140625 0,-0.09375 -0.09375,-0.09375 -0.1171872,-0.09375 -0.09375,0 -0.1054688,0.035156 -0.1523438,0.22265629 -0.082031,0.328125 -0.2109375,0.73828125 -0.5039062,0.73828125 -0.1875,0 -0.234375,-0.15234375 -0.234375,-0.33984375 0,-0.1171875 0.058594,-0.36328125 0.1054687,-0.55078129 0.046875,-0.1875 0.1171875,-0.46875 0.1523438,-0.6210937 l 0.140625,-0.5390625 c 0.046875,-0.1757813 0.1289062,-0.5039063 0.1289062,-0.5390625 0,-0.1523438 -0.1289062,-0.2226563 -0.2460937,-0.2226563 -0.1171875,0 -0.2695313,0.082031 -0.3164063,0.28125 z M 8.611125,-0.86814063 c -0.046875,0.1875 -0.1992187,0.328125 -0.3515625,0.45703125 -0.070312,0.0585938 -0.3398437,0.28125 -0.6445312,0.28125 -0.2578125,0 -0.515625,-0.17578125 -0.515625,-0.66796875 0,-0.37499997 0.2109375,-1.13671877 0.3632812,-1.41796877 0.328125,-0.5625 0.6796875,-0.6679687 0.8789063,-0.6679687 0.4804687,0 0.6210937,0.5273437 0.6210937,0.609375 0,0.023437 -0.011719,0.082031 -0.023437,0.09375 z m 0,0"
         style="fill:#000000;fill-opacity:1;fill-rule:nonzero;stroke:none" />
    </g>
    <path
       id="path66"
       d="m -104.62054,-26.58676 38.2566,-24.29484"
       style="fill:none;stroke:#000000;stroke-width:0.39848;stroke-linecap:butt;stroke-linejoin:miter;stroke-miterlimit:10;stroke-dasharray:none;stroke-opacity:1"
       transform="matrix(1.3333333,0,0,-1.3333333,175.04267,92.004)" />
    <path
       id="path67"
       d="M -2.07213,2.39091 C -1.69356,0.95633 -0.84995,0.27893 0,0 -0.84995,-0.27893 -1.69356,-0.95633 -2.07213,-2.39091"
       style="fill:none;stroke:#000000;stroke-width:0.39848;stroke-linecap:round;stroke-linejoin:round;stroke-miterlimit:10;stroke-dasharray:none;stroke-opacity:1"
       transform="matrix(1.1254933,0.71474667,0.71474667,-1.1254933,86.78164,159.98853)" />
    <g
       id="g67"
       aria-label="+b"
       transform="matrix(1.3333333,0,0,1.3333333,45.326667,153.37467)">
      <path
         id="path68"
         d="m 3.22375,-1.5700625 h 2.1445313 c 0.082031,0 0.2578125,0 0.2578125,-0.1757813 0,-0.1757812 -0.1640625,-0.1757812 -0.2578125,-0.1757812 H 3.22375 v -2.1328125 c 0,-0.09375 0,-0.2578125 -0.1640625,-0.2578125 -0.1757812,0 -0.1757812,0.1523437 -0.1757812,0.2578125 V -1.921625 H 0.75109375 c -0.09375,0 -0.2578125,0 -0.2578125,0.1757812 0,0.1757813 0.15234375,0.1757813 0.2578125,0.1757813 H 2.8839063 V 0.56275 c 0,0.09375 0,0.2578125 0.1757812,0.2578125 0.1640625,0 0.1640625,-0.15234375 0.1640625,-0.2578125 z m 0,0"
         style="fill:#000000;fill-opacity:1;fill-rule:nonzero;stroke:none" />
      <path
         id="path69"
         d="m 7.9551953,-4.6286563 c 0.011719,-0.011719 0.023437,-0.1054687 0.023437,-0.1171875 0,-0.035156 -0.023437,-0.09375 -0.1054687,-0.09375 -0.140625,0 -0.7148438,0.058594 -0.890625,0.070312 -0.058594,0.011719 -0.1523438,0.011719 -0.1523438,0.1640625 0,0.09375 0.09375,0.09375 0.1757813,0.09375 0.3398437,0 0.3398437,0.046875 0.3398437,0.1054688 0,0.046875 -0.070312,0.328125 -0.1171875,0.4921875 L 7.0762891,-3.281 c -0.070312,0.2460937 -0.4570313,1.7695312 -0.46875,1.8632812 -0.035156,0.1640625 -0.035156,0.2578125 -0.035156,0.3398438 0,0.703125 0.4453125,1.1484375 1.03125,1.1484375 0.8671875,0 1.7929688,-0.94921875 1.7929688,-1.9804688 0,-0.8203125 -0.5625,-1.1601562 -1.0429688,-1.1601562 -0.3632812,0 -0.6679687,0.1992187 -0.8789062,0.375 z m -0.3515625,4.50000005 c -0.3398437,0 -0.5273437,-0.29296875 -0.5273437,-0.703125 0,-0.25781255 0.058594,-0.50390625 0.2578125,-1.28906255 0.035156,-0.1289062 0.035156,-0.140625 0.1640625,-0.2929687 0.2695312,-0.3164063 0.5859375,-0.46875 0.8320312,-0.46875 0.2695313,0 0.515625,0.2109375 0.515625,0.6796875 0,0.28125 -0.1523437,0.9960937 -0.3632812,1.40625 -0.1757813,0.33984375 -0.515625,0.66796875 -0.8789063,0.66796875 z m 0,0"
         style="fill:#000000;fill-opacity:1;fill-rule:nonzero;stroke:none" />
    </g>
    <path
       id="path70"
       d="M 33.02536,-26.58676 81.96411,-50.91783"
       style="fill:none;stroke:#000000;stroke-width:0.39848;stroke-linecap:butt;stroke-linejoin:miter;stroke-miterlimit:10;stroke-dasharray:none;stroke-opacity:1"
       transform="matrix(1.3333333,0,0,-1.3333333,175.04267,92.004)" />
    <path
       id="path71"
       d="M -2.07213,2.39091 C -1.69356,0.95633 -0.84995,0.27893 0,0 -0.84995,-0.27893 -1.69356,-0.95633 -2.07213,-2.39091"
       style="fill:none;stroke:#000000;stroke-width:0.39848;stroke-linecap:round;stroke-linejoin:round;stroke-miterlimit:10;stroke-dasharray:none;stroke-opacity:1"
       transform="matrix(1.1938533,0.59354667,0.59354667,-1.1938533,284.56599,160.01269)" />
    <g
       id="g71"
       aria-label="+b"
       transform="matrix(1.3333333,0,0,1.3333333,235.98667,153.37467)">
      <path
         id="path72"
         d="m 3.2238672,-1.5700625 h 2.1445312 c 0.082031,0 0.2578125,0 0.2578125,-0.1757813 0,-0.1757812 -0.1640625,-0.1757812 -0.2578125,-0.1757812 H 3.2238672 v -2.1328125 c 0,-0.09375 0,-0.2578125 -0.1640625,-0.2578125 -0.1757813,0 -0.1757813,0.1523437 -0.1757813,0.2578125 V -1.921625 H 0.75121094 c -0.09375,0 -0.2578125,0 -0.2578125,0.1757812 0,0.1757813 0.15234375,0.1757813 0.2578125,0.1757813 H 2.8840234 V 0.56275 c 0,0.09375 0,0.2578125 0.1757813,0.2578125 0.1640625,0 0.1640625,-0.15234375 0.1640625,-0.2578125 z m 0,0"
         style="fill:#000000;fill-opacity:1;fill-rule:nonzero;stroke:none" />
      <path
         id="path73"
         d="m 7.9553125,-4.6286563 c 0.011719,-0.011719 0.023437,-0.1054687 0.023437,-0.1171875 0,-0.035156 -0.023437,-0.09375 -0.1054688,-0.09375 -0.140625,0 -0.7148437,0.058594 -0.890625,0.070312 -0.058594,0.011719 -0.1523437,0.011719 -0.1523437,0.1640625 0,0.09375 0.09375,0.09375 0.1757812,0.09375 0.3398438,0 0.3398438,0.046875 0.3398438,0.1054688 0,0.046875 -0.070312,0.328125 -0.1171875,0.4921875 L 7.0764062,-3.281 C 7.0060937,-3.0349063 6.619375,-1.5114688 6.6076562,-1.4177188 6.5725,-1.2536563 6.5725,-1.1599063 6.5725,-1.077875 c 0,0.703125 0.4453125,1.1484375 1.03125,1.1484375 0.8671875,0 1.7929687,-0.94921875 1.7929687,-1.9804688 0,-0.8203125 -0.5625,-1.1601562 -1.0429687,-1.1601562 -0.3632813,0 -0.6679688,0.1992187 -0.8789063,0.375 z M 7.60375,-0.12865625 c -0.3398438,0 -0.5273438,-0.29296875 -0.5273438,-0.703125 0,-0.25781255 0.058594,-0.50390625 0.2578125,-1.28906255 0.035156,-0.1289062 0.035156,-0.140625 0.1640625,-0.2929687 0.2695313,-0.3164063 0.5859375,-0.46875 0.8320313,-0.46875 0.2695312,0 0.515625,0.2109375 0.515625,0.6796875 0,0.28125 -0.1523438,0.9960937 -0.3632813,1.40625 -0.1757812,0.33984375 -0.515625,0.66796875 -0.8789062,0.66796875 z m 0,0"
         style="fill:#000000;fill-opacity:1;fill-rule:nonzero;stroke:none" />
    </g>
    <path
       id="path74"
       d="M -29.19888,-59.36845 H 66.02927"
       style="fill:none;stroke:#000000;stroke-width:0.39848;stroke-linecap:butt;stroke-linejoin:miter;stroke-miterlimit:10;stroke-dasharray:none;stroke-opacity:1"
       transform="matrix(1.3333333,0,0,-1.3333333,175.04267,92.004)" />
    <path
       id="path75"
       d="M -2.07213,2.39091 C -1.69356,0.95633 -0.84995,0.27893 0,0 -0.84995,-0.27893 -1.69356,-0.95633 -2.07213,-2.39091"
       style="fill:none;stroke:#000000;stroke-width:0.39848;stroke-linecap:round;stroke-linejoin:round;stroke-miterlimit:10;stroke-dasharray:none;stroke-opacity:1"
       transform="matrix(1.3333333,0,0,-1.3333333,263.34733,171.16193)" />
    <g
       id="g75"
       aria-label="+a"
       transform="matrix(1.3333333,0,0,1.3333333,192.90267,166.92933)">
      <path
         id="path76"
         d="m 3.2224141,-1.5700469 h 2.1445312 c 0.082031,0 0.2578125,0 0.2578125,-0.1757812 0,-0.1757813 -0.1640625,-0.1757813 -0.2578125,-0.1757813 H 3.2224141 v -2.1328125 c 0,-0.09375 0,-0.2578125 -0.1640625,-0.2578125 -0.1757813,0 -0.1757813,0.1523438 -0.1757813,0.2578125 v 2.1328125 H 0.74975781 c -0.09375,0 -0.2578125,0 -0.2578125,0.1757813 0,0.1757812 0.15234375,0.1757812 0.2578125,0.1757812 H 2.8825703 v 2.13281252 c 0,0.09375 0,0.2578125 0.1757813,0.2578125 0.1640625,0 0.1640625,-0.15234375 0.1640625,-0.2578125 z m 0,0"
         style="fill:#000000;fill-opacity:1;fill-rule:nonzero;stroke:none" />
      <path
         id="path77"
         d="m 9.0583516,-2.6598906 c -0.140625,-0.234375 -0.3867188,-0.4101563 -0.7148438,-0.4101563 -0.890625,0 -1.8046875,0.9726563 -1.8046875,1.9804688 0,0.67968747 0.4570313,1.16015622 1.0546875,1.16015622 0.375,0 0.7148438,-0.2109375 0.9960938,-0.4921875 0.1289062,0.421875005 0.5273437,0.4921875 0.7148437,0.4921875 0.2460938,0 0.421875,-0.15234375 0.5507813,-0.375 0.1523434,-0.26953125 0.2460934,-0.66796875 0.2460934,-0.69140625 0,-0.09375 -0.09375,-0.09375 -0.1171872,-0.09375 -0.09375,0 -0.1054687,0.035156 -0.1523437,0.22265619 -0.082031,0.328125 -0.2109375,0.73828125 -0.5039063,0.73828125 -0.1875,0 -0.234375,-0.15234375 -0.234375,-0.33984375 0,-0.1171875 0.058594,-0.36328125 0.1054688,-0.55078119 0.046875,-0.1875 0.1171875,-0.46875 0.1523437,-0.6210938 l 0.140625,-0.5390625 c 0.046875,-0.1757812 0.1289063,-0.5039062 0.1289063,-0.5390625 0,-0.1523437 -0.1289063,-0.2226562 -0.2460938,-0.2226562 -0.1171875,0 -0.2695312,0.082031 -0.3164062,0.28125 z m -0.4453125,1.79296872 c -0.046875,0.1875 -0.1992188,0.328125 -0.3515625,0.45703125 -0.070312,0.0585938 -0.3398438,0.28125 -0.6445313,0.28125 -0.2578125,0 -0.515625,-0.17578125 -0.515625,-0.66796875 0,-0.37500002 0.2109375,-1.13671872 0.3632813,-1.41796872 0.328125,-0.5625 0.6796875,-0.6679688 0.8789062,-0.6679688 0.4804688,0 0.6210938,0.5273438 0.6210938,0.609375 0,0.023437 -0.011719,0.082031 -0.023437,0.09375 z m 0,0"
         style="fill:#000000;fill-opacity:1;fill-rule:nonzero;stroke:none" />
    </g>
    <path
       id="path78"
       d="M -53.00484,-51.09521 V 12.25421"
       style="fill:none;stroke:none;stroke-width:6.43427;stroke-linecap:butt;stroke-linejoin:miter;stroke-miterlimit:10;stroke-dasharray:none;stroke-opacity:1"
       transform="matrix(1.3333333,0,0,-1.3333333,175.04267,92.004)" />
    <path
       id="path79"
       d="M -53.00484,-50.69673 V 12.25421"
       style="fill:none;stroke:#000000;stroke-width:0.39848;stroke-linecap:butt;stroke-linejoin:miter;stroke-miterlimit:10;stroke-dasharray:none;stroke-opacity:1"
       transform="matrix(1.3333333,0,0,-1.3333333,175.04267,92.004)" />
    <path
       id="path80"
       d="M -2.07222,2.391 C -1.69363,0.95638 -0.84998,0.27895 0,0 -0.84998,-0.27895 -1.69363,-0.95638 -2.07222,-2.391"
       style="fill:none;stroke:#000000;stroke-width:0.39848;stroke-linecap:round;stroke-linejoin:round;stroke-miterlimit:10;stroke-dasharray:none;stroke-opacity:1"
       transform="matrix(0,1.3333333,1.3333333,0,104.36955,159.86529)" />
    <g
       id="g80"
       aria-label="+c"
       transform="matrix(1.3333333,0,0,1.3333333,88.342667,99.106667)">
      <path
         id="path81"
         d="M 3.2234687,-1.5712109 H 5.368 c 0.082031,0 0.2578125,0 0.2578125,-0.1757813 0,-0.1757812 -0.1640625,-0.1757812 -0.2578125,-0.1757812 H 3.2234687 v -2.1328125 c 0,-0.09375 0,-0.2578125 -0.1640625,-0.2578125 -0.1757812,0 -0.1757812,0.1523437 -0.1757812,0.2578125 v 2.1328125 H 0.7508125 c -0.09375,0 -0.2578125,0 -0.2578125,0.1757812 0,0.1757813 0.15234375,0.1757813 0.2578125,0.1757813 H 2.883625 v 2.13281246 c 0,0.09375 0,0.2578125 0.1757812,0.2578125 0.1640625,0 0.1640625,-0.15234375 0.1640625,-0.2578125 z m 0,0"
         style="fill:#000000;fill-opacity:1;fill-rule:nonzero;stroke:none" />
      <path
         id="path82"
         d="m 9.1736641,-2.6727734 c -0.2578125,0.046875 -0.3632813,0.234375 -0.3632813,0.3867187 0,0.1875 0.1523438,0.2578125 0.2695313,0.2578125 0.1640625,0 0.3984375,-0.1054687 0.3984375,-0.4453125 0,-0.46875 -0.5390625,-0.5976562 -0.9140625,-0.5976562 -1.0429688,0 -2.015625,0.9609375 -2.015625,1.921875 0,0.60937496 0.421875,1.21874996 1.2890625,1.21874996 1.1835937,0 1.734375,-0.69140625 1.734375,-0.78515625 0,-0.046875 -0.070312,-0.1171875 -0.1289063,-0.1171875 -0.035156,0 -0.046875,0.0117188 -0.1054687,0.0703125 -0.5507813,0.6328125 -1.359375,0.6328125 -1.4882813,0.6328125 -0.5039062,0 -0.7265625,-0.33984375 -0.7265625,-0.7734375 0,-0.19921871 0.1054688,-0.96093751 0.46875,-1.44140621 0.2578125,-0.3398438 0.6210938,-0.5390625 0.9726563,-0.5390625 0.09375,0 0.4335937,0.011719 0.609375,0.2109375 z m 0,0"
         style="fill:#000000;fill-opacity:1;fill-rule:nonzero;stroke:none" />
    </g>
  </g>
</svg>
